G04 EAGLE Gerber RS-274X export*
G75*
%MOMM*%
%FSLAX34Y34*%
%LPD*%
%INTop Copper*%
%IPPOS*%
%AMOC8*
5,1,8,0,0,1.08239X$1,22.5*%
G01*
%ADD10C,1.320800*%
%ADD11C,1.524000*%
%ADD12P,1.429621X8X202.500000*%
%ADD13C,1.508000*%
%ADD14P,1.429621X8X22.500000*%
%ADD15P,1.461226X8X22.500000*%
%ADD16C,0.406400*%


D10*
X457300Y299704D02*
X457300Y286496D01*
X431900Y286496D02*
X431900Y299704D01*
X406500Y299704D02*
X406500Y286496D01*
X381100Y286496D02*
X381100Y299704D01*
X355700Y299704D02*
X355700Y286496D01*
X330300Y286496D02*
X330300Y299704D01*
X304900Y299704D02*
X304900Y286496D01*
X279500Y286496D02*
X279500Y299704D01*
X254100Y299704D02*
X254100Y286496D01*
X228700Y286496D02*
X228700Y299704D01*
X203300Y299704D02*
X203300Y286496D01*
X177900Y286496D02*
X177900Y299704D01*
X152500Y299704D02*
X152500Y286496D01*
X127100Y286496D02*
X127100Y299704D01*
X101700Y299704D02*
X101700Y286496D01*
X101700Y147304D02*
X101700Y134096D01*
X127100Y134096D02*
X127100Y147304D01*
X152500Y147304D02*
X152500Y134096D01*
X177900Y134096D02*
X177900Y147304D01*
X203300Y147304D02*
X203300Y134096D01*
X228700Y134096D02*
X228700Y147304D01*
X254100Y147304D02*
X254100Y134096D01*
X279500Y134096D02*
X279500Y147304D01*
X304900Y147304D02*
X304900Y134096D01*
X330300Y134096D02*
X330300Y147304D01*
X355700Y147304D02*
X355700Y134096D01*
X381100Y134096D02*
X381100Y147304D01*
X406500Y147304D02*
X406500Y134096D01*
X431900Y134096D02*
X431900Y147304D01*
X457300Y147304D02*
X457300Y134096D01*
D11*
X590280Y101400D02*
X605520Y101400D01*
X605520Y76400D02*
X590280Y76400D01*
D12*
X571500Y101600D03*
X495300Y101600D03*
D11*
X590280Y228400D02*
X605520Y228400D01*
X605520Y203400D02*
X590280Y203400D01*
D12*
X571500Y228600D03*
X495300Y228600D03*
D11*
X590280Y355400D02*
X605520Y355400D01*
X605520Y330400D02*
X590280Y330400D01*
D12*
X571500Y355600D03*
X495300Y355600D03*
D10*
X152400Y361696D02*
X152400Y374904D01*
X177800Y374904D02*
X177800Y361696D01*
X203200Y361696D02*
X203200Y374904D01*
X228600Y374904D02*
X228600Y361696D01*
X254000Y361696D02*
X254000Y374904D01*
X279400Y374904D02*
X279400Y361696D01*
X304800Y361696D02*
X304800Y374904D01*
X330200Y374904D02*
X330200Y361696D01*
D13*
X640160Y457200D02*
X655240Y457200D01*
X655240Y482600D02*
X640160Y482600D01*
D10*
X57404Y571500D02*
X44196Y571500D01*
X44196Y546100D02*
X57404Y546100D01*
X57404Y520700D02*
X44196Y520700D01*
X44196Y495300D02*
X57404Y495300D01*
X57404Y469900D02*
X44196Y469900D01*
X44196Y444500D02*
X57404Y444500D01*
D11*
X431800Y33020D02*
X431800Y17780D01*
X406400Y17780D02*
X406400Y33020D01*
X381000Y33020D02*
X381000Y17780D01*
X355600Y17780D02*
X355600Y33020D01*
D14*
X584200Y457200D03*
X533400Y457200D03*
D12*
X533400Y482600D03*
X584200Y482600D03*
D11*
X203000Y57420D02*
X203000Y42180D01*
X178000Y42180D02*
X178000Y57420D01*
D15*
X406400Y76200D03*
D16*
X597700Y76200D01*
X597900Y76400D01*
X571500Y101600D02*
X495300Y177800D01*
X355600Y177800D01*
D15*
X355600Y177800D03*
D16*
X533400Y190500D02*
X571500Y228600D01*
X533400Y190500D02*
X330200Y190500D01*
D15*
X330200Y190500D03*
D16*
X419100Y203200D02*
X571500Y355600D01*
X419100Y203200D02*
X254000Y203200D01*
D15*
X254000Y203200D03*
D16*
X114300Y203200D02*
X101600Y203200D01*
X114300Y203200D02*
X127000Y215900D01*
X114300Y228600D01*
X101600Y228600D01*
X101600Y203200D01*
M02*
