M48
; DRILL file {KiCad 6.0.1-79c1e3a40b~116~ubuntu21.04.1} date Tue 15 Feb 2022 03:37:34 PM
; FORMAT={-:-/ absolute / metric / decimal}
; #@! TF.CreationDate,2022-02-15T15:37:34-05:00
; #@! TF.GenerationSoftware,Kicad,Pcbnew,6.0.1-79c1e3a40b~116~ubuntu21.04.1
; #@! TF.FileFunction,Plated,1,2,PTH
FMAT,2
METRIC
; #@! TA.AperFunction,Plated,PTH,ViaDrill
T1C0.400
; #@! TA.AperFunction,Plated,PTH,ComponentDrill
T2C0.500
; #@! TA.AperFunction,Plated,PTH,ComponentDrill
T3C1.000
; #@! TA.AperFunction,Plated,PTH,ComponentDrill
T4C2.000
; #@! TA.AperFunction,Plated,PTH,ComponentDrill
T5C2.500
; #@! TA.AperFunction,Plated,PTH,ComponentDrill
T6C3.500
%
G90
G05
T1
X74.295Y-75.565
X76.2Y-74.295
X78.74Y-90.17
X83.185Y-86.995
X84.455Y-84.455
X86.995Y-102.87
X87.54Y-73.025
X87.63Y-78.74
X88.645Y-102.87
X88.9Y-93.98
X89.535Y-81.28
X89.535Y-84.455
X89.625Y-98.425
X90.805Y-98.425
X95.885Y-115.57
X97.79Y-115.57
X102.983Y-99.808
X104.14Y-99.06
T2
X76.985Y-157.56
X77.754Y-155.704
X77.754Y-159.416
X79.61Y-154.935
X79.61Y-160.185
X81.466Y-155.704
X81.466Y-159.416
X82.235Y-157.56
T3
X59.69Y-60.96
X59.69Y-63.5
X62.23Y-60.96
X62.23Y-63.5
X64.77Y-60.96
X64.77Y-63.5
X81.915Y-109.22
X84.455Y-109.22
X86.995Y-109.22
X89.535Y-109.22
X92.075Y-109.22
X94.615Y-109.22
X104.775Y-59.055
X104.775Y-61.595
X104.775Y-64.135
X104.775Y-66.675
X104.775Y-76.835
X104.775Y-79.375
X104.775Y-81.915
X104.775Y-84.455
X104.775Y-86.995
X104.775Y-89.535
X104.775Y-92.075
X104.775Y-94.615
X104.775Y-103.505
X104.775Y-106.045
X104.775Y-113.03
X104.775Y-115.57
T4
X64.77Y-76.2
X64.77Y-85.725
X64.77Y-95.25
X64.77Y-104.775
X64.77Y-114.3
X64.77Y-123.825
X64.77Y-133.35
X64.77Y-142.875
X64.77Y-152.4
T5
X80.01Y-125.095
X80.01Y-135.255
X80.01Y-145.415
X87.81Y-145.415
T6
X79.61Y-157.56
T0
M30
