G04 #@! TF.GenerationSoftware,KiCad,Pcbnew,6.0.1-79c1e3a40b~116~ubuntu21.04.1*
G04 #@! TF.CreationDate,2022-02-15T15:37:09-05:00*
G04 #@! TF.ProjectId,oven,6f76656e-2e6b-4696-9361-645f70636258,1.0*
G04 #@! TF.SameCoordinates,Original*
G04 #@! TF.FileFunction,Legend,Top*
G04 #@! TF.FilePolarity,Positive*
%FSLAX46Y46*%
G04 Gerber Fmt 4.6, Leading zero omitted, Abs format (unit mm)*
G04 Created by KiCad (PCBNEW 6.0.1-79c1e3a40b~116~ubuntu21.04.1) date 2022-02-15 15:37:09*
%MOMM*%
%LPD*%
G01*
G04 APERTURE LIST*
G04 Aperture macros list*
%AMRoundRect*
0 Rectangle with rounded corners*
0 $1 Rounding radius*
0 $2 $3 $4 $5 $6 $7 $8 $9 X,Y pos of 4 corners*
0 Add a 4 corners polygon primitive as box body*
4,1,4,$2,$3,$4,$5,$6,$7,$8,$9,$2,$3,0*
0 Add four circle primitives for the rounded corners*
1,1,$1+$1,$2,$3*
1,1,$1+$1,$4,$5*
1,1,$1+$1,$6,$7*
1,1,$1+$1,$8,$9*
0 Add four rect primitives between the rounded corners*
20,1,$1+$1,$2,$3,$4,$5,0*
20,1,$1+$1,$4,$5,$6,$7,0*
20,1,$1+$1,$6,$7,$8,$9,0*
20,1,$1+$1,$8,$9,$2,$3,0*%
G04 Aperture macros list end*
%ADD10C,0.300000*%
%ADD11C,0.225000*%
%ADD12C,0.120000*%
%ADD13C,0.150000*%
%ADD14C,0.375000*%
%ADD15C,0.500000*%
%ADD16C,0.750000*%
%ADD17O,1.700000X1.700000*%
%ADD18R,1.700000X1.700000*%
%ADD19R,1.900000X0.400000*%
%ADD20RoundRect,0.150000X-0.800000X-0.150000X0.800000X-0.150000X0.800000X0.150000X-0.800000X0.150000X0*%
%ADD21RoundRect,0.200000X-0.200000X-0.275000X0.200000X-0.275000X0.200000X0.275000X-0.200000X0.275000X0*%
%ADD22R,1.000000X1.500000*%
%ADD23C,1.700000*%
%ADD24RoundRect,0.250000X0.600000X-0.600000X0.600000X0.600000X-0.600000X0.600000X-0.600000X-0.600000X0*%
%ADD25C,3.900000*%
%ADD26RoundRect,0.250002X-1.699998X-1.699998X1.699998X-1.699998X1.699998X1.699998X-1.699998X1.699998X0*%
%ADD27RoundRect,0.250002X1.699998X-1.699998X1.699998X1.699998X-1.699998X1.699998X-1.699998X-1.699998X0*%
%ADD28RoundRect,0.225000X0.250000X-0.225000X0.250000X0.225000X-0.250000X0.225000X-0.250000X-0.225000X0*%
%ADD29RoundRect,0.225000X-0.225000X-0.250000X0.225000X-0.250000X0.225000X0.250000X-0.225000X0.250000X0*%
%ADD30RoundRect,0.225000X0.225000X0.250000X-0.225000X0.250000X-0.225000X-0.250000X0.225000X-0.250000X0*%
%ADD31RoundRect,0.225000X-0.250000X0.225000X-0.250000X-0.225000X0.250000X-0.225000X0.250000X0.225000X0*%
%ADD32C,3.500000*%
%ADD33C,0.800000*%
%ADD34C,7.000000*%
%ADD35C,5.000000*%
%ADD36R,0.550000X1.600000*%
%ADD37R,1.600000X0.550000*%
G04 APERTURE END LIST*
D10*
X78058476Y-82438761D02*
X78058476Y-80438761D01*
X78058476Y-81391142D02*
X79201333Y-81391142D01*
X79201333Y-82438761D02*
X79201333Y-80438761D01*
X80153714Y-82438761D02*
X80153714Y-80438761D01*
X80915619Y-80438761D01*
X81106095Y-80534000D01*
X81201333Y-80629238D01*
X81296571Y-80819714D01*
X81296571Y-81105428D01*
X81201333Y-81295904D01*
X81106095Y-81391142D01*
X80915619Y-81486380D01*
X80153714Y-81486380D01*
X81868000Y-80438761D02*
X82534666Y-82438761D01*
X83201333Y-80438761D01*
X83868000Y-82438761D02*
X83868000Y-80438761D01*
X84344190Y-80438761D01*
X84629904Y-80534000D01*
X84820380Y-80724476D01*
X84915619Y-80914952D01*
X85010857Y-81295904D01*
X85010857Y-81581619D01*
X84915619Y-81962571D01*
X84820380Y-82153047D01*
X84629904Y-82343523D01*
X84344190Y-82438761D01*
X83868000Y-82438761D01*
X85582285Y-80438761D02*
X86725142Y-80438761D01*
X86153714Y-82438761D02*
X86153714Y-80438761D01*
X89296571Y-80438761D02*
X89677523Y-80438761D01*
X89868000Y-80534000D01*
X90058476Y-80724476D01*
X90153714Y-81105428D01*
X90153714Y-81772095D01*
X90058476Y-82153047D01*
X89868000Y-82343523D01*
X89677523Y-82438761D01*
X89296571Y-82438761D01*
X89106095Y-82343523D01*
X88915619Y-82153047D01*
X88820380Y-81772095D01*
X88820380Y-81105428D01*
X88915619Y-80724476D01*
X89106095Y-80534000D01*
X89296571Y-80438761D01*
X90725142Y-80438761D02*
X91391809Y-82438761D01*
X92058476Y-80438761D01*
X92725142Y-81391142D02*
X93391809Y-81391142D01*
X93677523Y-82438761D02*
X92725142Y-82438761D01*
X92725142Y-80438761D01*
X93677523Y-80438761D01*
X94534666Y-82438761D02*
X94534666Y-80438761D01*
X95677523Y-82438761D01*
X95677523Y-80438761D01*
X57932928Y-91285714D02*
X59432928Y-91285714D01*
X57932928Y-92142857D02*
X58790071Y-91500000D01*
X59432928Y-92142857D02*
X58575785Y-91285714D01*
X58504357Y-92785714D02*
X58504357Y-93928571D01*
X59432928Y-94428571D02*
X59432928Y-95285714D01*
X57932928Y-94857142D02*
X59432928Y-94857142D01*
X58647214Y-96071428D02*
X57932928Y-96071428D01*
X59432928Y-95571428D02*
X58647214Y-96071428D01*
X59432928Y-96571428D01*
X57932928Y-97071428D02*
X59432928Y-97071428D01*
X59432928Y-97642857D01*
X59361500Y-97785714D01*
X59290071Y-97857142D01*
X59147214Y-97928571D01*
X58932928Y-97928571D01*
X58790071Y-97857142D01*
X58718642Y-97785714D01*
X58647214Y-97642857D01*
X58647214Y-97071428D01*
X58718642Y-98571428D02*
X58718642Y-99071428D01*
X57932928Y-99285714D02*
X57932928Y-98571428D01*
X59432928Y-98571428D01*
X59432928Y-99285714D01*
X57017928Y-92392857D02*
X57017928Y-93250000D01*
X55517928Y-92821428D02*
X57017928Y-92821428D01*
X55660785Y-94607142D02*
X55589357Y-94535714D01*
X55517928Y-94321428D01*
X55517928Y-94178571D01*
X55589357Y-93964285D01*
X55732214Y-93821428D01*
X55875071Y-93750000D01*
X56160785Y-93678571D01*
X56375071Y-93678571D01*
X56660785Y-93750000D01*
X56803642Y-93821428D01*
X56946500Y-93964285D01*
X57017928Y-94178571D01*
X57017928Y-94321428D01*
X56946500Y-94535714D01*
X56875071Y-94607142D01*
X55589357Y-95178571D02*
X55517928Y-95321428D01*
X55517928Y-95607142D01*
X55589357Y-95750000D01*
X55732214Y-95821428D01*
X55803642Y-95821428D01*
X55946500Y-95750000D01*
X56017928Y-95607142D01*
X56017928Y-95392857D01*
X56089357Y-95250000D01*
X56232214Y-95178571D01*
X56303642Y-95178571D01*
X56446500Y-95250000D01*
X56517928Y-95392857D01*
X56517928Y-95607142D01*
X56446500Y-95750000D01*
X55660785Y-96464285D02*
X55589357Y-96535714D01*
X55517928Y-96464285D01*
X55589357Y-96392857D01*
X55660785Y-96464285D01*
X55517928Y-96464285D01*
X56089357Y-96464285D02*
X56946500Y-96392857D01*
X57017928Y-96464285D01*
X56946500Y-96535714D01*
X56089357Y-96464285D01*
X57017928Y-96464285D01*
X55660785Y-97178571D02*
X55589357Y-97250000D01*
X55517928Y-97178571D01*
X55589357Y-97107142D01*
X55660785Y-97178571D01*
X55517928Y-97178571D01*
X56089357Y-97178571D02*
X56946500Y-97107142D01*
X57017928Y-97178571D01*
X56946500Y-97250000D01*
X56089357Y-97178571D01*
X57017928Y-97178571D01*
X55660785Y-97892857D02*
X55589357Y-97964285D01*
X55517928Y-97892857D01*
X55589357Y-97821428D01*
X55660785Y-97892857D01*
X55517928Y-97892857D01*
X56089357Y-97892857D02*
X56946500Y-97821428D01*
X57017928Y-97892857D01*
X56946500Y-97964285D01*
X56089357Y-97892857D01*
X57017928Y-97892857D01*
D11*
X102032857Y-109263571D02*
X101532857Y-108549285D01*
X101175714Y-109263571D02*
X101175714Y-107763571D01*
X101747142Y-107763571D01*
X101890000Y-107835000D01*
X101961428Y-107906428D01*
X102032857Y-108049285D01*
X102032857Y-108263571D01*
X101961428Y-108406428D01*
X101890000Y-108477857D01*
X101747142Y-108549285D01*
X101175714Y-108549285D01*
X102675714Y-108477857D02*
X103175714Y-108477857D01*
X103390000Y-109263571D02*
X102675714Y-109263571D01*
X102675714Y-107763571D01*
X103390000Y-107763571D01*
X104747142Y-109263571D02*
X104032857Y-109263571D01*
X104032857Y-107763571D01*
X105175714Y-108835000D02*
X105890000Y-108835000D01*
X105032857Y-109263571D02*
X105532857Y-107763571D01*
X106032857Y-109263571D01*
X106818571Y-108549285D02*
X106818571Y-109263571D01*
X106318571Y-107763571D02*
X106818571Y-108549285D01*
X107318571Y-107763571D01*
X102278571Y-92689285D02*
X100778571Y-92689285D01*
X102278571Y-91832142D01*
X100778571Y-91832142D01*
X100778571Y-91117857D02*
X101992857Y-91117857D01*
X102135714Y-91046428D01*
X102207142Y-90975000D01*
X102278571Y-90832142D01*
X102278571Y-90546428D01*
X102207142Y-90403571D01*
X102135714Y-90332142D01*
X101992857Y-90260714D01*
X100778571Y-90260714D01*
X102278571Y-89546428D02*
X100778571Y-89546428D01*
X101850000Y-89046428D01*
X100778571Y-88546428D01*
X102278571Y-88546428D01*
X101492857Y-87332142D02*
X101564285Y-87117857D01*
X101635714Y-87046428D01*
X101778571Y-86975000D01*
X101992857Y-86975000D01*
X102135714Y-87046428D01*
X102207142Y-87117857D01*
X102278571Y-87260714D01*
X102278571Y-87832142D01*
X100778571Y-87832142D01*
X100778571Y-87332142D01*
X100850000Y-87189285D01*
X100921428Y-87117857D01*
X101064285Y-87046428D01*
X101207142Y-87046428D01*
X101350000Y-87117857D01*
X101421428Y-87189285D01*
X101492857Y-87332142D01*
X101492857Y-87832142D01*
X101492857Y-86332142D02*
X101492857Y-85832142D01*
X102278571Y-85617857D02*
X102278571Y-86332142D01*
X100778571Y-86332142D01*
X100778571Y-85617857D01*
X102278571Y-84117857D02*
X101564285Y-84617857D01*
X102278571Y-84975000D02*
X100778571Y-84975000D01*
X100778571Y-84403571D01*
X100850000Y-84260714D01*
X100921428Y-84189285D01*
X101064285Y-84117857D01*
X101278571Y-84117857D01*
X101421428Y-84189285D01*
X101492857Y-84260714D01*
X101564285Y-84403571D01*
X101564285Y-84975000D01*
X102278571Y-82332142D02*
X100778571Y-82332142D01*
X100778571Y-81760714D01*
X100850000Y-81617857D01*
X100921428Y-81546428D01*
X101064285Y-81475000D01*
X101278571Y-81475000D01*
X101421428Y-81546428D01*
X101492857Y-81617857D01*
X101564285Y-81760714D01*
X101564285Y-82332142D01*
X101850000Y-80903571D02*
X101850000Y-80189285D01*
X102278571Y-81046428D02*
X100778571Y-80546428D01*
X102278571Y-80046428D01*
X102278571Y-79546428D02*
X100778571Y-79546428D01*
X100778571Y-79189285D01*
X100850000Y-78975000D01*
X100992857Y-78832142D01*
X101135714Y-78760714D01*
X101421428Y-78689285D01*
X101635714Y-78689285D01*
X101921428Y-78760714D01*
X102064285Y-78832142D01*
X102207142Y-78975000D01*
X102278571Y-79189285D01*
X102278571Y-79546428D01*
X97833571Y-66972142D02*
X96333571Y-66972142D01*
X96333571Y-66615000D01*
X96405000Y-66400714D01*
X96547857Y-66257857D01*
X96690714Y-66186428D01*
X96976428Y-66115000D01*
X97190714Y-66115000D01*
X97476428Y-66186428D01*
X97619285Y-66257857D01*
X97762142Y-66400714D01*
X97833571Y-66615000D01*
X97833571Y-66972142D01*
X97833571Y-65472142D02*
X96333571Y-65472142D01*
X97762142Y-64829285D02*
X97833571Y-64615000D01*
X97833571Y-64257857D01*
X97762142Y-64115000D01*
X97690714Y-64043571D01*
X97547857Y-63972142D01*
X97405000Y-63972142D01*
X97262142Y-64043571D01*
X97190714Y-64115000D01*
X97119285Y-64257857D01*
X97047857Y-64543571D01*
X96976428Y-64686428D01*
X96905000Y-64757857D01*
X96762142Y-64829285D01*
X96619285Y-64829285D01*
X96476428Y-64757857D01*
X96405000Y-64686428D01*
X96333571Y-64543571D01*
X96333571Y-64186428D01*
X96405000Y-63972142D01*
X97833571Y-63329285D02*
X96333571Y-63329285D01*
X96333571Y-62757857D01*
X96405000Y-62615000D01*
X96476428Y-62543571D01*
X96619285Y-62472142D01*
X96833571Y-62472142D01*
X96976428Y-62543571D01*
X97047857Y-62615000D01*
X97119285Y-62757857D01*
X97119285Y-63329285D01*
X97833571Y-61115000D02*
X97833571Y-61829285D01*
X96333571Y-61829285D01*
X97405000Y-60686428D02*
X97405000Y-59972142D01*
X97833571Y-60829285D02*
X96333571Y-60329285D01*
X97833571Y-59829285D01*
X97119285Y-59043571D02*
X97833571Y-59043571D01*
X96333571Y-59543571D02*
X97119285Y-59043571D01*
X96333571Y-58543571D01*
D12*
X61938904Y-70776904D02*
X61138904Y-70776904D01*
X61710333Y-70510238D01*
X61138904Y-70243571D01*
X61938904Y-70243571D01*
X61938904Y-69862619D02*
X61138904Y-69862619D01*
X62205571Y-69291190D02*
X61062714Y-69291190D01*
X61138904Y-68338809D02*
X61138904Y-68719761D01*
X61519857Y-68757857D01*
X61481761Y-68719761D01*
X61443666Y-68643571D01*
X61443666Y-68453095D01*
X61481761Y-68376904D01*
X61519857Y-68338809D01*
X61596047Y-68300714D01*
X61786523Y-68300714D01*
X61862714Y-68338809D01*
X61900809Y-68376904D01*
X61938904Y-68453095D01*
X61938904Y-68643571D01*
X61900809Y-68719761D01*
X61862714Y-68757857D01*
X61138904Y-68072142D02*
X61938904Y-67805476D01*
X61138904Y-67538809D01*
X63188809Y-71100714D02*
X63226904Y-70986428D01*
X63226904Y-70795952D01*
X63188809Y-70719761D01*
X63150714Y-70681666D01*
X63074523Y-70643571D01*
X62998333Y-70643571D01*
X62922142Y-70681666D01*
X62884047Y-70719761D01*
X62845952Y-70795952D01*
X62807857Y-70948333D01*
X62769761Y-71024523D01*
X62731666Y-71062619D01*
X62655476Y-71100714D01*
X62579285Y-71100714D01*
X62503095Y-71062619D01*
X62465000Y-71024523D01*
X62426904Y-70948333D01*
X62426904Y-70757857D01*
X62465000Y-70643571D01*
X63226904Y-70300714D02*
X62426904Y-70300714D01*
X63226904Y-69843571D02*
X62769761Y-70186428D01*
X62426904Y-69843571D02*
X62884047Y-70300714D01*
X63493571Y-69310238D02*
X62350714Y-69310238D01*
X63226904Y-68738809D02*
X62426904Y-68738809D01*
X62998333Y-68472142D01*
X62426904Y-68205476D01*
X63226904Y-68205476D01*
X62426904Y-67672142D02*
X62426904Y-67519761D01*
X62465000Y-67443571D01*
X62541190Y-67367380D01*
X62693571Y-67329285D01*
X62960238Y-67329285D01*
X63112619Y-67367380D01*
X63188809Y-67443571D01*
X63226904Y-67519761D01*
X63226904Y-67672142D01*
X63188809Y-67748333D01*
X63112619Y-67824523D01*
X62960238Y-67862619D01*
X62693571Y-67862619D01*
X62541190Y-67824523D01*
X62465000Y-67748333D01*
X62426904Y-67672142D01*
X64514904Y-70529285D02*
X64133952Y-70795952D01*
X64514904Y-70986428D02*
X63714904Y-70986428D01*
X63714904Y-70681666D01*
X63753000Y-70605476D01*
X63791095Y-70567380D01*
X63867285Y-70529285D01*
X63981571Y-70529285D01*
X64057761Y-70567380D01*
X64095857Y-70605476D01*
X64133952Y-70681666D01*
X64133952Y-70986428D01*
X64476809Y-70224523D02*
X64514904Y-70110238D01*
X64514904Y-69919761D01*
X64476809Y-69843571D01*
X64438714Y-69805476D01*
X64362523Y-69767380D01*
X64286333Y-69767380D01*
X64210142Y-69805476D01*
X64172047Y-69843571D01*
X64133952Y-69919761D01*
X64095857Y-70072142D01*
X64057761Y-70148333D01*
X64019666Y-70186428D01*
X63943476Y-70224523D01*
X63867285Y-70224523D01*
X63791095Y-70186428D01*
X63753000Y-70148333D01*
X63714904Y-70072142D01*
X63714904Y-69881666D01*
X63753000Y-69767380D01*
X64781571Y-69234047D02*
X63638714Y-69234047D01*
X63753000Y-68243571D02*
X63714904Y-68319761D01*
X63714904Y-68434047D01*
X63753000Y-68548333D01*
X63829190Y-68624523D01*
X63905380Y-68662619D01*
X64057761Y-68700714D01*
X64172047Y-68700714D01*
X64324428Y-68662619D01*
X64400619Y-68624523D01*
X64476809Y-68548333D01*
X64514904Y-68434047D01*
X64514904Y-68357857D01*
X64476809Y-68243571D01*
X64438714Y-68205476D01*
X64172047Y-68205476D01*
X64172047Y-68357857D01*
X64514904Y-67862619D02*
X63714904Y-67862619D01*
X63714904Y-67672142D01*
X63753000Y-67557857D01*
X63829190Y-67481666D01*
X63905380Y-67443571D01*
X64057761Y-67405476D01*
X64172047Y-67405476D01*
X64324428Y-67443571D01*
X64400619Y-67481666D01*
X64476809Y-67557857D01*
X64514904Y-67672142D01*
X64514904Y-67862619D01*
D13*
X59230000Y-56681666D02*
X59706190Y-56681666D01*
X59134761Y-56967380D02*
X59468095Y-55967380D01*
X59801428Y-56967380D01*
X59991904Y-55967380D02*
X60325238Y-56967380D01*
X60658571Y-55967380D01*
X61563333Y-56967380D02*
X61230000Y-56491190D01*
X60991904Y-56967380D02*
X60991904Y-55967380D01*
X61372857Y-55967380D01*
X61468095Y-56015000D01*
X61515714Y-56062619D01*
X61563333Y-56157857D01*
X61563333Y-56300714D01*
X61515714Y-56395952D01*
X61468095Y-56443571D01*
X61372857Y-56491190D01*
X60991904Y-56491190D01*
X61991904Y-56586428D02*
X62753809Y-56586428D01*
X63230000Y-56967380D02*
X63230000Y-55967380D01*
X63658571Y-56919761D02*
X63801428Y-56967380D01*
X64039523Y-56967380D01*
X64134761Y-56919761D01*
X64182380Y-56872142D01*
X64230000Y-56776904D01*
X64230000Y-56681666D01*
X64182380Y-56586428D01*
X64134761Y-56538809D01*
X64039523Y-56491190D01*
X63849047Y-56443571D01*
X63753809Y-56395952D01*
X63706190Y-56348333D01*
X63658571Y-56253095D01*
X63658571Y-56157857D01*
X63706190Y-56062619D01*
X63753809Y-56015000D01*
X63849047Y-55967380D01*
X64087142Y-55967380D01*
X64230000Y-56015000D01*
X64658571Y-56967380D02*
X64658571Y-55967380D01*
X65039523Y-55967380D01*
X65134761Y-56015000D01*
X65182380Y-56062619D01*
X65230000Y-56157857D01*
X65230000Y-56300714D01*
X65182380Y-56395952D01*
X65134761Y-56443571D01*
X65039523Y-56491190D01*
X64658571Y-56491190D01*
D11*
X107707857Y-112342500D02*
X107565000Y-112271071D01*
X107350714Y-112271071D01*
X107136428Y-112342500D01*
X106993571Y-112485357D01*
X106922142Y-112628214D01*
X106850714Y-112913928D01*
X106850714Y-113128214D01*
X106922142Y-113413928D01*
X106993571Y-113556785D01*
X107136428Y-113699642D01*
X107350714Y-113771071D01*
X107493571Y-113771071D01*
X107707857Y-113699642D01*
X107779285Y-113628214D01*
X107779285Y-113128214D01*
X107493571Y-113128214D01*
X107672142Y-114686071D02*
X106957857Y-114686071D01*
X106886428Y-115400357D01*
X106957857Y-115328928D01*
X107100714Y-115257500D01*
X107457857Y-115257500D01*
X107600714Y-115328928D01*
X107672142Y-115400357D01*
X107743571Y-115543214D01*
X107743571Y-115900357D01*
X107672142Y-116043214D01*
X107600714Y-116114642D01*
X107457857Y-116186071D01*
X107100714Y-116186071D01*
X106957857Y-116114642D01*
X106886428Y-116043214D01*
X99295178Y-102817500D02*
X99152321Y-102746071D01*
X98938035Y-102746071D01*
X98723750Y-102817500D01*
X98580892Y-102960357D01*
X98509464Y-103103214D01*
X98438035Y-103388928D01*
X98438035Y-103603214D01*
X98509464Y-103888928D01*
X98580892Y-104031785D01*
X98723750Y-104174642D01*
X98938035Y-104246071D01*
X99080892Y-104246071D01*
X99295178Y-104174642D01*
X99366607Y-104103214D01*
X99366607Y-103603214D01*
X99080892Y-103603214D01*
X100009464Y-104246071D02*
X100009464Y-102746071D01*
X100866607Y-104246071D01*
X100866607Y-102746071D01*
X101580892Y-104246071D02*
X101580892Y-102746071D01*
X101938035Y-102746071D01*
X102152321Y-102817500D01*
X102295178Y-102960357D01*
X102366607Y-103103214D01*
X102438035Y-103388928D01*
X102438035Y-103603214D01*
X102366607Y-103888928D01*
X102295178Y-104031785D01*
X102152321Y-104174642D01*
X101938035Y-104246071D01*
X101580892Y-104246071D01*
X98580892Y-106518214D02*
X98509464Y-106589642D01*
X98295178Y-106661071D01*
X98152321Y-106661071D01*
X97938035Y-106589642D01*
X97795178Y-106446785D01*
X97723750Y-106303928D01*
X97652321Y-106018214D01*
X97652321Y-105803928D01*
X97723750Y-105518214D01*
X97795178Y-105375357D01*
X97938035Y-105232500D01*
X98152321Y-105161071D01*
X98295178Y-105161071D01*
X98509464Y-105232500D01*
X98580892Y-105303928D01*
X99009464Y-105161071D02*
X99866607Y-105161071D01*
X99438035Y-106661071D02*
X99438035Y-105161071D01*
X101223750Y-106661071D02*
X100723750Y-105946785D01*
X100366607Y-106661071D02*
X100366607Y-105161071D01*
X100938035Y-105161071D01*
X101080892Y-105232500D01*
X101152321Y-105303928D01*
X101223750Y-105446785D01*
X101223750Y-105661071D01*
X101152321Y-105803928D01*
X101080892Y-105875357D01*
X100938035Y-105946785D01*
X100366607Y-105946785D01*
X102580892Y-106661071D02*
X101866607Y-106661071D01*
X101866607Y-105161071D01*
X99295178Y-58492500D02*
X99152321Y-58421071D01*
X98938035Y-58421071D01*
X98723750Y-58492500D01*
X98580892Y-58635357D01*
X98509464Y-58778214D01*
X98438035Y-59063928D01*
X98438035Y-59278214D01*
X98509464Y-59563928D01*
X98580892Y-59706785D01*
X98723750Y-59849642D01*
X98938035Y-59921071D01*
X99080892Y-59921071D01*
X99295178Y-59849642D01*
X99366607Y-59778214D01*
X99366607Y-59278214D01*
X99080892Y-59278214D01*
X100009464Y-59921071D02*
X100009464Y-58421071D01*
X100866607Y-59921071D01*
X100866607Y-58421071D01*
X101580892Y-59921071D02*
X101580892Y-58421071D01*
X101938035Y-58421071D01*
X102152321Y-58492500D01*
X102295178Y-58635357D01*
X102366607Y-58778214D01*
X102438035Y-59063928D01*
X102438035Y-59278214D01*
X102366607Y-59563928D01*
X102295178Y-59706785D01*
X102152321Y-59849642D01*
X101938035Y-59921071D01*
X101580892Y-59921071D01*
X101080892Y-60836071D02*
X100366607Y-60836071D01*
X100295178Y-61550357D01*
X100366607Y-61478928D01*
X100509464Y-61407500D01*
X100866607Y-61407500D01*
X101009464Y-61478928D01*
X101080892Y-61550357D01*
X101152321Y-61693214D01*
X101152321Y-62050357D01*
X101080892Y-62193214D01*
X101009464Y-62264642D01*
X100866607Y-62336071D01*
X100509464Y-62336071D01*
X100366607Y-62264642D01*
X100295178Y-62193214D01*
X101580892Y-60836071D02*
X102080892Y-62336071D01*
X102580892Y-60836071D01*
X98795178Y-64679642D02*
X99009464Y-64751071D01*
X99366607Y-64751071D01*
X99509464Y-64679642D01*
X99580892Y-64608214D01*
X99652321Y-64465357D01*
X99652321Y-64322500D01*
X99580892Y-64179642D01*
X99509464Y-64108214D01*
X99366607Y-64036785D01*
X99080892Y-63965357D01*
X98938035Y-63893928D01*
X98866607Y-63822500D01*
X98795178Y-63679642D01*
X98795178Y-63536785D01*
X98866607Y-63393928D01*
X98938035Y-63322500D01*
X99080892Y-63251071D01*
X99438035Y-63251071D01*
X99652321Y-63322500D01*
X100295178Y-64751071D02*
X100295178Y-63251071D01*
X100652321Y-63251071D01*
X100866607Y-63322500D01*
X101009464Y-63465357D01*
X101080892Y-63608214D01*
X101152321Y-63893928D01*
X101152321Y-64108214D01*
X101080892Y-64393928D01*
X101009464Y-64536785D01*
X100866607Y-64679642D01*
X100652321Y-64751071D01*
X100295178Y-64751071D01*
X101723750Y-64322500D02*
X102438035Y-64322500D01*
X101580892Y-64751071D02*
X102080892Y-63251071D01*
X102580892Y-64751071D01*
X98866607Y-67094642D02*
X99080892Y-67166071D01*
X99438035Y-67166071D01*
X99580892Y-67094642D01*
X99652321Y-67023214D01*
X99723750Y-66880357D01*
X99723750Y-66737500D01*
X99652321Y-66594642D01*
X99580892Y-66523214D01*
X99438035Y-66451785D01*
X99152321Y-66380357D01*
X99009464Y-66308928D01*
X98938035Y-66237500D01*
X98866607Y-66094642D01*
X98866607Y-65951785D01*
X98938035Y-65808928D01*
X99009464Y-65737500D01*
X99152321Y-65666071D01*
X99509464Y-65666071D01*
X99723750Y-65737500D01*
X101223750Y-67023214D02*
X101152321Y-67094642D01*
X100938035Y-67166071D01*
X100795178Y-67166071D01*
X100580892Y-67094642D01*
X100438035Y-66951785D01*
X100366607Y-66808928D01*
X100295178Y-66523214D01*
X100295178Y-66308928D01*
X100366607Y-66023214D01*
X100438035Y-65880357D01*
X100580892Y-65737500D01*
X100795178Y-65666071D01*
X100938035Y-65666071D01*
X101152321Y-65737500D01*
X101223750Y-65808928D01*
X102580892Y-67166071D02*
X101866607Y-67166071D01*
X101866607Y-65666071D01*
X82906071Y-114675964D02*
X81406071Y-114675964D01*
X81406071Y-114318821D01*
X81477500Y-114104535D01*
X81620357Y-113961678D01*
X81763214Y-113890250D01*
X82048928Y-113818821D01*
X82263214Y-113818821D01*
X82548928Y-113890250D01*
X82691785Y-113961678D01*
X82834642Y-114104535D01*
X82906071Y-114318821D01*
X82906071Y-114675964D01*
X81406071Y-113390250D02*
X81406071Y-112533107D01*
X82906071Y-112961678D02*
X81406071Y-112961678D01*
X82906071Y-111175964D02*
X82191785Y-111675964D01*
X82906071Y-112033107D02*
X81406071Y-112033107D01*
X81406071Y-111461678D01*
X81477500Y-111318821D01*
X81548928Y-111247392D01*
X81691785Y-111175964D01*
X81906071Y-111175964D01*
X82048928Y-111247392D01*
X82120357Y-111318821D01*
X82191785Y-111461678D01*
X82191785Y-112033107D01*
X85321071Y-112604535D02*
X84606785Y-113104535D01*
X85321071Y-113461678D02*
X83821071Y-113461678D01*
X83821071Y-112890250D01*
X83892500Y-112747392D01*
X83963928Y-112675964D01*
X84106785Y-112604535D01*
X84321071Y-112604535D01*
X84463928Y-112675964D01*
X84535357Y-112747392D01*
X84606785Y-112890250D01*
X84606785Y-113461678D01*
X83821071Y-112104535D02*
X85321071Y-111104535D01*
X83821071Y-111104535D02*
X85321071Y-112104535D01*
X86236071Y-113318821D02*
X86236071Y-112461678D01*
X87736071Y-112890250D02*
X86236071Y-112890250D01*
X86236071Y-112104535D02*
X87736071Y-111104535D01*
X86236071Y-111104535D02*
X87736071Y-112104535D01*
X88651071Y-112533107D02*
X88651071Y-113247392D01*
X89365357Y-113318821D01*
X89293928Y-113247392D01*
X89222500Y-113104535D01*
X89222500Y-112747392D01*
X89293928Y-112604535D01*
X89365357Y-112533107D01*
X89508214Y-112461678D01*
X89865357Y-112461678D01*
X90008214Y-112533107D01*
X90079642Y-112604535D01*
X90151071Y-112747392D01*
X90151071Y-113104535D01*
X90079642Y-113247392D01*
X90008214Y-113318821D01*
X88651071Y-112033107D02*
X90151071Y-111533107D01*
X88651071Y-111033107D01*
X92566071Y-113604535D02*
X91066071Y-113604535D01*
X92566071Y-112747392D01*
X91066071Y-112747392D01*
X92423214Y-111175964D02*
X92494642Y-111247392D01*
X92566071Y-111461678D01*
X92566071Y-111604535D01*
X92494642Y-111818821D01*
X92351785Y-111961678D01*
X92208928Y-112033107D01*
X91923214Y-112104535D01*
X91708928Y-112104535D01*
X91423214Y-112033107D01*
X91280357Y-111961678D01*
X91137500Y-111818821D01*
X91066071Y-111604535D01*
X91066071Y-111461678D01*
X91137500Y-111247392D01*
X91208928Y-111175964D01*
X93552500Y-114318821D02*
X93481071Y-114461678D01*
X93481071Y-114675964D01*
X93552500Y-114890250D01*
X93695357Y-115033107D01*
X93838214Y-115104535D01*
X94123928Y-115175964D01*
X94338214Y-115175964D01*
X94623928Y-115104535D01*
X94766785Y-115033107D01*
X94909642Y-114890250D01*
X94981071Y-114675964D01*
X94981071Y-114533107D01*
X94909642Y-114318821D01*
X94838214Y-114247392D01*
X94338214Y-114247392D01*
X94338214Y-114533107D01*
X94981071Y-113604535D02*
X93481071Y-113604535D01*
X94981071Y-112747392D01*
X93481071Y-112747392D01*
X94981071Y-112033107D02*
X93481071Y-112033107D01*
X93481071Y-111675964D01*
X93552500Y-111461678D01*
X93695357Y-111318821D01*
X93838214Y-111247392D01*
X94123928Y-111175964D01*
X94338214Y-111175964D01*
X94623928Y-111247392D01*
X94766785Y-111318821D01*
X94909642Y-111461678D01*
X94981071Y-111675964D01*
X94981071Y-112033107D01*
D13*
X89305476Y-117562380D02*
X88829285Y-117562380D01*
X88781666Y-118038571D01*
X88829285Y-117990952D01*
X88924523Y-117943333D01*
X89162619Y-117943333D01*
X89257857Y-117990952D01*
X89305476Y-118038571D01*
X89353095Y-118133809D01*
X89353095Y-118371904D01*
X89305476Y-118467142D01*
X89257857Y-118514761D01*
X89162619Y-118562380D01*
X88924523Y-118562380D01*
X88829285Y-118514761D01*
X88781666Y-118467142D01*
X89638809Y-117562380D02*
X89972142Y-118562380D01*
X90305476Y-117562380D01*
X91400714Y-118562380D02*
X91400714Y-117562380D01*
X91638809Y-117562380D01*
X91781666Y-117610000D01*
X91876904Y-117705238D01*
X91924523Y-117800476D01*
X91972142Y-117990952D01*
X91972142Y-118133809D01*
X91924523Y-118324285D01*
X91876904Y-118419523D01*
X91781666Y-118514761D01*
X91638809Y-118562380D01*
X91400714Y-118562380D01*
X92400714Y-118562380D02*
X92400714Y-117895714D01*
X92400714Y-117562380D02*
X92353095Y-117610000D01*
X92400714Y-117657619D01*
X92448333Y-117610000D01*
X92400714Y-117562380D01*
X92400714Y-117657619D01*
X92829285Y-118514761D02*
X92924523Y-118562380D01*
X93115000Y-118562380D01*
X93210238Y-118514761D01*
X93257857Y-118419523D01*
X93257857Y-118371904D01*
X93210238Y-118276666D01*
X93115000Y-118229047D01*
X92972142Y-118229047D01*
X92876904Y-118181428D01*
X92829285Y-118086190D01*
X92829285Y-118038571D01*
X92876904Y-117943333D01*
X92972142Y-117895714D01*
X93115000Y-117895714D01*
X93210238Y-117943333D01*
X94115000Y-118514761D02*
X94019761Y-118562380D01*
X93829285Y-118562380D01*
X93734047Y-118514761D01*
X93686428Y-118467142D01*
X93638809Y-118371904D01*
X93638809Y-118086190D01*
X93686428Y-117990952D01*
X93734047Y-117943333D01*
X93829285Y-117895714D01*
X94019761Y-117895714D01*
X94115000Y-117943333D01*
X94686428Y-118562380D02*
X94591190Y-118514761D01*
X94543571Y-118467142D01*
X94495952Y-118371904D01*
X94495952Y-118086190D01*
X94543571Y-117990952D01*
X94591190Y-117943333D01*
X94686428Y-117895714D01*
X94829285Y-117895714D01*
X94924523Y-117943333D01*
X94972142Y-117990952D01*
X95019761Y-118086190D01*
X95019761Y-118371904D01*
X94972142Y-118467142D01*
X94924523Y-118514761D01*
X94829285Y-118562380D01*
X94686428Y-118562380D01*
X95448333Y-117895714D02*
X95448333Y-118562380D01*
X95448333Y-117990952D02*
X95495952Y-117943333D01*
X95591190Y-117895714D01*
X95734047Y-117895714D01*
X95829285Y-117943333D01*
X95876904Y-118038571D01*
X95876904Y-118562380D01*
X96353095Y-117895714D02*
X96353095Y-118562380D01*
X96353095Y-117990952D02*
X96400714Y-117943333D01*
X96495952Y-117895714D01*
X96638809Y-117895714D01*
X96734047Y-117943333D01*
X96781666Y-118038571D01*
X96781666Y-118562380D01*
X97638809Y-118514761D02*
X97543571Y-118562380D01*
X97353095Y-118562380D01*
X97257857Y-118514761D01*
X97210238Y-118419523D01*
X97210238Y-118038571D01*
X97257857Y-117943333D01*
X97353095Y-117895714D01*
X97543571Y-117895714D01*
X97638809Y-117943333D01*
X97686428Y-118038571D01*
X97686428Y-118133809D01*
X97210238Y-118229047D01*
X98543571Y-118514761D02*
X98448333Y-118562380D01*
X98257857Y-118562380D01*
X98162619Y-118514761D01*
X98115000Y-118467142D01*
X98067380Y-118371904D01*
X98067380Y-118086190D01*
X98115000Y-117990952D01*
X98162619Y-117943333D01*
X98257857Y-117895714D01*
X98448333Y-117895714D01*
X98543571Y-117943333D01*
X98829285Y-117895714D02*
X99210238Y-117895714D01*
X98972142Y-117562380D02*
X98972142Y-118419523D01*
X99019761Y-118514761D01*
X99115000Y-118562380D01*
X99210238Y-118562380D01*
X100162619Y-117657619D02*
X100353095Y-117514761D01*
X100543571Y-117657619D01*
D14*
X59154047Y-82213095D02*
X59154047Y-83641666D01*
X56654047Y-82927380D02*
X59154047Y-82927380D01*
X56892142Y-85903571D02*
X56773095Y-85784523D01*
X56654047Y-85427380D01*
X56654047Y-85189285D01*
X56773095Y-84832142D01*
X57011190Y-84594047D01*
X57249285Y-84475000D01*
X57725476Y-84355952D01*
X58082619Y-84355952D01*
X58558809Y-84475000D01*
X58796904Y-84594047D01*
X59035000Y-84832142D01*
X59154047Y-85189285D01*
X59154047Y-85427380D01*
X59035000Y-85784523D01*
X58915952Y-85903571D01*
X57606428Y-86975000D02*
X57606428Y-88879761D01*
X56654047Y-87927380D02*
X58558809Y-87927380D01*
X59154047Y-72688095D02*
X59154047Y-74116666D01*
X56654047Y-73402380D02*
X59154047Y-73402380D01*
X56892142Y-76378571D02*
X56773095Y-76259523D01*
X56654047Y-75902380D01*
X56654047Y-75664285D01*
X56773095Y-75307142D01*
X57011190Y-75069047D01*
X57249285Y-74950000D01*
X57725476Y-74830952D01*
X58082619Y-74830952D01*
X58558809Y-74950000D01*
X58796904Y-75069047D01*
X59035000Y-75307142D01*
X59154047Y-75664285D01*
X59154047Y-75902380D01*
X59035000Y-76259523D01*
X58915952Y-76378571D01*
X57606428Y-77450000D02*
X57606428Y-79354761D01*
X56654047Y-111085714D02*
X59154047Y-111085714D01*
X57963571Y-111085714D02*
X57963571Y-112514285D01*
X56654047Y-112514285D02*
X59154047Y-112514285D01*
X59154047Y-113347619D02*
X59154047Y-114776190D01*
X56654047Y-114061904D02*
X59154047Y-114061904D01*
X57606428Y-115609523D02*
X57606428Y-117514285D01*
X56654047Y-116561904D02*
X58558809Y-116561904D01*
X56654047Y-120610714D02*
X59154047Y-120610714D01*
X57963571Y-120610714D02*
X57963571Y-122039285D01*
X56654047Y-122039285D02*
X59154047Y-122039285D01*
X59154047Y-122872619D02*
X59154047Y-124301190D01*
X56654047Y-123586904D02*
X59154047Y-123586904D01*
X57606428Y-125134523D02*
X57606428Y-127039285D01*
X56654047Y-129242857D02*
X59154047Y-129242857D01*
X56654047Y-130671428D01*
X59154047Y-130671428D01*
X57963571Y-131861904D02*
X57963571Y-132695238D01*
X56654047Y-133052380D02*
X56654047Y-131861904D01*
X59154047Y-131861904D01*
X59154047Y-133052380D01*
X59154047Y-134123809D02*
X57130238Y-134123809D01*
X56892142Y-134242857D01*
X56773095Y-134361904D01*
X56654047Y-134600000D01*
X56654047Y-135076190D01*
X56773095Y-135314285D01*
X56892142Y-135433333D01*
X57130238Y-135552380D01*
X59154047Y-135552380D01*
X59154047Y-136385714D02*
X59154047Y-137814285D01*
X56654047Y-137100000D02*
X59154047Y-137100000D01*
X56654047Y-140851190D02*
X56654047Y-139660714D01*
X59154047Y-139660714D01*
X56654047Y-141684523D02*
X59154047Y-141684523D01*
X59154047Y-142517857D02*
X56654047Y-143351190D01*
X59154047Y-144184523D01*
X57963571Y-145017857D02*
X57963571Y-145851190D01*
X56654047Y-146208333D02*
X56654047Y-145017857D01*
X59154047Y-145017857D01*
X59154047Y-146208333D01*
X57963571Y-148352380D02*
X57963571Y-149185714D01*
X56654047Y-149542857D02*
X56654047Y-148352380D01*
X59154047Y-148352380D01*
X59154047Y-149542857D01*
X56654047Y-152042857D02*
X57844523Y-151209523D01*
X56654047Y-150614285D02*
X59154047Y-150614285D01*
X59154047Y-151566666D01*
X59035000Y-151804761D01*
X58915952Y-151923809D01*
X58677857Y-152042857D01*
X58320714Y-152042857D01*
X58082619Y-151923809D01*
X57963571Y-151804761D01*
X57844523Y-151566666D01*
X57844523Y-150614285D01*
X59154047Y-152757142D02*
X59154047Y-154185714D01*
X56654047Y-153471428D02*
X59154047Y-153471428D01*
X56654047Y-155019047D02*
X59154047Y-155019047D01*
X57963571Y-155019047D02*
X57963571Y-156447619D01*
X56654047Y-156447619D02*
X59154047Y-156447619D01*
D15*
X78740000Y-120015000D02*
X108585000Y-120015000D01*
X74295000Y-115570000D02*
X78740000Y-120015000D01*
X74295000Y-108585000D02*
X74295000Y-115570000D01*
X70485000Y-104775000D02*
X74295000Y-108585000D01*
D16*
X86281904Y-157122857D02*
X87948571Y-157122857D01*
X88662857Y-159741904D02*
X86281904Y-159741904D01*
X86281904Y-154741904D01*
X88662857Y-154741904D01*
X90567619Y-158313333D02*
X92948571Y-158313333D01*
X90091428Y-159741904D02*
X91758095Y-154741904D01*
X93424761Y-159741904D01*
X97948571Y-159741904D02*
X96281904Y-157360952D01*
X95091428Y-159741904D02*
X95091428Y-154741904D01*
X96996190Y-154741904D01*
X97472380Y-154980000D01*
X97710476Y-155218095D01*
X97948571Y-155694285D01*
X97948571Y-156408571D01*
X97710476Y-156884761D01*
X97472380Y-157122857D01*
X96996190Y-157360952D01*
X95091428Y-157360952D01*
X99377142Y-154741904D02*
X102234285Y-154741904D01*
X100805714Y-159741904D02*
X100805714Y-154741904D01*
X103900952Y-159741904D02*
X103900952Y-154741904D01*
X103900952Y-157122857D02*
X106758095Y-157122857D01*
X106758095Y-159741904D02*
X106758095Y-154741904D01*
X90131190Y-127356904D02*
X88464523Y-124975952D01*
X87274047Y-127356904D02*
X87274047Y-122356904D01*
X89178809Y-122356904D01*
X89655000Y-122595000D01*
X89893095Y-122833095D01*
X90131190Y-123309285D01*
X90131190Y-124023571D01*
X89893095Y-124499761D01*
X89655000Y-124737857D01*
X89178809Y-124975952D01*
X87274047Y-124975952D01*
X92274047Y-124737857D02*
X93940714Y-124737857D01*
X94655000Y-127356904D02*
X92274047Y-127356904D01*
X92274047Y-122356904D01*
X94655000Y-122356904D01*
X99178809Y-127356904D02*
X96797857Y-127356904D01*
X96797857Y-122356904D01*
X100607380Y-125928333D02*
X102988333Y-125928333D01*
X100131190Y-127356904D02*
X101797857Y-122356904D01*
X103464523Y-127356904D01*
X106083571Y-124975952D02*
X106083571Y-127356904D01*
X104416904Y-122356904D02*
X106083571Y-124975952D01*
X107750238Y-122356904D01*
X90210714Y-137516904D02*
X90210714Y-132516904D01*
X93067857Y-137516904D01*
X93067857Y-132516904D01*
X95448809Y-134897857D02*
X97115476Y-134897857D01*
X97829761Y-137516904D02*
X95448809Y-137516904D01*
X95448809Y-132516904D01*
X97829761Y-132516904D01*
X99972619Y-132516904D02*
X99972619Y-136564523D01*
X100210714Y-137040714D01*
X100448809Y-137278809D01*
X100925000Y-137516904D01*
X101877380Y-137516904D01*
X102353571Y-137278809D01*
X102591666Y-137040714D01*
X102829761Y-136564523D01*
X102829761Y-132516904D01*
X104496428Y-132516904D02*
X107353571Y-132516904D01*
X105925000Y-137516904D02*
X105925000Y-132516904D01*
X95647380Y-147676904D02*
X93266428Y-147676904D01*
X93266428Y-142676904D01*
X97314047Y-147676904D02*
X97314047Y-142676904D01*
X98980714Y-142676904D02*
X100647380Y-147676904D01*
X102314047Y-142676904D01*
X103980714Y-145057857D02*
X105647380Y-145057857D01*
X106361666Y-147676904D02*
X103980714Y-147676904D01*
X103980714Y-142676904D01*
X106361666Y-142676904D01*
D13*
X106981666Y-100417380D02*
X106981666Y-101131666D01*
X106934047Y-101274523D01*
X106838809Y-101369761D01*
X106695952Y-101417380D01*
X106600714Y-101417380D01*
X107886428Y-100417380D02*
X107695952Y-100417380D01*
X107600714Y-100465000D01*
X107553095Y-100512619D01*
X107457857Y-100655476D01*
X107410238Y-100845952D01*
X107410238Y-101226904D01*
X107457857Y-101322142D01*
X107505476Y-101369761D01*
X107600714Y-101417380D01*
X107791190Y-101417380D01*
X107886428Y-101369761D01*
X107934047Y-101322142D01*
X107981666Y-101226904D01*
X107981666Y-100988809D01*
X107934047Y-100893571D01*
X107886428Y-100845952D01*
X107791190Y-100798333D01*
X107600714Y-100798333D01*
X107505476Y-100845952D01*
X107457857Y-100893571D01*
X107410238Y-100988809D01*
X106981666Y-110212380D02*
X106981666Y-110926666D01*
X106934047Y-111069523D01*
X106838809Y-111164761D01*
X106695952Y-111212380D01*
X106600714Y-111212380D01*
X107410238Y-110307619D02*
X107457857Y-110260000D01*
X107553095Y-110212380D01*
X107791190Y-110212380D01*
X107886428Y-110260000D01*
X107934047Y-110307619D01*
X107981666Y-110402857D01*
X107981666Y-110498095D01*
X107934047Y-110640952D01*
X107362619Y-111212380D01*
X107981666Y-111212380D01*
X106981666Y-73747380D02*
X106981666Y-74461666D01*
X106934047Y-74604523D01*
X106838809Y-74699761D01*
X106695952Y-74747380D01*
X106600714Y-74747380D01*
X107600714Y-74175952D02*
X107505476Y-74128333D01*
X107457857Y-74080714D01*
X107410238Y-73985476D01*
X107410238Y-73937857D01*
X107457857Y-73842619D01*
X107505476Y-73795000D01*
X107600714Y-73747380D01*
X107791190Y-73747380D01*
X107886428Y-73795000D01*
X107934047Y-73842619D01*
X107981666Y-73937857D01*
X107981666Y-73985476D01*
X107934047Y-74080714D01*
X107886428Y-74128333D01*
X107791190Y-74175952D01*
X107600714Y-74175952D01*
X107505476Y-74223571D01*
X107457857Y-74271190D01*
X107410238Y-74366428D01*
X107410238Y-74556904D01*
X107457857Y-74652142D01*
X107505476Y-74699761D01*
X107600714Y-74747380D01*
X107791190Y-74747380D01*
X107886428Y-74699761D01*
X107934047Y-74652142D01*
X107981666Y-74556904D01*
X107981666Y-74366428D01*
X107934047Y-74271190D01*
X107886428Y-74223571D01*
X107791190Y-74175952D01*
X99131190Y-89446190D02*
X99607380Y-89446190D01*
X98607380Y-89779523D02*
X99131190Y-89446190D01*
X98607380Y-89112857D01*
X99607380Y-88255714D02*
X99607380Y-88827142D01*
X99607380Y-88541428D02*
X98607380Y-88541428D01*
X98750238Y-88636666D01*
X98845476Y-88731904D01*
X98893095Y-88827142D01*
X81153095Y-69062380D02*
X81153095Y-69871904D01*
X81200714Y-69967142D01*
X81248333Y-70014761D01*
X81343571Y-70062380D01*
X81534047Y-70062380D01*
X81629285Y-70014761D01*
X81676904Y-69967142D01*
X81724523Y-69871904D01*
X81724523Y-69062380D01*
X82153095Y-69157619D02*
X82200714Y-69110000D01*
X82295952Y-69062380D01*
X82534047Y-69062380D01*
X82629285Y-69110000D01*
X82676904Y-69157619D01*
X82724523Y-69252857D01*
X82724523Y-69348095D01*
X82676904Y-69490952D01*
X82105476Y-70062380D01*
X82724523Y-70062380D01*
X87653333Y-104846380D02*
X87320000Y-104370190D01*
X87081904Y-104846380D02*
X87081904Y-103846380D01*
X87462857Y-103846380D01*
X87558095Y-103894000D01*
X87605714Y-103941619D01*
X87653333Y-104036857D01*
X87653333Y-104179714D01*
X87605714Y-104274952D01*
X87558095Y-104322571D01*
X87462857Y-104370190D01*
X87081904Y-104370190D01*
X88605714Y-104846380D02*
X88034285Y-104846380D01*
X88320000Y-104846380D02*
X88320000Y-103846380D01*
X88224761Y-103989238D01*
X88129523Y-104084476D01*
X88034285Y-104132095D01*
X99481666Y-113222380D02*
X99481666Y-113936666D01*
X99434047Y-114079523D01*
X99338809Y-114174761D01*
X99195952Y-114222380D01*
X99100714Y-114222380D01*
X99957857Y-114222380D02*
X99957857Y-113222380D01*
X100338809Y-113222380D01*
X100434047Y-113270000D01*
X100481666Y-113317619D01*
X100529285Y-113412857D01*
X100529285Y-113555714D01*
X100481666Y-113650952D01*
X100434047Y-113698571D01*
X100338809Y-113746190D01*
X99957857Y-113746190D01*
X101481666Y-114222380D02*
X100910238Y-114222380D01*
X101195952Y-114222380D02*
X101195952Y-113222380D01*
X101100714Y-113365238D01*
X101005476Y-113460476D01*
X100910238Y-113508095D01*
X96397380Y-110029523D02*
X97111666Y-110029523D01*
X97254523Y-110077142D01*
X97349761Y-110172380D01*
X97397380Y-110315238D01*
X97397380Y-110410476D01*
X97397380Y-109029523D02*
X97397380Y-109600952D01*
X97397380Y-109315238D02*
X96397380Y-109315238D01*
X96540238Y-109410476D01*
X96635476Y-109505714D01*
X96683095Y-109600952D01*
X96397380Y-108410476D02*
X96397380Y-108315238D01*
X96445000Y-108220000D01*
X96492619Y-108172380D01*
X96587857Y-108124761D01*
X96778333Y-108077142D01*
X97016428Y-108077142D01*
X97206904Y-108124761D01*
X97302142Y-108172380D01*
X97349761Y-108220000D01*
X97397380Y-108315238D01*
X97397380Y-108410476D01*
X97349761Y-108505714D01*
X97302142Y-108553333D01*
X97206904Y-108600952D01*
X97016428Y-108648571D01*
X96778333Y-108648571D01*
X96587857Y-108600952D01*
X96492619Y-108553333D01*
X96445000Y-108505714D01*
X96397380Y-108410476D01*
X56181666Y-67397380D02*
X56181666Y-68111666D01*
X56134047Y-68254523D01*
X56038809Y-68349761D01*
X55895952Y-68397380D01*
X55800714Y-68397380D01*
X56705476Y-68397380D02*
X56895952Y-68397380D01*
X56991190Y-68349761D01*
X57038809Y-68302142D01*
X57134047Y-68159285D01*
X57181666Y-67968809D01*
X57181666Y-67587857D01*
X57134047Y-67492619D01*
X57086428Y-67445000D01*
X56991190Y-67397380D01*
X56800714Y-67397380D01*
X56705476Y-67445000D01*
X56657857Y-67492619D01*
X56610238Y-67587857D01*
X56610238Y-67825952D01*
X56657857Y-67921190D01*
X56705476Y-67968809D01*
X56800714Y-68016428D01*
X56991190Y-68016428D01*
X57086428Y-67968809D01*
X57134047Y-67921190D01*
X57181666Y-67825952D01*
X106981666Y-55967380D02*
X106981666Y-56681666D01*
X106934047Y-56824523D01*
X106838809Y-56919761D01*
X106695952Y-56967380D01*
X106600714Y-56967380D01*
X107362619Y-55967380D02*
X108029285Y-55967380D01*
X107600714Y-56967380D01*
X83576666Y-141717380D02*
X83576666Y-142431666D01*
X83529047Y-142574523D01*
X83433809Y-142669761D01*
X83290952Y-142717380D01*
X83195714Y-142717380D01*
X84481428Y-142050714D02*
X84481428Y-142717380D01*
X84243333Y-141669761D02*
X84005238Y-142384047D01*
X84624285Y-142384047D01*
X76312380Y-125428333D02*
X77026666Y-125428333D01*
X77169523Y-125475952D01*
X77264761Y-125571190D01*
X77312380Y-125714047D01*
X77312380Y-125809285D01*
X76312380Y-125047380D02*
X76312380Y-124428333D01*
X76693333Y-124761666D01*
X76693333Y-124618809D01*
X76740952Y-124523571D01*
X76788571Y-124475952D01*
X76883809Y-124428333D01*
X77121904Y-124428333D01*
X77217142Y-124475952D01*
X77264761Y-124523571D01*
X77312380Y-124618809D01*
X77312380Y-124904523D01*
X77264761Y-124999761D01*
X77217142Y-125047380D01*
X76312380Y-135588333D02*
X77026666Y-135588333D01*
X77169523Y-135635952D01*
X77264761Y-135731190D01*
X77312380Y-135874047D01*
X77312380Y-135969285D01*
X77312380Y-134588333D02*
X77312380Y-135159761D01*
X77312380Y-134874047D02*
X76312380Y-134874047D01*
X76455238Y-134969285D01*
X76550476Y-135064523D01*
X76598095Y-135159761D01*
X79572142Y-91111666D02*
X79619761Y-91159285D01*
X79667380Y-91302142D01*
X79667380Y-91397380D01*
X79619761Y-91540238D01*
X79524523Y-91635476D01*
X79429285Y-91683095D01*
X79238809Y-91730714D01*
X79095952Y-91730714D01*
X78905476Y-91683095D01*
X78810238Y-91635476D01*
X78715000Y-91540238D01*
X78667380Y-91397380D01*
X78667380Y-91302142D01*
X78715000Y-91159285D01*
X78762619Y-91111666D01*
X79000714Y-90254523D02*
X79667380Y-90254523D01*
X78619761Y-90492619D02*
X79334047Y-90730714D01*
X79334047Y-90111666D01*
X84288333Y-104751142D02*
X84240714Y-104798761D01*
X84097857Y-104846380D01*
X84002619Y-104846380D01*
X83859761Y-104798761D01*
X83764523Y-104703523D01*
X83716904Y-104608285D01*
X83669285Y-104417809D01*
X83669285Y-104274952D01*
X83716904Y-104084476D01*
X83764523Y-103989238D01*
X83859761Y-103894000D01*
X84002619Y-103846380D01*
X84097857Y-103846380D01*
X84240714Y-103894000D01*
X84288333Y-103941619D01*
X84621666Y-103846380D02*
X85240714Y-103846380D01*
X84907380Y-104227333D01*
X85050238Y-104227333D01*
X85145476Y-104274952D01*
X85193095Y-104322571D01*
X85240714Y-104417809D01*
X85240714Y-104655904D01*
X85193095Y-104751142D01*
X85145476Y-104798761D01*
X85050238Y-104846380D01*
X84764523Y-104846380D01*
X84669285Y-104798761D01*
X84621666Y-104751142D01*
X91413333Y-104751142D02*
X91365714Y-104798761D01*
X91222857Y-104846380D01*
X91127619Y-104846380D01*
X90984761Y-104798761D01*
X90889523Y-104703523D01*
X90841904Y-104608285D01*
X90794285Y-104417809D01*
X90794285Y-104274952D01*
X90841904Y-104084476D01*
X90889523Y-103989238D01*
X90984761Y-103894000D01*
X91127619Y-103846380D01*
X91222857Y-103846380D01*
X91365714Y-103894000D01*
X91413333Y-103941619D01*
X91794285Y-103941619D02*
X91841904Y-103894000D01*
X91937142Y-103846380D01*
X92175238Y-103846380D01*
X92270476Y-103894000D01*
X92318095Y-103941619D01*
X92365714Y-104036857D01*
X92365714Y-104132095D01*
X92318095Y-104274952D01*
X91746666Y-104846380D01*
X92365714Y-104846380D01*
X73255142Y-73318666D02*
X73302761Y-73366285D01*
X73350380Y-73509142D01*
X73350380Y-73604380D01*
X73302761Y-73747238D01*
X73207523Y-73842476D01*
X73112285Y-73890095D01*
X72921809Y-73937714D01*
X72778952Y-73937714D01*
X72588476Y-73890095D01*
X72493238Y-73842476D01*
X72398000Y-73747238D01*
X72350380Y-73604380D01*
X72350380Y-73509142D01*
X72398000Y-73366285D01*
X72445619Y-73318666D01*
X73350380Y-72366285D02*
X73350380Y-72937714D01*
X73350380Y-72652000D02*
X72350380Y-72652000D01*
X72493238Y-72747238D01*
X72588476Y-72842476D01*
X72636095Y-72937714D01*
X70254880Y-114633333D02*
X70969166Y-114633333D01*
X71112023Y-114680952D01*
X71207261Y-114776190D01*
X71254880Y-114919047D01*
X71254880Y-115014285D01*
X70254880Y-113680952D02*
X70254880Y-114157142D01*
X70731071Y-114204761D01*
X70683452Y-114157142D01*
X70635833Y-114061904D01*
X70635833Y-113823809D01*
X70683452Y-113728571D01*
X70731071Y-113680952D01*
X70826309Y-113633333D01*
X71064404Y-113633333D01*
X71159642Y-113680952D01*
X71207261Y-113728571D01*
X71254880Y-113823809D01*
X71254880Y-114061904D01*
X71207261Y-114157142D01*
X71159642Y-114204761D01*
X89026904Y-98037619D02*
X89026904Y-97228095D01*
X88979285Y-97132857D01*
X88931666Y-97085238D01*
X88836428Y-97037619D01*
X88645952Y-97037619D01*
X88550714Y-97085238D01*
X88503095Y-97132857D01*
X88455476Y-97228095D01*
X88455476Y-98037619D01*
X87455476Y-97037619D02*
X88026904Y-97037619D01*
X87741190Y-97037619D02*
X87741190Y-98037619D01*
X87836428Y-97894761D01*
X87931666Y-97799523D01*
X88026904Y-97751904D01*
D12*
X103505000Y-102235000D02*
X104775000Y-102235000D01*
X103505000Y-103505000D02*
X103505000Y-102235000D01*
X105817929Y-106425000D02*
X106215000Y-106425000D01*
X105817929Y-105665000D02*
X106215000Y-105665000D01*
X114875000Y-106425000D02*
X108875000Y-106425000D01*
X114875000Y-105665000D02*
X114875000Y-106425000D01*
X108875000Y-105665000D02*
X114875000Y-105665000D01*
X106215000Y-104775000D02*
X108875000Y-104775000D01*
X105885000Y-103885000D02*
X106215000Y-103885000D01*
X105885000Y-103125000D02*
X106215000Y-103125000D01*
X108875000Y-103785000D02*
X114875000Y-103785000D01*
X108875000Y-103665000D02*
X114875000Y-103665000D01*
X108875000Y-103545000D02*
X114875000Y-103545000D01*
X108875000Y-103425000D02*
X114875000Y-103425000D01*
X108875000Y-103305000D02*
X114875000Y-103305000D01*
X108875000Y-103185000D02*
X114875000Y-103185000D01*
X114875000Y-103885000D02*
X108875000Y-103885000D01*
X114875000Y-103125000D02*
X114875000Y-103885000D01*
X108875000Y-103125000D02*
X114875000Y-103125000D01*
X108875000Y-102175000D02*
X106215000Y-102175000D01*
X108875000Y-107375000D02*
X108875000Y-102175000D01*
X106215000Y-107375000D02*
X108875000Y-107375000D01*
X106215000Y-102175000D02*
X106215000Y-107375000D01*
X103505000Y-111760000D02*
X104775000Y-111760000D01*
X103505000Y-113030000D02*
X103505000Y-111760000D01*
X105817929Y-115950000D02*
X106215000Y-115950000D01*
X105817929Y-115190000D02*
X106215000Y-115190000D01*
X114875000Y-115950000D02*
X108875000Y-115950000D01*
X114875000Y-115190000D02*
X114875000Y-115950000D01*
X108875000Y-115190000D02*
X114875000Y-115190000D01*
X106215000Y-114300000D02*
X108875000Y-114300000D01*
X105885000Y-113410000D02*
X106215000Y-113410000D01*
X105885000Y-112650000D02*
X106215000Y-112650000D01*
X108875000Y-113310000D02*
X114875000Y-113310000D01*
X108875000Y-113190000D02*
X114875000Y-113190000D01*
X108875000Y-113070000D02*
X114875000Y-113070000D01*
X108875000Y-112950000D02*
X114875000Y-112950000D01*
X108875000Y-112830000D02*
X114875000Y-112830000D01*
X108875000Y-112710000D02*
X114875000Y-112710000D01*
X114875000Y-113410000D02*
X108875000Y-113410000D01*
X114875000Y-112650000D02*
X114875000Y-113410000D01*
X108875000Y-112650000D02*
X114875000Y-112650000D01*
X108875000Y-111700000D02*
X106215000Y-111700000D01*
X108875000Y-116900000D02*
X108875000Y-111700000D01*
X106215000Y-116900000D02*
X108875000Y-116900000D01*
X106215000Y-111700000D02*
X106215000Y-116900000D01*
X103505000Y-75565000D02*
X104775000Y-75565000D01*
X103505000Y-76835000D02*
X103505000Y-75565000D01*
X105817929Y-94995000D02*
X106215000Y-94995000D01*
X105817929Y-94235000D02*
X106215000Y-94235000D01*
X114875000Y-94995000D02*
X108875000Y-94995000D01*
X114875000Y-94235000D02*
X114875000Y-94995000D01*
X108875000Y-94235000D02*
X114875000Y-94235000D01*
X106215000Y-93345000D02*
X108875000Y-93345000D01*
X105817929Y-92455000D02*
X106215000Y-92455000D01*
X105817929Y-91695000D02*
X106215000Y-91695000D01*
X114875000Y-92455000D02*
X108875000Y-92455000D01*
X114875000Y-91695000D02*
X114875000Y-92455000D01*
X108875000Y-91695000D02*
X114875000Y-91695000D01*
X106215000Y-90805000D02*
X108875000Y-90805000D01*
X105817929Y-89915000D02*
X106215000Y-89915000D01*
X105817929Y-89155000D02*
X106215000Y-89155000D01*
X114875000Y-89915000D02*
X108875000Y-89915000D01*
X114875000Y-89155000D02*
X114875000Y-89915000D01*
X108875000Y-89155000D02*
X114875000Y-89155000D01*
X106215000Y-88265000D02*
X108875000Y-88265000D01*
X105817929Y-87375000D02*
X106215000Y-87375000D01*
X105817929Y-86615000D02*
X106215000Y-86615000D01*
X114875000Y-87375000D02*
X108875000Y-87375000D01*
X114875000Y-86615000D02*
X114875000Y-87375000D01*
X108875000Y-86615000D02*
X114875000Y-86615000D01*
X106215000Y-85725000D02*
X108875000Y-85725000D01*
X105817929Y-84835000D02*
X106215000Y-84835000D01*
X105817929Y-84075000D02*
X106215000Y-84075000D01*
X114875000Y-84835000D02*
X108875000Y-84835000D01*
X114875000Y-84075000D02*
X114875000Y-84835000D01*
X108875000Y-84075000D02*
X114875000Y-84075000D01*
X106215000Y-83185000D02*
X108875000Y-83185000D01*
X105817929Y-82295000D02*
X106215000Y-82295000D01*
X105817929Y-81535000D02*
X106215000Y-81535000D01*
X114875000Y-82295000D02*
X108875000Y-82295000D01*
X114875000Y-81535000D02*
X114875000Y-82295000D01*
X108875000Y-81535000D02*
X114875000Y-81535000D01*
X106215000Y-80645000D02*
X108875000Y-80645000D01*
X105817929Y-79755000D02*
X106215000Y-79755000D01*
X105817929Y-78995000D02*
X106215000Y-78995000D01*
X114875000Y-79755000D02*
X108875000Y-79755000D01*
X114875000Y-78995000D02*
X114875000Y-79755000D01*
X108875000Y-78995000D02*
X114875000Y-78995000D01*
X106215000Y-78105000D02*
X108875000Y-78105000D01*
X105885000Y-77215000D02*
X106215000Y-77215000D01*
X105885000Y-76455000D02*
X106215000Y-76455000D01*
X108875000Y-77115000D02*
X114875000Y-77115000D01*
X108875000Y-76995000D02*
X114875000Y-76995000D01*
X108875000Y-76875000D02*
X114875000Y-76875000D01*
X108875000Y-76755000D02*
X114875000Y-76755000D01*
X108875000Y-76635000D02*
X114875000Y-76635000D01*
X108875000Y-76515000D02*
X114875000Y-76515000D01*
X114875000Y-77215000D02*
X108875000Y-77215000D01*
X114875000Y-76455000D02*
X114875000Y-77215000D01*
X108875000Y-76455000D02*
X114875000Y-76455000D01*
X108875000Y-75505000D02*
X106215000Y-75505000D01*
X108875000Y-95945000D02*
X108875000Y-75505000D01*
X106215000Y-95945000D02*
X108875000Y-95945000D01*
X106215000Y-75505000D02*
X106215000Y-95945000D01*
X96355000Y-86970000D02*
X95955000Y-86970000D01*
X96355000Y-87170000D02*
X95955000Y-87170000D01*
X96355000Y-90770000D02*
X95955000Y-90770000D01*
X98355000Y-86970000D02*
X96355000Y-86970000D01*
X95955000Y-88170000D02*
X95555000Y-88170000D01*
X95955000Y-88170000D02*
X95955000Y-87170000D01*
X96355000Y-87170000D02*
X98355000Y-87170000D01*
X98355000Y-87170000D02*
X98355000Y-88170000D01*
X98355000Y-89970000D02*
X98355000Y-90770000D01*
X98355000Y-90770000D02*
X96355000Y-90770000D01*
X95955000Y-90770000D02*
X95955000Y-89970000D01*
X79155000Y-71195000D02*
X77465000Y-71195000D01*
X79155000Y-70450000D02*
X79155000Y-71195000D01*
X81915000Y-70450000D02*
X79155000Y-70450000D01*
X84675000Y-70450000D02*
X84675000Y-71195000D01*
X81915000Y-70450000D02*
X84675000Y-70450000D01*
X79155000Y-76870000D02*
X79155000Y-76125000D01*
X81915000Y-76870000D02*
X79155000Y-76870000D01*
X84675000Y-76870000D02*
X84675000Y-76125000D01*
X81915000Y-76870000D02*
X84675000Y-76870000D01*
X87582742Y-103392500D02*
X88057258Y-103392500D01*
X87582742Y-102347500D02*
X88057258Y-102347500D01*
X98915000Y-114570000D02*
X101715000Y-114570000D01*
X101715000Y-114570000D02*
X101715000Y-116570000D01*
X101715000Y-116570000D02*
X98915000Y-116570000D01*
X98915000Y-116570000D02*
X98915000Y-114570000D01*
X95945000Y-107890000D02*
X95945000Y-109220000D01*
X94615000Y-107890000D02*
X95945000Y-107890000D01*
X93345000Y-107890000D02*
X93345000Y-110550000D01*
X93345000Y-110550000D02*
X80585000Y-110550000D01*
X93345000Y-107890000D02*
X80585000Y-107890000D01*
X80585000Y-107890000D02*
X80585000Y-110550000D01*
X60190000Y-68180000D02*
X59690000Y-67180000D01*
X59190000Y-68180000D02*
X60190000Y-68180000D01*
X59690000Y-67180000D02*
X59190000Y-68180000D01*
X64280000Y-65480000D02*
X64280000Y-66790000D01*
X64280000Y-65480000D02*
X64280000Y-65480000D01*
X68680000Y-65480000D02*
X64280000Y-65480000D01*
X68680000Y-58980000D02*
X68680000Y-65480000D01*
X55780000Y-58980000D02*
X68680000Y-58980000D01*
X55780000Y-65480000D02*
X55780000Y-58980000D01*
X60180000Y-65480000D02*
X55780000Y-65480000D01*
X60180000Y-66790000D02*
X60180000Y-65480000D01*
X69980000Y-66790000D02*
X54480000Y-66790000D01*
X69980000Y-57670000D02*
X69980000Y-66790000D01*
X54480000Y-57670000D02*
X69980000Y-57670000D01*
X54480000Y-66790000D02*
X54480000Y-57670000D01*
X103505000Y-57785000D02*
X104775000Y-57785000D01*
X103505000Y-59055000D02*
X103505000Y-57785000D01*
X105817929Y-67055000D02*
X106215000Y-67055000D01*
X105817929Y-66295000D02*
X106215000Y-66295000D01*
X114875000Y-67055000D02*
X108875000Y-67055000D01*
X114875000Y-66295000D02*
X114875000Y-67055000D01*
X108875000Y-66295000D02*
X114875000Y-66295000D01*
X106215000Y-65405000D02*
X108875000Y-65405000D01*
X105817929Y-64515000D02*
X106215000Y-64515000D01*
X105817929Y-63755000D02*
X106215000Y-63755000D01*
X114875000Y-64515000D02*
X108875000Y-64515000D01*
X114875000Y-63755000D02*
X114875000Y-64515000D01*
X108875000Y-63755000D02*
X114875000Y-63755000D01*
X106215000Y-62865000D02*
X108875000Y-62865000D01*
X105817929Y-61975000D02*
X106215000Y-61975000D01*
X105817929Y-61215000D02*
X106215000Y-61215000D01*
X114875000Y-61975000D02*
X108875000Y-61975000D01*
X114875000Y-61215000D02*
X114875000Y-61975000D01*
X108875000Y-61215000D02*
X114875000Y-61215000D01*
X106215000Y-60325000D02*
X108875000Y-60325000D01*
X105885000Y-59435000D02*
X106215000Y-59435000D01*
X105885000Y-58675000D02*
X106215000Y-58675000D01*
X108875000Y-59335000D02*
X114875000Y-59335000D01*
X108875000Y-59215000D02*
X114875000Y-59215000D01*
X108875000Y-59095000D02*
X114875000Y-59095000D01*
X108875000Y-58975000D02*
X114875000Y-58975000D01*
X108875000Y-58855000D02*
X114875000Y-58855000D01*
X108875000Y-58735000D02*
X114875000Y-58735000D01*
X114875000Y-59435000D02*
X108875000Y-59435000D01*
X114875000Y-58675000D02*
X114875000Y-59435000D01*
X108875000Y-58675000D02*
X114875000Y-58675000D01*
X108875000Y-57725000D02*
X106215000Y-57725000D01*
X108875000Y-68005000D02*
X108875000Y-57725000D01*
X106215000Y-68005000D02*
X108875000Y-68005000D01*
X106215000Y-57725000D02*
X106215000Y-68005000D01*
X81155000Y-91085580D02*
X81155000Y-90804420D01*
X80135000Y-91085580D02*
X80135000Y-90804420D01*
X84314420Y-103380000D02*
X84595580Y-103380000D01*
X84314420Y-102360000D02*
X84595580Y-102360000D01*
X91720580Y-102360000D02*
X91439420Y-102360000D01*
X91720580Y-103380000D02*
X91439420Y-103380000D01*
X73785000Y-73024420D02*
X73785000Y-73305580D01*
X74805000Y-73024420D02*
X74805000Y-73305580D01*
X69532500Y-157162500D02*
X51532500Y-157162500D01*
X69532500Y-147637500D02*
X51532500Y-147637500D01*
X69532500Y-138112500D02*
X51532500Y-138112500D01*
X69532500Y-128587500D02*
X51532500Y-128587500D01*
X69532500Y-119062500D02*
X51532500Y-119062500D01*
X69532500Y-109537500D02*
X51532500Y-109537500D01*
X69532500Y-100012500D02*
X51532500Y-100012500D01*
X69532500Y-90487500D02*
X51532500Y-90487500D01*
X69532500Y-80962500D02*
X51532500Y-80962500D01*
X69532500Y-71437500D02*
X51532500Y-71437500D01*
X68532500Y-71437500D02*
X68532500Y-157162500D01*
X51532500Y-71437500D02*
X51532500Y-157162500D01*
X69532500Y-71437500D02*
X69532500Y-157162500D01*
D13*
X91890000Y-94840000D02*
X93315000Y-94840000D01*
X84640000Y-95065000D02*
X84965000Y-95065000D01*
X84640000Y-87815000D02*
X84965000Y-87815000D01*
X91890000Y-87815000D02*
X91565000Y-87815000D01*
X91890000Y-95065000D02*
X91565000Y-95065000D01*
X91890000Y-87815000D02*
X91890000Y-88140000D01*
X84640000Y-87815000D02*
X84640000Y-88140000D01*
X84640000Y-95065000D02*
X84640000Y-94740000D01*
X91890000Y-95065000D02*
X91890000Y-94840000D01*
%LPC*%
D17*
X104775000Y-106045000D03*
D18*
X104775000Y-103505000D03*
D17*
X104775000Y-115570000D03*
D18*
X104775000Y-113030000D03*
D17*
X104775000Y-94615000D03*
X104775000Y-92075000D03*
X104775000Y-89535000D03*
X104775000Y-86995000D03*
X104775000Y-84455000D03*
X104775000Y-81915000D03*
X104775000Y-79375000D03*
D18*
X104775000Y-76835000D03*
D19*
X97155000Y-90170000D03*
X97155000Y-88970000D03*
X97155000Y-87770000D03*
D20*
X85415000Y-71755000D03*
X85415000Y-73025000D03*
X85415000Y-74295000D03*
X85415000Y-75565000D03*
X78415000Y-75565000D03*
X78415000Y-74295000D03*
X78415000Y-73025000D03*
X78415000Y-71755000D03*
D21*
X88645000Y-102870000D03*
X86995000Y-102870000D03*
D22*
X100965000Y-115570000D03*
X99665000Y-115570000D03*
D17*
X81915000Y-109220000D03*
X84455000Y-109220000D03*
X86995000Y-109220000D03*
X89535000Y-109220000D03*
X92075000Y-109220000D03*
D18*
X94615000Y-109220000D03*
D23*
X64770000Y-60960000D03*
X62230000Y-60960000D03*
X59690000Y-60960000D03*
X64770000Y-63500000D03*
X62230000Y-63500000D03*
D24*
X59690000Y-63500000D03*
D17*
X104775000Y-66675000D03*
X104775000Y-64135000D03*
X104775000Y-61595000D03*
D18*
X104775000Y-59055000D03*
D25*
X87810000Y-145415000D03*
D26*
X80010000Y-145415000D03*
D27*
X80010000Y-125095000D03*
X80010000Y-135255000D03*
D28*
X80645000Y-90170000D03*
X80645000Y-91720000D03*
D29*
X85230000Y-102870000D03*
X83680000Y-102870000D03*
D30*
X90805000Y-102870000D03*
X92355000Y-102870000D03*
D31*
X74295000Y-73940000D03*
X74295000Y-72390000D03*
D32*
X79610000Y-62560000D03*
D33*
X81466155Y-155703845D03*
X79610000Y-154935000D03*
X77753845Y-155703845D03*
X76985000Y-157560000D03*
X77753845Y-159416155D03*
X79610000Y-160185000D03*
X81466155Y-159416155D03*
X82235000Y-157560000D03*
D34*
X79610000Y-157560000D03*
D35*
X64770000Y-152400000D03*
X64770000Y-142875000D03*
X64770000Y-133350000D03*
X64770000Y-123825000D03*
X64770000Y-114300000D03*
X64770000Y-104775000D03*
X64770000Y-95250000D03*
X64770000Y-85725000D03*
X64770000Y-76200000D03*
D36*
X91065000Y-95690000D03*
X90265000Y-95690000D03*
X89465000Y-95690000D03*
X88665000Y-95690000D03*
X87865000Y-95690000D03*
X87065000Y-95690000D03*
X86265000Y-95690000D03*
X85465000Y-95690000D03*
D37*
X84015000Y-94240000D03*
X84015000Y-93440000D03*
X84015000Y-92640000D03*
X84015000Y-91840000D03*
X84015000Y-91040000D03*
X84015000Y-90240000D03*
X84015000Y-89440000D03*
X84015000Y-88640000D03*
D36*
X85465000Y-87190000D03*
X86265000Y-87190000D03*
X87065000Y-87190000D03*
X87865000Y-87190000D03*
X88665000Y-87190000D03*
X89465000Y-87190000D03*
X90265000Y-87190000D03*
X91065000Y-87190000D03*
D37*
X92515000Y-88640000D03*
X92515000Y-89440000D03*
X92515000Y-90240000D03*
X92515000Y-91040000D03*
X92515000Y-91840000D03*
X92515000Y-92640000D03*
X92515000Y-93440000D03*
X92515000Y-94240000D03*
M02*
