M48
;GenerationSoftware,Autodesk,EAGLE,9.2.2*%
;CreationDate,2019-02-22T02:55:05Z*%
FMAT,2
ICI,OFF
METRIC,TZ,000.000
T5C0.813
T4C0.900
T3C1.000
T2C1.016
T1C4.000
%
G90
M71
T1
X71000Y-6000
X72000Y56000
X3000Y-6000
T2
X17800Y4980
X59790Y7640
X59790Y10140
X59790Y22840
X59790Y20340
X59790Y35540
X59790Y33040
X43180Y2540
X40640Y2540
X38100Y2540
X35560Y2540
X20300Y4980
T3
X64770Y45720
X64770Y48260
T4
X40640Y7620
X35560Y17780
X33020Y19050
X25400Y20320
T5
X38110Y29310
X35570Y29310
X33030Y29310
X30490Y29310
X27950Y29310
X25410Y29310
X22870Y29310
X20330Y29310
X17790Y29310
X15250Y29310
X12710Y29310
X10170Y29310
X10170Y14070
X12710Y14070
X15250Y14070
X17790Y14070
X20330Y14070
X22870Y14070
X27950Y14070
X30490Y14070
X33030Y14070
X35570Y14070
X38110Y14070
X40650Y14070
X43190Y14070
X45730Y14070
X57150Y35560
X49530Y35560
X15240Y36830
X17780Y36830
X20320Y36830
X22860Y36830
X25400Y36830
X27940Y36830
X30480Y36830
X49530Y10160
X45730Y29310
X43190Y29310
X5080Y57150
X5080Y54610
X5080Y52070
X5080Y49530
X5080Y46990
X5080Y44450
X40650Y29310
X57150Y22860
X49530Y22860
X57150Y10160
X58420Y45720
X53340Y45720
X53340Y48260
X58420Y48260
X25410Y14070
X33020Y36830
M30