G04 #@! TF.GenerationSoftware,KiCad,Pcbnew,6.0.1-79c1e3a40b~116~ubuntu21.04.1*
G04 #@! TF.CreationDate,2022-02-15T15:37:08-05:00*
G04 #@! TF.ProjectId,oven,6f76656e-2e6b-4696-9361-645f70636258,1.0*
G04 #@! TF.SameCoordinates,Original*
G04 #@! TF.FileFunction,Paste,Top*
G04 #@! TF.FilePolarity,Positive*
%FSLAX46Y46*%
G04 Gerber Fmt 4.6, Leading zero omitted, Abs format (unit mm)*
G04 Created by KiCad (PCBNEW 6.0.1-79c1e3a40b~116~ubuntu21.04.1) date 2022-02-15 15:37:08*
%MOMM*%
%LPD*%
G01*
G04 APERTURE LIST*
G04 Aperture macros list*
%AMRoundRect*
0 Rectangle with rounded corners*
0 $1 Rounding radius*
0 $2 $3 $4 $5 $6 $7 $8 $9 X,Y pos of 4 corners*
0 Add a 4 corners polygon primitive as box body*
4,1,4,$2,$3,$4,$5,$6,$7,$8,$9,$2,$3,0*
0 Add four circle primitives for the rounded corners*
1,1,$1+$1,$2,$3*
1,1,$1+$1,$4,$5*
1,1,$1+$1,$6,$7*
1,1,$1+$1,$8,$9*
0 Add four rect primitives between the rounded corners*
20,1,$1+$1,$2,$3,$4,$5,0*
20,1,$1+$1,$4,$5,$6,$7,0*
20,1,$1+$1,$6,$7,$8,$9,0*
20,1,$1+$1,$8,$9,$2,$3,0*%
G04 Aperture macros list end*
%ADD10R,1.900000X0.400000*%
%ADD11RoundRect,0.150000X-0.800000X-0.150000X0.800000X-0.150000X0.800000X0.150000X-0.800000X0.150000X0*%
%ADD12RoundRect,0.200000X-0.200000X-0.275000X0.200000X-0.275000X0.200000X0.275000X-0.200000X0.275000X0*%
%ADD13RoundRect,0.225000X0.250000X-0.225000X0.250000X0.225000X-0.250000X0.225000X-0.250000X-0.225000X0*%
%ADD14RoundRect,0.225000X-0.225000X-0.250000X0.225000X-0.250000X0.225000X0.250000X-0.225000X0.250000X0*%
%ADD15RoundRect,0.225000X0.225000X0.250000X-0.225000X0.250000X-0.225000X-0.250000X0.225000X-0.250000X0*%
%ADD16RoundRect,0.225000X-0.250000X0.225000X-0.250000X-0.225000X0.250000X-0.225000X0.250000X0.225000X0*%
%ADD17R,0.550000X1.600000*%
%ADD18R,1.600000X0.550000*%
G04 APERTURE END LIST*
D10*
X97155000Y-90170000D03*
X97155000Y-88970000D03*
X97155000Y-87770000D03*
D11*
X85415000Y-71755000D03*
X85415000Y-73025000D03*
X85415000Y-74295000D03*
X85415000Y-75565000D03*
X78415000Y-75565000D03*
X78415000Y-74295000D03*
X78415000Y-73025000D03*
X78415000Y-71755000D03*
D12*
X88645000Y-102870000D03*
X86995000Y-102870000D03*
D13*
X80645000Y-90170000D03*
X80645000Y-91720000D03*
D14*
X85230000Y-102870000D03*
X83680000Y-102870000D03*
D15*
X90805000Y-102870000D03*
X92355000Y-102870000D03*
D16*
X74295000Y-73940000D03*
X74295000Y-72390000D03*
D17*
X91065000Y-95690000D03*
X90265000Y-95690000D03*
X89465000Y-95690000D03*
X88665000Y-95690000D03*
X87865000Y-95690000D03*
X87065000Y-95690000D03*
X86265000Y-95690000D03*
X85465000Y-95690000D03*
D18*
X84015000Y-94240000D03*
X84015000Y-93440000D03*
X84015000Y-92640000D03*
X84015000Y-91840000D03*
X84015000Y-91040000D03*
X84015000Y-90240000D03*
X84015000Y-89440000D03*
X84015000Y-88640000D03*
D17*
X85465000Y-87190000D03*
X86265000Y-87190000D03*
X87065000Y-87190000D03*
X87865000Y-87190000D03*
X88665000Y-87190000D03*
X89465000Y-87190000D03*
X90265000Y-87190000D03*
X91065000Y-87190000D03*
D18*
X92515000Y-88640000D03*
X92515000Y-89440000D03*
X92515000Y-90240000D03*
X92515000Y-91040000D03*
X92515000Y-91840000D03*
X92515000Y-92640000D03*
X92515000Y-93440000D03*
X92515000Y-94240000D03*
M02*
