G04 #@! TF.GenerationSoftware,KiCad,Pcbnew,6.0.1-79c1e3a40b~116~ubuntu21.04.1*
G04 #@! TF.CreationDate,2022-02-15T15:37:07-05:00*
G04 #@! TF.ProjectId,oven,6f76656e-2e6b-4696-9361-645f70636258,1.0*
G04 #@! TF.SameCoordinates,Original*
G04 #@! TF.FileFunction,Copper,L1,Top*
G04 #@! TF.FilePolarity,Positive*
%FSLAX46Y46*%
G04 Gerber Fmt 4.6, Leading zero omitted, Abs format (unit mm)*
G04 Created by KiCad (PCBNEW 6.0.1-79c1e3a40b~116~ubuntu21.04.1) date 2022-02-15 15:37:07*
%MOMM*%
%LPD*%
G01*
G04 APERTURE LIST*
G04 Aperture macros list*
%AMRoundRect*
0 Rectangle with rounded corners*
0 $1 Rounding radius*
0 $2 $3 $4 $5 $6 $7 $8 $9 X,Y pos of 4 corners*
0 Add a 4 corners polygon primitive as box body*
4,1,4,$2,$3,$4,$5,$6,$7,$8,$9,$2,$3,0*
0 Add four circle primitives for the rounded corners*
1,1,$1+$1,$2,$3*
1,1,$1+$1,$4,$5*
1,1,$1+$1,$6,$7*
1,1,$1+$1,$8,$9*
0 Add four rect primitives between the rounded corners*
20,1,$1+$1,$2,$3,$4,$5,0*
20,1,$1+$1,$4,$5,$6,$7,0*
20,1,$1+$1,$6,$7,$8,$9,0*
20,1,$1+$1,$8,$9,$2,$3,0*%
G04 Aperture macros list end*
G04 #@! TA.AperFunction,ComponentPad*
%ADD10O,1.700000X1.700000*%
G04 #@! TD*
G04 #@! TA.AperFunction,ComponentPad*
%ADD11R,1.700000X1.700000*%
G04 #@! TD*
G04 #@! TA.AperFunction,SMDPad,CuDef*
%ADD12R,1.900000X0.400000*%
G04 #@! TD*
G04 #@! TA.AperFunction,SMDPad,CuDef*
%ADD13RoundRect,0.150000X-0.800000X-0.150000X0.800000X-0.150000X0.800000X0.150000X-0.800000X0.150000X0*%
G04 #@! TD*
G04 #@! TA.AperFunction,SMDPad,CuDef*
%ADD14RoundRect,0.200000X-0.200000X-0.275000X0.200000X-0.275000X0.200000X0.275000X-0.200000X0.275000X0*%
G04 #@! TD*
G04 #@! TA.AperFunction,SMDPad,CuDef*
%ADD15R,1.000000X1.500000*%
G04 #@! TD*
G04 #@! TA.AperFunction,ComponentPad*
%ADD16C,1.700000*%
G04 #@! TD*
G04 #@! TA.AperFunction,ComponentPad*
%ADD17RoundRect,0.250000X0.600000X-0.600000X0.600000X0.600000X-0.600000X0.600000X-0.600000X-0.600000X0*%
G04 #@! TD*
G04 #@! TA.AperFunction,ComponentPad*
%ADD18C,3.900000*%
G04 #@! TD*
G04 #@! TA.AperFunction,ComponentPad*
%ADD19RoundRect,0.250002X-1.699998X-1.699998X1.699998X-1.699998X1.699998X1.699998X-1.699998X1.699998X0*%
G04 #@! TD*
G04 #@! TA.AperFunction,ComponentPad*
%ADD20RoundRect,0.250002X1.699998X-1.699998X1.699998X1.699998X-1.699998X1.699998X-1.699998X-1.699998X0*%
G04 #@! TD*
G04 #@! TA.AperFunction,SMDPad,CuDef*
%ADD21RoundRect,0.225000X0.250000X-0.225000X0.250000X0.225000X-0.250000X0.225000X-0.250000X-0.225000X0*%
G04 #@! TD*
G04 #@! TA.AperFunction,SMDPad,CuDef*
%ADD22RoundRect,0.225000X-0.225000X-0.250000X0.225000X-0.250000X0.225000X0.250000X-0.225000X0.250000X0*%
G04 #@! TD*
G04 #@! TA.AperFunction,SMDPad,CuDef*
%ADD23RoundRect,0.225000X0.225000X0.250000X-0.225000X0.250000X-0.225000X-0.250000X0.225000X-0.250000X0*%
G04 #@! TD*
G04 #@! TA.AperFunction,SMDPad,CuDef*
%ADD24RoundRect,0.225000X-0.250000X0.225000X-0.250000X-0.225000X0.250000X-0.225000X0.250000X0.225000X0*%
G04 #@! TD*
G04 #@! TA.AperFunction,ComponentPad*
%ADD25C,0.800000*%
G04 #@! TD*
G04 #@! TA.AperFunction,ComponentPad*
%ADD26C,7.000000*%
G04 #@! TD*
G04 #@! TA.AperFunction,ComponentPad*
%ADD27C,5.000000*%
G04 #@! TD*
G04 #@! TA.AperFunction,SMDPad,CuDef*
%ADD28R,0.550000X1.600000*%
G04 #@! TD*
G04 #@! TA.AperFunction,SMDPad,CuDef*
%ADD29R,1.600000X0.550000*%
G04 #@! TD*
G04 #@! TA.AperFunction,ViaPad*
%ADD30C,0.800000*%
G04 #@! TD*
G04 #@! TA.AperFunction,Conductor*
%ADD31C,0.250000*%
G04 #@! TD*
G04 #@! TA.AperFunction,Conductor*
%ADD32C,0.500000*%
G04 #@! TD*
G04 APERTURE END LIST*
G36*
X100565000Y-115870000D02*
G01*
X100065000Y-115870000D01*
X100065000Y-115270000D01*
X100565000Y-115270000D01*
X100565000Y-115870000D01*
G37*
D10*
X104775000Y-106045000D03*
D11*
X104775000Y-103505000D03*
D10*
X104775000Y-115570000D03*
D11*
X104775000Y-113030000D03*
D10*
X104775000Y-94615000D03*
X104775000Y-92075000D03*
X104775000Y-89535000D03*
X104775000Y-86995000D03*
X104775000Y-84455000D03*
X104775000Y-81915000D03*
X104775000Y-79375000D03*
D11*
X104775000Y-76835000D03*
D12*
X97155000Y-90170000D03*
X97155000Y-88970000D03*
X97155000Y-87770000D03*
D13*
X85415000Y-71755000D03*
X85415000Y-73025000D03*
X85415000Y-74295000D03*
X85415000Y-75565000D03*
X78415000Y-75565000D03*
X78415000Y-74295000D03*
X78415000Y-73025000D03*
X78415000Y-71755000D03*
D14*
X88645000Y-102870000D03*
X86995000Y-102870000D03*
D15*
X100965000Y-115570000D03*
X99665000Y-115570000D03*
D10*
X81915000Y-109220000D03*
X84455000Y-109220000D03*
X86995000Y-109220000D03*
X89535000Y-109220000D03*
X92075000Y-109220000D03*
D11*
X94615000Y-109220000D03*
D16*
X64770000Y-60960000D03*
X62230000Y-60960000D03*
X59690000Y-60960000D03*
X64770000Y-63500000D03*
X62230000Y-63500000D03*
D17*
X59690000Y-63500000D03*
D10*
X104775000Y-66675000D03*
X104775000Y-64135000D03*
X104775000Y-61595000D03*
D11*
X104775000Y-59055000D03*
D18*
X87810000Y-145415000D03*
D19*
X80010000Y-145415000D03*
D20*
X80010000Y-125095000D03*
X80010000Y-135255000D03*
D21*
X80645000Y-90170000D03*
X80645000Y-91720000D03*
D22*
X85230000Y-102870000D03*
X83680000Y-102870000D03*
D23*
X90805000Y-102870000D03*
X92355000Y-102870000D03*
D24*
X74295000Y-73940000D03*
X74295000Y-72390000D03*
D25*
X81466155Y-155703845D03*
X79610000Y-154935000D03*
X77753845Y-155703845D03*
X76985000Y-157560000D03*
X77753845Y-159416155D03*
X79610000Y-160185000D03*
X81466155Y-159416155D03*
X82235000Y-157560000D03*
D26*
X79610000Y-157560000D03*
D27*
X64770000Y-152400000D03*
X64770000Y-142875000D03*
X64770000Y-133350000D03*
X64770000Y-123825000D03*
X64770000Y-114300000D03*
X64770000Y-104775000D03*
X64770000Y-95250000D03*
X64770000Y-85725000D03*
X64770000Y-76200000D03*
D28*
X91065000Y-95690000D03*
X90265000Y-95690000D03*
X89465000Y-95690000D03*
X88665000Y-95690000D03*
X87865000Y-95690000D03*
X87065000Y-95690000D03*
X86265000Y-95690000D03*
X85465000Y-95690000D03*
D29*
X84015000Y-94240000D03*
X84015000Y-93440000D03*
X84015000Y-92640000D03*
X84015000Y-91840000D03*
X84015000Y-91040000D03*
X84015000Y-90240000D03*
X84015000Y-89440000D03*
X84015000Y-88640000D03*
D28*
X85465000Y-87190000D03*
X86265000Y-87190000D03*
X87065000Y-87190000D03*
X87865000Y-87190000D03*
X88665000Y-87190000D03*
X89465000Y-87190000D03*
X90265000Y-87190000D03*
X91065000Y-87190000D03*
D29*
X92515000Y-88640000D03*
X92515000Y-89440000D03*
X92515000Y-90240000D03*
X92515000Y-91040000D03*
X92515000Y-91840000D03*
X92515000Y-92640000D03*
X92515000Y-93440000D03*
X92515000Y-94240000D03*
D30*
X97790000Y-115570000D03*
X95885000Y-115570000D03*
X86995000Y-102870000D03*
X74295000Y-75565000D03*
X78740000Y-90170000D03*
X88645000Y-102870000D03*
X88900000Y-93980000D03*
X89535000Y-81280000D03*
X76200000Y-74295000D03*
X89535000Y-84455000D03*
X102982859Y-99807859D03*
X104140000Y-99060000D03*
X83185000Y-86995000D03*
X84455000Y-84455000D03*
X90805000Y-98425000D03*
X89625000Y-98425000D03*
X87540000Y-73025000D03*
X87630000Y-78740000D03*
D31*
X97155000Y-88970000D02*
X99130000Y-88970000D01*
X99130000Y-88970000D02*
X99695000Y-89535000D01*
X96590000Y-92640000D02*
X92515000Y-92640000D01*
X99695000Y-89535000D02*
X96590000Y-92640000D01*
X91654998Y-92640000D02*
X92515000Y-92640000D01*
X90854998Y-91840000D02*
X91654998Y-92640000D01*
X84015000Y-91840000D02*
X90854998Y-91840000D01*
D32*
X91264999Y-92475001D02*
X91429998Y-92640000D01*
X91429998Y-91040000D02*
X91264999Y-91204999D01*
X91264999Y-91204999D02*
X91264999Y-92475001D01*
X92515000Y-91040000D02*
X91429998Y-91040000D01*
X90629998Y-91840000D02*
X84015000Y-91840000D01*
X91429998Y-92640000D02*
X90629998Y-91840000D01*
X92515000Y-92640000D02*
X91429998Y-92640000D01*
X80765000Y-91840000D02*
X80645000Y-91720000D01*
X84015000Y-91840000D02*
X80765000Y-91840000D01*
X99665000Y-115570000D02*
X97790000Y-115570000D01*
X95885000Y-115570000D02*
X97790000Y-115570000D01*
D31*
X75920000Y-75565000D02*
X78415000Y-75565000D01*
X74295000Y-73940000D02*
X75920000Y-75565000D01*
X74295000Y-73940000D02*
X74295000Y-75565000D01*
D32*
X78740000Y-90170000D02*
X80645000Y-90170000D01*
X81375000Y-89440000D02*
X84015000Y-89440000D01*
X80645000Y-90170000D02*
X81375000Y-89440000D01*
X91429998Y-90240000D02*
X92515000Y-90240000D01*
X90629998Y-89440000D02*
X91429998Y-90240000D01*
X84015000Y-89440000D02*
X90629998Y-89440000D01*
X93765001Y-91675001D02*
X93600002Y-91840000D01*
X93765001Y-90404999D02*
X93765001Y-91675001D01*
X93600002Y-90240000D02*
X93765001Y-90404999D01*
X93600002Y-91840000D02*
X92515000Y-91840000D01*
X92515000Y-90240000D02*
X93600002Y-90240000D01*
D31*
X94875000Y-88640000D02*
X95745000Y-87770000D01*
X92515000Y-88640000D02*
X94875000Y-88640000D01*
X95745000Y-87770000D02*
X97155000Y-87770000D01*
X95225000Y-89440000D02*
X92515000Y-89440000D01*
X95955000Y-90170000D02*
X95225000Y-89440000D01*
X97155000Y-90170000D02*
X95955000Y-90170000D01*
X88645000Y-102870000D02*
X90805000Y-102870000D01*
X87844990Y-102069990D02*
X88645000Y-102870000D01*
X86030010Y-102069990D02*
X87844990Y-102069990D01*
X85230000Y-102870000D02*
X86030010Y-102069990D01*
X88665000Y-94215000D02*
X88900000Y-93980000D01*
X88665000Y-95690000D02*
X88665000Y-94215000D01*
X64770000Y-63500000D02*
X67945000Y-66675000D01*
X85727820Y-66675000D02*
X89535000Y-70482180D01*
X67945000Y-66675000D02*
X85727820Y-66675000D01*
X89535000Y-70482180D02*
X89535000Y-81280000D01*
X81915000Y-104635000D02*
X83680000Y-102870000D01*
X81915000Y-109220000D02*
X81915000Y-104635000D01*
D32*
X100965000Y-115570000D02*
X104775000Y-115570000D01*
D31*
X78415000Y-74295000D02*
X76200000Y-74295000D01*
X88665000Y-85325000D02*
X89535000Y-84455000D01*
X88665000Y-87190000D02*
X88665000Y-85325000D01*
X104775000Y-66675000D02*
X106680000Y-68580000D01*
X87865000Y-97738002D02*
X87865000Y-95690000D01*
X89276999Y-99150001D02*
X87865000Y-97738002D01*
X106680000Y-94449002D02*
X101979001Y-99150001D01*
X101979001Y-99150001D02*
X89276999Y-99150001D01*
X106680000Y-68580000D02*
X106680000Y-94449002D01*
X107130010Y-94635402D02*
X107130010Y-66490010D01*
X107130010Y-66490010D02*
X104775000Y-64135000D01*
X102165402Y-99600010D02*
X107130010Y-94635402D01*
X87065000Y-97574412D02*
X89090599Y-99600011D01*
X89090599Y-99600011D02*
X102165402Y-99600010D01*
X87065000Y-95690000D02*
X87065000Y-97574412D01*
X90493599Y-85274991D02*
X89465000Y-86303590D01*
X102235000Y-82548590D02*
X99508600Y-85274990D01*
X89465000Y-86303590D02*
X89465000Y-87190000D01*
X99508600Y-85274990D02*
X90493599Y-85274991D01*
X102235000Y-79375000D02*
X102235000Y-82548590D01*
X104775000Y-76835000D02*
X102235000Y-79375000D01*
X90265000Y-87190000D02*
X90265000Y-86140000D01*
X90265000Y-86140000D02*
X90680000Y-85725000D01*
X90680000Y-85725000D02*
X99695000Y-85725000D01*
X99695000Y-85725000D02*
X102870000Y-82550000D01*
X102870000Y-81280000D02*
X104775000Y-79375000D01*
X102870000Y-82550000D02*
X102870000Y-81280000D01*
X99500000Y-87190000D02*
X104775000Y-81915000D01*
X91065000Y-87190000D02*
X99500000Y-87190000D01*
X104775000Y-84455000D02*
X102870000Y-86360000D01*
X97060000Y-93440000D02*
X92515000Y-93440000D01*
X102870000Y-87630000D02*
X97060000Y-93440000D01*
X102870000Y-86360000D02*
X102870000Y-87630000D01*
X97530000Y-94240000D02*
X104775000Y-86995000D01*
X92515000Y-94240000D02*
X97530000Y-94240000D01*
X98620000Y-95690000D02*
X104775000Y-89535000D01*
X91065000Y-95690000D02*
X98620000Y-95690000D01*
X102740698Y-100050020D02*
X102982859Y-99807859D01*
X88904200Y-100050020D02*
X102740698Y-100050020D01*
X86265000Y-97410820D02*
X88904200Y-100050020D01*
X86265000Y-95690000D02*
X86265000Y-97410820D01*
X85465000Y-97247230D02*
X85465000Y-95690000D01*
X88750630Y-100532860D02*
X85465000Y-97247230D01*
X103330860Y-100532860D02*
X88750630Y-100532860D01*
X104140000Y-99723720D02*
X103330860Y-100532860D01*
X104140000Y-99060000D02*
X104140000Y-99723720D01*
X88715009Y-70298599D02*
X85726410Y-67310000D01*
X88715009Y-76581989D02*
X88715009Y-70298599D01*
X86265000Y-79031998D02*
X88715009Y-76581989D01*
X86265000Y-87190000D02*
X86265000Y-79031998D01*
X63405001Y-62135001D02*
X62230000Y-60960000D01*
X63405001Y-63874003D02*
X63405001Y-62135001D01*
X66840998Y-67310000D02*
X63405001Y-63874003D01*
X85726410Y-67310000D02*
X66840998Y-67310000D01*
X66490010Y-67760010D02*
X85540010Y-67760010D01*
X62230000Y-63500000D02*
X66490010Y-67760010D01*
X85540010Y-67760010D02*
X88265000Y-70485000D01*
X88265000Y-73665000D02*
X88265000Y-70485000D01*
X86365000Y-75565000D02*
X88265000Y-73665000D01*
X85415000Y-75565000D02*
X86365000Y-75565000D01*
X84015000Y-87825000D02*
X83185000Y-86995000D01*
X84015000Y-88640000D02*
X84015000Y-87825000D01*
X84455000Y-76525000D02*
X85415000Y-75565000D01*
X84455000Y-84455000D02*
X84455000Y-76525000D01*
X86995000Y-72395000D02*
X86995000Y-69851410D01*
X86365000Y-73025000D02*
X86995000Y-72395000D01*
X85415000Y-73025000D02*
X86365000Y-73025000D01*
X64400020Y-68210020D02*
X59690000Y-63500000D01*
X85353610Y-68210020D02*
X64400020Y-68210020D01*
X86995000Y-69851410D02*
X85353610Y-68210020D01*
X84465000Y-73025000D02*
X83185000Y-74305000D01*
X85415000Y-73025000D02*
X84465000Y-73025000D01*
X83185000Y-84910000D02*
X85465000Y-87190000D01*
X83185000Y-74305000D02*
X83185000Y-84910000D01*
X90265000Y-97885000D02*
X90805000Y-98425000D01*
X90265000Y-95690000D02*
X90265000Y-97885000D01*
X89625000Y-95850000D02*
X89465000Y-95690000D01*
X89625000Y-98425000D02*
X89625000Y-95850000D01*
X86270000Y-74295000D02*
X87540000Y-73025000D01*
X85415000Y-74295000D02*
X86270000Y-74295000D01*
X87865000Y-78975000D02*
X87865000Y-87190000D01*
X87630000Y-78740000D02*
X87865000Y-78975000D01*
G04 #@! TA.AperFunction,Conductor*
G36*
X66690931Y-149245002D02*
G01*
X66711905Y-149261905D01*
X70485000Y-153035000D01*
X82497810Y-153035000D01*
X82565931Y-153055002D01*
X82586905Y-153071905D01*
X83783095Y-154268095D01*
X83817121Y-154330407D01*
X83820000Y-154357190D01*
X83820000Y-160602810D01*
X83799998Y-160670931D01*
X83783095Y-160691905D01*
X82586905Y-161888095D01*
X82524593Y-161922121D01*
X82497810Y-161925000D01*
X62282190Y-161925000D01*
X62214069Y-161904998D01*
X62193095Y-161888095D01*
X60996905Y-160691905D01*
X60962879Y-160629593D01*
X60960000Y-160602810D01*
X60960000Y-149912190D01*
X60980002Y-149844069D01*
X60996905Y-149823095D01*
X61558095Y-149261905D01*
X61620407Y-149227879D01*
X61647190Y-149225000D01*
X66622810Y-149225000D01*
X66690931Y-149245002D01*
G37*
G04 #@! TD.AperFunction*
G04 #@! TA.AperFunction,Conductor*
G36*
X68595931Y-139720002D02*
G01*
X68616905Y-139736905D01*
X70485000Y-141605000D01*
X90117810Y-141605000D01*
X90185931Y-141625002D01*
X90206905Y-141641905D01*
X91403095Y-142838095D01*
X91437121Y-142900407D01*
X91440000Y-142927190D01*
X91440000Y-147902810D01*
X91419998Y-147970931D01*
X91403095Y-147991905D01*
X90206905Y-149188095D01*
X90144593Y-149222121D01*
X90117810Y-149225000D01*
X71172190Y-149225000D01*
X71104069Y-149204998D01*
X71083095Y-149188095D01*
X68580000Y-146685000D01*
X61647190Y-146685000D01*
X61579069Y-146664998D01*
X61558095Y-146648095D01*
X60996905Y-146086905D01*
X60962879Y-146024593D01*
X60960000Y-145997810D01*
X60960000Y-140387190D01*
X60980002Y-140319069D01*
X60996905Y-140298095D01*
X61558095Y-139736905D01*
X61620407Y-139702879D01*
X61647190Y-139700000D01*
X68527810Y-139700000D01*
X68595931Y-139720002D01*
G37*
G04 #@! TD.AperFunction*
G04 #@! TA.AperFunction,Conductor*
G36*
X66055931Y-120670002D02*
G01*
X66076905Y-120686905D01*
X67908095Y-122518095D01*
X67942121Y-122580407D01*
X67945000Y-122607190D01*
X67945000Y-127635000D01*
X72390000Y-132080000D01*
X82497810Y-132080000D01*
X82565931Y-132100002D01*
X82586905Y-132116905D01*
X83783095Y-133313095D01*
X83817121Y-133375407D01*
X83820000Y-133402190D01*
X83820000Y-137107810D01*
X83799998Y-137175931D01*
X83783095Y-137196905D01*
X82586905Y-138393095D01*
X82524593Y-138427121D01*
X82497810Y-138430000D01*
X71172190Y-138430000D01*
X71104069Y-138409998D01*
X71083095Y-138393095D01*
X69215000Y-136525000D01*
X62282190Y-136525000D01*
X62214069Y-136504998D01*
X62193095Y-136488095D01*
X61631905Y-135926905D01*
X61597879Y-135864593D01*
X61595000Y-135837810D01*
X61595000Y-121337190D01*
X61615002Y-121269069D01*
X61631905Y-121248095D01*
X62193095Y-120686905D01*
X62255407Y-120652879D01*
X62282190Y-120650000D01*
X65987810Y-120650000D01*
X66055931Y-120670002D01*
G37*
G04 #@! TD.AperFunction*
G04 #@! TA.AperFunction,Conductor*
G36*
X66690931Y-110510002D02*
G01*
X66711905Y-110526905D01*
X78105000Y-121920000D01*
X81862810Y-121920000D01*
X81930931Y-121940002D01*
X81951905Y-121956905D01*
X83148095Y-123153095D01*
X83182121Y-123215407D01*
X83185000Y-123242190D01*
X83185000Y-126947810D01*
X83164998Y-127015931D01*
X83148095Y-127036905D01*
X81951905Y-128233095D01*
X81889593Y-128267121D01*
X81862810Y-128270000D01*
X74347190Y-128270000D01*
X74279069Y-128249998D01*
X74258095Y-128233095D01*
X70521905Y-124496905D01*
X70487879Y-124434593D01*
X70485000Y-124407810D01*
X70485000Y-121285000D01*
X67310000Y-118110000D01*
X62282190Y-118110000D01*
X62214069Y-118089998D01*
X62193095Y-118073095D01*
X61631905Y-117511905D01*
X61597879Y-117449593D01*
X61595000Y-117422810D01*
X61595000Y-111812190D01*
X61615002Y-111744069D01*
X61631905Y-111723095D01*
X62828095Y-110526905D01*
X62890407Y-110492879D01*
X62917190Y-110490000D01*
X66622810Y-110490000D01*
X66690931Y-110510002D01*
G37*
G04 #@! TD.AperFunction*
G04 #@! TA.AperFunction,Conductor*
G36*
X108654121Y-55138002D02*
G01*
X108700614Y-55191658D01*
X108712000Y-55244000D01*
X108712000Y-118619000D01*
X108691998Y-118687121D01*
X108638342Y-118733614D01*
X108586000Y-118745000D01*
X80062190Y-118745000D01*
X79994069Y-118724998D01*
X79973095Y-118708095D01*
X76835000Y-115570000D01*
X94971496Y-115570000D01*
X94972186Y-115576565D01*
X94978844Y-115639908D01*
X94991458Y-115759928D01*
X95050473Y-115941556D01*
X95145960Y-116106944D01*
X95273747Y-116248866D01*
X95299309Y-116267438D01*
X95422904Y-116357235D01*
X95428248Y-116361118D01*
X95434276Y-116363802D01*
X95434278Y-116363803D01*
X95534681Y-116408505D01*
X95602712Y-116438794D01*
X95689009Y-116457137D01*
X95783056Y-116477128D01*
X95783061Y-116477128D01*
X95789513Y-116478500D01*
X95980487Y-116478500D01*
X95986939Y-116477128D01*
X95986944Y-116477128D01*
X96080991Y-116457137D01*
X96167288Y-116438794D01*
X96235319Y-116408505D01*
X96335722Y-116363803D01*
X96335724Y-116363802D01*
X96341752Y-116361118D01*
X96347091Y-116357239D01*
X96347098Y-116357235D01*
X96353528Y-116352563D01*
X96427587Y-116328500D01*
X97247413Y-116328500D01*
X97321472Y-116352563D01*
X97327902Y-116357235D01*
X97327909Y-116357239D01*
X97333248Y-116361118D01*
X97339276Y-116363802D01*
X97339278Y-116363803D01*
X97439681Y-116408505D01*
X97507712Y-116438794D01*
X97594009Y-116457137D01*
X97688056Y-116477128D01*
X97688061Y-116477128D01*
X97694513Y-116478500D01*
X97885487Y-116478500D01*
X97891939Y-116477128D01*
X97891944Y-116477128D01*
X97985991Y-116457137D01*
X98072288Y-116438794D01*
X98140319Y-116408505D01*
X98240722Y-116363803D01*
X98240724Y-116363802D01*
X98246752Y-116361118D01*
X98252091Y-116357239D01*
X98252098Y-116357235D01*
X98258528Y-116352563D01*
X98332587Y-116328500D01*
X98540507Y-116328500D01*
X98608628Y-116348502D01*
X98655121Y-116402158D01*
X98662543Y-116423763D01*
X98663255Y-116430316D01*
X98666027Y-116437711D01*
X98666028Y-116437714D01*
X98680804Y-116477128D01*
X98714385Y-116566705D01*
X98801739Y-116683261D01*
X98918295Y-116770615D01*
X99054684Y-116821745D01*
X99116866Y-116828500D01*
X100213134Y-116828500D01*
X100275316Y-116821745D01*
X100282715Y-116818971D01*
X100285854Y-116818225D01*
X100344146Y-116818225D01*
X100347285Y-116818971D01*
X100354684Y-116821745D01*
X100416866Y-116828500D01*
X101513134Y-116828500D01*
X101575316Y-116821745D01*
X101711705Y-116770615D01*
X101828261Y-116683261D01*
X101915615Y-116566705D01*
X101949196Y-116477128D01*
X101963972Y-116437714D01*
X101963973Y-116437711D01*
X101966745Y-116430316D01*
X101967372Y-116424547D01*
X102002126Y-116363709D01*
X102065081Y-116330887D01*
X102089493Y-116328500D01*
X103577491Y-116328500D01*
X103645612Y-116348502D01*
X103674402Y-116375595D01*
X103674987Y-116375088D01*
X103821250Y-116543938D01*
X103993126Y-116686632D01*
X104186000Y-116799338D01*
X104190825Y-116801180D01*
X104190826Y-116801181D01*
X104244678Y-116821745D01*
X104394692Y-116879030D01*
X104399760Y-116880061D01*
X104399763Y-116880062D01*
X104507017Y-116901883D01*
X104613597Y-116923567D01*
X104618772Y-116923757D01*
X104618774Y-116923757D01*
X104831673Y-116931564D01*
X104831677Y-116931564D01*
X104836837Y-116931753D01*
X104841957Y-116931097D01*
X104841959Y-116931097D01*
X105053288Y-116904025D01*
X105053289Y-116904025D01*
X105058416Y-116903368D01*
X105063366Y-116901883D01*
X105267429Y-116840661D01*
X105267434Y-116840659D01*
X105272384Y-116839174D01*
X105472994Y-116740896D01*
X105654860Y-116611173D01*
X105813096Y-116453489D01*
X105822670Y-116440166D01*
X105940435Y-116276277D01*
X105943453Y-116272077D01*
X105953006Y-116252749D01*
X106040136Y-116076453D01*
X106040137Y-116076451D01*
X106042430Y-116071811D01*
X106107370Y-115858069D01*
X106136529Y-115636590D01*
X106138156Y-115570000D01*
X106119852Y-115347361D01*
X106065431Y-115130702D01*
X105976354Y-114925840D01*
X105900840Y-114809113D01*
X105857822Y-114742617D01*
X105857820Y-114742614D01*
X105855014Y-114738277D01*
X105704670Y-114573051D01*
X105700619Y-114569852D01*
X105700615Y-114569848D01*
X105533414Y-114437800D01*
X105533410Y-114437798D01*
X105529359Y-114434598D01*
X105333789Y-114326638D01*
X105328920Y-114324914D01*
X105328916Y-114324912D01*
X105128087Y-114253795D01*
X105128083Y-114253794D01*
X105123212Y-114252069D01*
X105118119Y-114251162D01*
X105118116Y-114251161D01*
X104908373Y-114213800D01*
X104908367Y-114213799D01*
X104903284Y-114212894D01*
X104829452Y-114211992D01*
X104685081Y-114210228D01*
X104685079Y-114210228D01*
X104679911Y-114210165D01*
X104459091Y-114243955D01*
X104246756Y-114313357D01*
X104048607Y-114416507D01*
X104044474Y-114419610D01*
X104044471Y-114419612D01*
X103874100Y-114547530D01*
X103869965Y-114550635D01*
X103715629Y-114712138D01*
X103685363Y-114756507D01*
X103630455Y-114801507D01*
X103581277Y-114811500D01*
X102089493Y-114811500D01*
X102021372Y-114791498D01*
X101974879Y-114737842D01*
X101967457Y-114716237D01*
X101966745Y-114709684D01*
X101963053Y-114699834D01*
X101918767Y-114581703D01*
X101915615Y-114573295D01*
X101828261Y-114456739D01*
X101711705Y-114369385D01*
X101575316Y-114318255D01*
X101513134Y-114311500D01*
X100416866Y-114311500D01*
X100354684Y-114318255D01*
X100347285Y-114321029D01*
X100344146Y-114321775D01*
X100285854Y-114321775D01*
X100282715Y-114321029D01*
X100275316Y-114318255D01*
X100213134Y-114311500D01*
X99116866Y-114311500D01*
X99054684Y-114318255D01*
X98918295Y-114369385D01*
X98801739Y-114456739D01*
X98714385Y-114573295D01*
X98711233Y-114581703D01*
X98666948Y-114699834D01*
X98663255Y-114709684D01*
X98662628Y-114715453D01*
X98627874Y-114776291D01*
X98564919Y-114809113D01*
X98540507Y-114811500D01*
X98332587Y-114811500D01*
X98258528Y-114787437D01*
X98252098Y-114782765D01*
X98252091Y-114782761D01*
X98246752Y-114778882D01*
X98240724Y-114776198D01*
X98240722Y-114776197D01*
X98078319Y-114703891D01*
X98078318Y-114703891D01*
X98072288Y-114701206D01*
X97978887Y-114681353D01*
X97891944Y-114662872D01*
X97891939Y-114662872D01*
X97885487Y-114661500D01*
X97694513Y-114661500D01*
X97688061Y-114662872D01*
X97688056Y-114662872D01*
X97601113Y-114681353D01*
X97507712Y-114701206D01*
X97501682Y-114703891D01*
X97501681Y-114703891D01*
X97339278Y-114776197D01*
X97339276Y-114776198D01*
X97333248Y-114778882D01*
X97327909Y-114782761D01*
X97327902Y-114782765D01*
X97321472Y-114787437D01*
X97247413Y-114811500D01*
X96427587Y-114811500D01*
X96353528Y-114787437D01*
X96347098Y-114782765D01*
X96347091Y-114782761D01*
X96341752Y-114778882D01*
X96335724Y-114776198D01*
X96335722Y-114776197D01*
X96173319Y-114703891D01*
X96173318Y-114703891D01*
X96167288Y-114701206D01*
X96073887Y-114681353D01*
X95986944Y-114662872D01*
X95986939Y-114662872D01*
X95980487Y-114661500D01*
X95789513Y-114661500D01*
X95783061Y-114662872D01*
X95783056Y-114662872D01*
X95696113Y-114681353D01*
X95602712Y-114701206D01*
X95596682Y-114703891D01*
X95596681Y-114703891D01*
X95434278Y-114776197D01*
X95434276Y-114776198D01*
X95428248Y-114778882D01*
X95422907Y-114782762D01*
X95422906Y-114782763D01*
X95397107Y-114801507D01*
X95273747Y-114891134D01*
X95269326Y-114896044D01*
X95269325Y-114896045D01*
X95242498Y-114925840D01*
X95145960Y-115033056D01*
X95050473Y-115198444D01*
X94991458Y-115380072D01*
X94971496Y-115570000D01*
X76835000Y-115570000D01*
X75601905Y-114336905D01*
X75567879Y-114274593D01*
X75565000Y-114247810D01*
X75565000Y-109186695D01*
X80552251Y-109186695D01*
X80552548Y-109191848D01*
X80552548Y-109191851D01*
X80558011Y-109286590D01*
X80565110Y-109409715D01*
X80566247Y-109414761D01*
X80566248Y-109414767D01*
X80586119Y-109502939D01*
X80614222Y-109627639D01*
X80698266Y-109834616D01*
X80749019Y-109917438D01*
X80812291Y-110020688D01*
X80814987Y-110025088D01*
X80961250Y-110193938D01*
X81133126Y-110336632D01*
X81326000Y-110449338D01*
X81534692Y-110529030D01*
X81539760Y-110530061D01*
X81539763Y-110530062D01*
X81647017Y-110551883D01*
X81753597Y-110573567D01*
X81758772Y-110573757D01*
X81758774Y-110573757D01*
X81971673Y-110581564D01*
X81971677Y-110581564D01*
X81976837Y-110581753D01*
X81981957Y-110581097D01*
X81981959Y-110581097D01*
X82193288Y-110554025D01*
X82193289Y-110554025D01*
X82198416Y-110553368D01*
X82203366Y-110551883D01*
X82407429Y-110490661D01*
X82407434Y-110490659D01*
X82412384Y-110489174D01*
X82612994Y-110390896D01*
X82794860Y-110261173D01*
X82953096Y-110103489D01*
X83012594Y-110020689D01*
X83083453Y-109922077D01*
X83084776Y-109923028D01*
X83131645Y-109879857D01*
X83201580Y-109867625D01*
X83267026Y-109895144D01*
X83294875Y-109926994D01*
X83354987Y-110025088D01*
X83501250Y-110193938D01*
X83673126Y-110336632D01*
X83866000Y-110449338D01*
X84074692Y-110529030D01*
X84079760Y-110530061D01*
X84079763Y-110530062D01*
X84187017Y-110551883D01*
X84293597Y-110573567D01*
X84298772Y-110573757D01*
X84298774Y-110573757D01*
X84511673Y-110581564D01*
X84511677Y-110581564D01*
X84516837Y-110581753D01*
X84521957Y-110581097D01*
X84521959Y-110581097D01*
X84733288Y-110554025D01*
X84733289Y-110554025D01*
X84738416Y-110553368D01*
X84743366Y-110551883D01*
X84947429Y-110490661D01*
X84947434Y-110490659D01*
X84952384Y-110489174D01*
X85152994Y-110390896D01*
X85334860Y-110261173D01*
X85493096Y-110103489D01*
X85552594Y-110020689D01*
X85623453Y-109922077D01*
X85624776Y-109923028D01*
X85671645Y-109879857D01*
X85741580Y-109867625D01*
X85807026Y-109895144D01*
X85834875Y-109926994D01*
X85894987Y-110025088D01*
X86041250Y-110193938D01*
X86213126Y-110336632D01*
X86406000Y-110449338D01*
X86614692Y-110529030D01*
X86619760Y-110530061D01*
X86619763Y-110530062D01*
X86727017Y-110551883D01*
X86833597Y-110573567D01*
X86838772Y-110573757D01*
X86838774Y-110573757D01*
X87051673Y-110581564D01*
X87051677Y-110581564D01*
X87056837Y-110581753D01*
X87061957Y-110581097D01*
X87061959Y-110581097D01*
X87273288Y-110554025D01*
X87273289Y-110554025D01*
X87278416Y-110553368D01*
X87283366Y-110551883D01*
X87487429Y-110490661D01*
X87487434Y-110490659D01*
X87492384Y-110489174D01*
X87692994Y-110390896D01*
X87874860Y-110261173D01*
X88033096Y-110103489D01*
X88092594Y-110020689D01*
X88163453Y-109922077D01*
X88164776Y-109923028D01*
X88211645Y-109879857D01*
X88281580Y-109867625D01*
X88347026Y-109895144D01*
X88374875Y-109926994D01*
X88434987Y-110025088D01*
X88581250Y-110193938D01*
X88753126Y-110336632D01*
X88946000Y-110449338D01*
X89154692Y-110529030D01*
X89159760Y-110530061D01*
X89159763Y-110530062D01*
X89267017Y-110551883D01*
X89373597Y-110573567D01*
X89378772Y-110573757D01*
X89378774Y-110573757D01*
X89591673Y-110581564D01*
X89591677Y-110581564D01*
X89596837Y-110581753D01*
X89601957Y-110581097D01*
X89601959Y-110581097D01*
X89813288Y-110554025D01*
X89813289Y-110554025D01*
X89818416Y-110553368D01*
X89823366Y-110551883D01*
X90027429Y-110490661D01*
X90027434Y-110490659D01*
X90032384Y-110489174D01*
X90232994Y-110390896D01*
X90414860Y-110261173D01*
X90573096Y-110103489D01*
X90632594Y-110020689D01*
X90703453Y-109922077D01*
X90704776Y-109923028D01*
X90751645Y-109879857D01*
X90821580Y-109867625D01*
X90887026Y-109895144D01*
X90914875Y-109926994D01*
X90974987Y-110025088D01*
X91121250Y-110193938D01*
X91293126Y-110336632D01*
X91486000Y-110449338D01*
X91694692Y-110529030D01*
X91699760Y-110530061D01*
X91699763Y-110530062D01*
X91807017Y-110551883D01*
X91913597Y-110573567D01*
X91918772Y-110573757D01*
X91918774Y-110573757D01*
X92131673Y-110581564D01*
X92131677Y-110581564D01*
X92136837Y-110581753D01*
X92141957Y-110581097D01*
X92141959Y-110581097D01*
X92353288Y-110554025D01*
X92353289Y-110554025D01*
X92358416Y-110553368D01*
X92363366Y-110551883D01*
X92567429Y-110490661D01*
X92567434Y-110490659D01*
X92572384Y-110489174D01*
X92772994Y-110390896D01*
X92954860Y-110261173D01*
X93113096Y-110103489D01*
X93172594Y-110020689D01*
X93240435Y-109926277D01*
X93243453Y-109922077D01*
X93264320Y-109879857D01*
X93340136Y-109726453D01*
X93340137Y-109726451D01*
X93342430Y-109721811D01*
X93407370Y-109508069D01*
X93436529Y-109286590D01*
X93438156Y-109220000D01*
X93419852Y-108997361D01*
X93365431Y-108780702D01*
X93276354Y-108575840D01*
X93155014Y-108388277D01*
X93004670Y-108223051D01*
X93000619Y-108219852D01*
X93000615Y-108219848D01*
X92833414Y-108087800D01*
X92833410Y-108087798D01*
X92829359Y-108084598D01*
X92824831Y-108082098D01*
X92708988Y-108018150D01*
X92633789Y-107976638D01*
X92628920Y-107974914D01*
X92628916Y-107974912D01*
X92428087Y-107903795D01*
X92428083Y-107903794D01*
X92423212Y-107902069D01*
X92418119Y-107901162D01*
X92418116Y-107901161D01*
X92208373Y-107863800D01*
X92208367Y-107863799D01*
X92203284Y-107862894D01*
X92129452Y-107861992D01*
X91985081Y-107860228D01*
X91985079Y-107860228D01*
X91979911Y-107860165D01*
X91759091Y-107893955D01*
X91546756Y-107963357D01*
X91516443Y-107979137D01*
X91372975Y-108053822D01*
X91348607Y-108066507D01*
X91344474Y-108069610D01*
X91344471Y-108069612D01*
X91320247Y-108087800D01*
X91169965Y-108200635D01*
X91015629Y-108362138D01*
X90908201Y-108519621D01*
X90853293Y-108564621D01*
X90782768Y-108572792D01*
X90719021Y-108541538D01*
X90698324Y-108517054D01*
X90617822Y-108392617D01*
X90617820Y-108392614D01*
X90615014Y-108388277D01*
X90464670Y-108223051D01*
X90460619Y-108219852D01*
X90460615Y-108219848D01*
X90293414Y-108087800D01*
X90293410Y-108087798D01*
X90289359Y-108084598D01*
X90284831Y-108082098D01*
X90168988Y-108018150D01*
X90093789Y-107976638D01*
X90088920Y-107974914D01*
X90088916Y-107974912D01*
X89888087Y-107903795D01*
X89888083Y-107903794D01*
X89883212Y-107902069D01*
X89878119Y-107901162D01*
X89878116Y-107901161D01*
X89668373Y-107863800D01*
X89668367Y-107863799D01*
X89663284Y-107862894D01*
X89589452Y-107861992D01*
X89445081Y-107860228D01*
X89445079Y-107860228D01*
X89439911Y-107860165D01*
X89219091Y-107893955D01*
X89006756Y-107963357D01*
X88976443Y-107979137D01*
X88832975Y-108053822D01*
X88808607Y-108066507D01*
X88804474Y-108069610D01*
X88804471Y-108069612D01*
X88780247Y-108087800D01*
X88629965Y-108200635D01*
X88475629Y-108362138D01*
X88368201Y-108519621D01*
X88313293Y-108564621D01*
X88242768Y-108572792D01*
X88179021Y-108541538D01*
X88158324Y-108517054D01*
X88077822Y-108392617D01*
X88077820Y-108392614D01*
X88075014Y-108388277D01*
X87924670Y-108223051D01*
X87920619Y-108219852D01*
X87920615Y-108219848D01*
X87753414Y-108087800D01*
X87753410Y-108087798D01*
X87749359Y-108084598D01*
X87744831Y-108082098D01*
X87628988Y-108018150D01*
X87553789Y-107976638D01*
X87548920Y-107974914D01*
X87548916Y-107974912D01*
X87348087Y-107903795D01*
X87348083Y-107903794D01*
X87343212Y-107902069D01*
X87338119Y-107901162D01*
X87338116Y-107901161D01*
X87128373Y-107863800D01*
X87128367Y-107863799D01*
X87123284Y-107862894D01*
X87049452Y-107861992D01*
X86905081Y-107860228D01*
X86905079Y-107860228D01*
X86899911Y-107860165D01*
X86679091Y-107893955D01*
X86466756Y-107963357D01*
X86436443Y-107979137D01*
X86292975Y-108053822D01*
X86268607Y-108066507D01*
X86264474Y-108069610D01*
X86264471Y-108069612D01*
X86240247Y-108087800D01*
X86089965Y-108200635D01*
X85935629Y-108362138D01*
X85828201Y-108519621D01*
X85773293Y-108564621D01*
X85702768Y-108572792D01*
X85639021Y-108541538D01*
X85618324Y-108517054D01*
X85537822Y-108392617D01*
X85537820Y-108392614D01*
X85535014Y-108388277D01*
X85384670Y-108223051D01*
X85380619Y-108219852D01*
X85380615Y-108219848D01*
X85213414Y-108087800D01*
X85213410Y-108087798D01*
X85209359Y-108084598D01*
X85204831Y-108082098D01*
X85088988Y-108018150D01*
X85013789Y-107976638D01*
X85008920Y-107974914D01*
X85008916Y-107974912D01*
X84808087Y-107903795D01*
X84808083Y-107903794D01*
X84803212Y-107902069D01*
X84798119Y-107901162D01*
X84798116Y-107901161D01*
X84588373Y-107863800D01*
X84588367Y-107863799D01*
X84583284Y-107862894D01*
X84509452Y-107861992D01*
X84365081Y-107860228D01*
X84365079Y-107860228D01*
X84359911Y-107860165D01*
X84139091Y-107893955D01*
X83926756Y-107963357D01*
X83896443Y-107979137D01*
X83752975Y-108053822D01*
X83728607Y-108066507D01*
X83724474Y-108069610D01*
X83724471Y-108069612D01*
X83700247Y-108087800D01*
X83549965Y-108200635D01*
X83395629Y-108362138D01*
X83288201Y-108519621D01*
X83233293Y-108564621D01*
X83162768Y-108572792D01*
X83099021Y-108541538D01*
X83078324Y-108517054D01*
X82997822Y-108392617D01*
X82997820Y-108392614D01*
X82995014Y-108388277D01*
X82844670Y-108223051D01*
X82840619Y-108219852D01*
X82840615Y-108219848D01*
X82673414Y-108087800D01*
X82673410Y-108087798D01*
X82669359Y-108084598D01*
X82664835Y-108082101D01*
X82664831Y-108082098D01*
X82613608Y-108053822D01*
X82563636Y-108003390D01*
X82548500Y-107943513D01*
X82548500Y-106011695D01*
X103412251Y-106011695D01*
X103412548Y-106016848D01*
X103412548Y-106016851D01*
X103418011Y-106111590D01*
X103425110Y-106234715D01*
X103426247Y-106239761D01*
X103426248Y-106239767D01*
X103435721Y-106281799D01*
X103474222Y-106452639D01*
X103558266Y-106659616D01*
X103674987Y-106850088D01*
X103821250Y-107018938D01*
X103993126Y-107161632D01*
X104186000Y-107274338D01*
X104394692Y-107354030D01*
X104399760Y-107355061D01*
X104399763Y-107355062D01*
X104507017Y-107376883D01*
X104613597Y-107398567D01*
X104618772Y-107398757D01*
X104618774Y-107398757D01*
X104831673Y-107406564D01*
X104831677Y-107406564D01*
X104836837Y-107406753D01*
X104841957Y-107406097D01*
X104841959Y-107406097D01*
X105053288Y-107379025D01*
X105053289Y-107379025D01*
X105058416Y-107378368D01*
X105063366Y-107376883D01*
X105267429Y-107315661D01*
X105267434Y-107315659D01*
X105272384Y-107314174D01*
X105472994Y-107215896D01*
X105654860Y-107086173D01*
X105813096Y-106928489D01*
X105872594Y-106845689D01*
X105940435Y-106751277D01*
X105943453Y-106747077D01*
X106042430Y-106546811D01*
X106107370Y-106333069D01*
X106136529Y-106111590D01*
X106138156Y-106045000D01*
X106119852Y-105822361D01*
X106065431Y-105605702D01*
X105976354Y-105400840D01*
X105855014Y-105213277D01*
X105704670Y-105048051D01*
X105700619Y-105044852D01*
X105700615Y-105044848D01*
X105533414Y-104912800D01*
X105533410Y-104912798D01*
X105529359Y-104909598D01*
X105333789Y-104801638D01*
X105328920Y-104799914D01*
X105328916Y-104799912D01*
X105128087Y-104728795D01*
X105128083Y-104728794D01*
X105123212Y-104727069D01*
X105118119Y-104726162D01*
X105118116Y-104726161D01*
X104908373Y-104688800D01*
X104908367Y-104688799D01*
X104903284Y-104687894D01*
X104829452Y-104686992D01*
X104685081Y-104685228D01*
X104685079Y-104685228D01*
X104679911Y-104685165D01*
X104459091Y-104718955D01*
X104246756Y-104788357D01*
X104048607Y-104891507D01*
X104044474Y-104894610D01*
X104044471Y-104894612D01*
X103874100Y-105022530D01*
X103869965Y-105025635D01*
X103715629Y-105187138D01*
X103589743Y-105371680D01*
X103495688Y-105574305D01*
X103435989Y-105789570D01*
X103412251Y-106011695D01*
X82548500Y-106011695D01*
X82548500Y-104949594D01*
X82568502Y-104881473D01*
X82585401Y-104860503D01*
X83555502Y-103890403D01*
X83617812Y-103856379D01*
X83644595Y-103853500D01*
X83953732Y-103853500D01*
X83956978Y-103853163D01*
X83956982Y-103853163D01*
X83991083Y-103849625D01*
X84056019Y-103842887D01*
X84090737Y-103831304D01*
X84211324Y-103791073D01*
X84211326Y-103791072D01*
X84218268Y-103788756D01*
X84224493Y-103784904D01*
X84357487Y-103702605D01*
X84357488Y-103702604D01*
X84363713Y-103698752D01*
X84368886Y-103693570D01*
X84374620Y-103689025D01*
X84376142Y-103690945D01*
X84428206Y-103662455D01*
X84499026Y-103667456D01*
X84535552Y-103690882D01*
X84536372Y-103689843D01*
X84542118Y-103694381D01*
X84547298Y-103699552D01*
X84553528Y-103703392D01*
X84553529Y-103703393D01*
X84635921Y-103754180D01*
X84692899Y-103789302D01*
X84855243Y-103843149D01*
X84862080Y-103843849D01*
X84862082Y-103843850D01*
X84903401Y-103848083D01*
X84956268Y-103853500D01*
X85503732Y-103853500D01*
X85506978Y-103853163D01*
X85506982Y-103853163D01*
X85541083Y-103849625D01*
X85606019Y-103842887D01*
X85640737Y-103831304D01*
X85761324Y-103791073D01*
X85761326Y-103791072D01*
X85768268Y-103788756D01*
X85913713Y-103698752D01*
X85922607Y-103689843D01*
X86029381Y-103582882D01*
X86034552Y-103577702D01*
X86034554Y-103577699D01*
X86090020Y-103538377D01*
X86160944Y-103535147D01*
X86222354Y-103570775D01*
X86229593Y-103579159D01*
X86233361Y-103585381D01*
X86354619Y-103706639D01*
X86501301Y-103795472D01*
X86508548Y-103797743D01*
X86508550Y-103797744D01*
X86574836Y-103818517D01*
X86664938Y-103846753D01*
X86738365Y-103853500D01*
X86741263Y-103853500D01*
X86995665Y-103853499D01*
X87251634Y-103853499D01*
X87254492Y-103853236D01*
X87254501Y-103853236D01*
X87290004Y-103849974D01*
X87325062Y-103846753D01*
X87331447Y-103844752D01*
X87481450Y-103797744D01*
X87481452Y-103797743D01*
X87488699Y-103795472D01*
X87635381Y-103706639D01*
X87730905Y-103611115D01*
X87793217Y-103577089D01*
X87864032Y-103582154D01*
X87909095Y-103611115D01*
X88004619Y-103706639D01*
X88151301Y-103795472D01*
X88158548Y-103797743D01*
X88158550Y-103797744D01*
X88224836Y-103818517D01*
X88314938Y-103846753D01*
X88388365Y-103853500D01*
X88391263Y-103853500D01*
X88645665Y-103853499D01*
X88901634Y-103853499D01*
X88904492Y-103853236D01*
X88904501Y-103853236D01*
X88940004Y-103849974D01*
X88975062Y-103846753D01*
X88981447Y-103844752D01*
X89131450Y-103797744D01*
X89131452Y-103797743D01*
X89138699Y-103795472D01*
X89285381Y-103706639D01*
X89406639Y-103585381D01*
X89419449Y-103564229D01*
X89471846Y-103516322D01*
X89527225Y-103503500D01*
X89884501Y-103503500D01*
X89952622Y-103523502D01*
X89991644Y-103563195D01*
X89997395Y-103572488D01*
X89997399Y-103572493D01*
X90001248Y-103578713D01*
X90122298Y-103699552D01*
X90128528Y-103703392D01*
X90128529Y-103703393D01*
X90210921Y-103754180D01*
X90267899Y-103789302D01*
X90430243Y-103843149D01*
X90437080Y-103843849D01*
X90437082Y-103843850D01*
X90478401Y-103848083D01*
X90531268Y-103853500D01*
X91078732Y-103853500D01*
X91081978Y-103853163D01*
X91081982Y-103853163D01*
X91116083Y-103849625D01*
X91181019Y-103842887D01*
X91215737Y-103831304D01*
X91336324Y-103791073D01*
X91336326Y-103791072D01*
X91343268Y-103788756D01*
X91488713Y-103698752D01*
X91497607Y-103689843D01*
X91604381Y-103582882D01*
X91609552Y-103577702D01*
X91618494Y-103563195D01*
X91695462Y-103438331D01*
X91695463Y-103438329D01*
X91699302Y-103432101D01*
X91753149Y-103269757D01*
X91763500Y-103168732D01*
X91763500Y-102571268D01*
X91752887Y-102468981D01*
X91741304Y-102434263D01*
X91701073Y-102313676D01*
X91701072Y-102313674D01*
X91698756Y-102306732D01*
X91608752Y-102161287D01*
X91487702Y-102040448D01*
X91342101Y-101950698D01*
X91179757Y-101896851D01*
X91172920Y-101896151D01*
X91172918Y-101896150D01*
X91131599Y-101891917D01*
X91078732Y-101886500D01*
X90531268Y-101886500D01*
X90528022Y-101886837D01*
X90528018Y-101886837D01*
X90493917Y-101890375D01*
X90428981Y-101897113D01*
X90422440Y-101899295D01*
X90422441Y-101899295D01*
X90273676Y-101948927D01*
X90273674Y-101948928D01*
X90266732Y-101951244D01*
X90121287Y-102041248D01*
X90116114Y-102046430D01*
X90111577Y-102050975D01*
X90000448Y-102162298D01*
X89996607Y-102168529D01*
X89996605Y-102168532D01*
X89991621Y-102176617D01*
X89938848Y-102224110D01*
X89884362Y-102236500D01*
X89527225Y-102236500D01*
X89459104Y-102216498D01*
X89419449Y-102175771D01*
X89410576Y-102161120D01*
X89406639Y-102154619D01*
X89285381Y-102033361D01*
X89138699Y-101944528D01*
X89131452Y-101942257D01*
X89131450Y-101942256D01*
X89065164Y-101921483D01*
X88975062Y-101893247D01*
X88901635Y-101886500D01*
X88883527Y-101886500D01*
X88609595Y-101886501D01*
X88541476Y-101866499D01*
X88520500Y-101849596D01*
X88440399Y-101769494D01*
X88348637Y-101677732D01*
X88341103Y-101669453D01*
X88336990Y-101662972D01*
X88287338Y-101616346D01*
X88284497Y-101613592D01*
X88264760Y-101593855D01*
X88261563Y-101591375D01*
X88252541Y-101583670D01*
X88239112Y-101571059D01*
X88220311Y-101553404D01*
X88213365Y-101549585D01*
X88213362Y-101549583D01*
X88202556Y-101543642D01*
X88186037Y-101532791D01*
X88185573Y-101532431D01*
X88170031Y-101520376D01*
X88162762Y-101517231D01*
X88162758Y-101517228D01*
X88129453Y-101502816D01*
X88118803Y-101497599D01*
X88080050Y-101476295D01*
X88060427Y-101471257D01*
X88041724Y-101464853D01*
X88030410Y-101459957D01*
X88030409Y-101459957D01*
X88023135Y-101456809D01*
X88015312Y-101455570D01*
X88015302Y-101455567D01*
X87979466Y-101449891D01*
X87967846Y-101447485D01*
X87932701Y-101438462D01*
X87932700Y-101438462D01*
X87925020Y-101436490D01*
X87904766Y-101436490D01*
X87885055Y-101434939D01*
X87872876Y-101433010D01*
X87865047Y-101431770D01*
X87835776Y-101434537D01*
X87821029Y-101435931D01*
X87809171Y-101436490D01*
X86108777Y-101436490D01*
X86097594Y-101435963D01*
X86090101Y-101434288D01*
X86082175Y-101434537D01*
X86082174Y-101434537D01*
X86022024Y-101436428D01*
X86018065Y-101436490D01*
X85990154Y-101436490D01*
X85986220Y-101436987D01*
X85986219Y-101436987D01*
X85986154Y-101436995D01*
X85974317Y-101437928D01*
X85942059Y-101438942D01*
X85938040Y-101439068D01*
X85930121Y-101439317D01*
X85910667Y-101444969D01*
X85891310Y-101448977D01*
X85879080Y-101450522D01*
X85879079Y-101450522D01*
X85871213Y-101451516D01*
X85863842Y-101454435D01*
X85863840Y-101454435D01*
X85830098Y-101467794D01*
X85818868Y-101471639D01*
X85784027Y-101481761D01*
X85784026Y-101481761D01*
X85776417Y-101483972D01*
X85769598Y-101488005D01*
X85769593Y-101488007D01*
X85758982Y-101494283D01*
X85741234Y-101502978D01*
X85722393Y-101510438D01*
X85715977Y-101515100D01*
X85715976Y-101515100D01*
X85686623Y-101536426D01*
X85676703Y-101542942D01*
X85645475Y-101561410D01*
X85645472Y-101561412D01*
X85638648Y-101565448D01*
X85624327Y-101579769D01*
X85609294Y-101592609D01*
X85592903Y-101604518D01*
X85587852Y-101610623D01*
X85587847Y-101610628D01*
X85564716Y-101638588D01*
X85556729Y-101647366D01*
X85440052Y-101764044D01*
X85354501Y-101849595D01*
X85292189Y-101883620D01*
X85265405Y-101886500D01*
X84956268Y-101886500D01*
X84953022Y-101886837D01*
X84953018Y-101886837D01*
X84918917Y-101890375D01*
X84853981Y-101897113D01*
X84847440Y-101899295D01*
X84847441Y-101899295D01*
X84698676Y-101948927D01*
X84698674Y-101948928D01*
X84691732Y-101951244D01*
X84685508Y-101955096D01*
X84685507Y-101955096D01*
X84553787Y-102036607D01*
X84546287Y-102041248D01*
X84541114Y-102046430D01*
X84535380Y-102050975D01*
X84533858Y-102049055D01*
X84481794Y-102077545D01*
X84410974Y-102072544D01*
X84374448Y-102049118D01*
X84373628Y-102050157D01*
X84367882Y-102045619D01*
X84362702Y-102040448D01*
X84217101Y-101950698D01*
X84054757Y-101896851D01*
X84047920Y-101896151D01*
X84047918Y-101896150D01*
X84006599Y-101891917D01*
X83953732Y-101886500D01*
X83406268Y-101886500D01*
X83403022Y-101886837D01*
X83403018Y-101886837D01*
X83368917Y-101890375D01*
X83303981Y-101897113D01*
X83297440Y-101899295D01*
X83297441Y-101899295D01*
X83148676Y-101948927D01*
X83148674Y-101948928D01*
X83141732Y-101951244D01*
X82996287Y-102041248D01*
X82991114Y-102046430D01*
X82986577Y-102050975D01*
X82875448Y-102162298D01*
X82871608Y-102168528D01*
X82871607Y-102168529D01*
X82790255Y-102300507D01*
X82785698Y-102307899D01*
X82731851Y-102470243D01*
X82721500Y-102571268D01*
X82721500Y-102880406D01*
X82701498Y-102948527D01*
X82684595Y-102969501D01*
X82090900Y-103563195D01*
X81522747Y-104131348D01*
X81514461Y-104138888D01*
X81507982Y-104143000D01*
X81502557Y-104148777D01*
X81461357Y-104192651D01*
X81458602Y-104195493D01*
X81438865Y-104215230D01*
X81436385Y-104218427D01*
X81428682Y-104227447D01*
X81398414Y-104259679D01*
X81394595Y-104266625D01*
X81394593Y-104266628D01*
X81388652Y-104277434D01*
X81377801Y-104293953D01*
X81365386Y-104309959D01*
X81362241Y-104317228D01*
X81362238Y-104317232D01*
X81347826Y-104350537D01*
X81342609Y-104361187D01*
X81321305Y-104399940D01*
X81319334Y-104407615D01*
X81319334Y-104407616D01*
X81316267Y-104419562D01*
X81309863Y-104438266D01*
X81301819Y-104456855D01*
X81300580Y-104464678D01*
X81300577Y-104464688D01*
X81294901Y-104500524D01*
X81292495Y-104512144D01*
X81281500Y-104554970D01*
X81281500Y-104575224D01*
X81279949Y-104594934D01*
X81276780Y-104614943D01*
X81277526Y-104622835D01*
X81280941Y-104658961D01*
X81281500Y-104670819D01*
X81281500Y-107941692D01*
X81261498Y-108009813D01*
X81213683Y-108053453D01*
X81188607Y-108066507D01*
X81184474Y-108069610D01*
X81184471Y-108069612D01*
X81160247Y-108087800D01*
X81009965Y-108200635D01*
X80855629Y-108362138D01*
X80729743Y-108546680D01*
X80635688Y-108749305D01*
X80575989Y-108964570D01*
X80552251Y-109186695D01*
X75565000Y-109186695D01*
X75565000Y-107315000D01*
X71755000Y-103505000D01*
X70611000Y-103505000D01*
X70542879Y-103484998D01*
X70496386Y-103431342D01*
X70485000Y-103379000D01*
X70485000Y-90170000D01*
X55244000Y-90170000D01*
X55175879Y-90149998D01*
X55129386Y-90096342D01*
X55118000Y-90044000D01*
X55118000Y-85630341D01*
X61757888Y-85630341D01*
X61757983Y-85633971D01*
X61757983Y-85633972D01*
X61766086Y-85943419D01*
X61766970Y-85977171D01*
X61767481Y-85980761D01*
X61767481Y-85980762D01*
X61769486Y-85994848D01*
X61815856Y-86320660D01*
X61903897Y-86656253D01*
X62029927Y-86979503D01*
X62031624Y-86982708D01*
X62165113Y-87234825D01*
X62192275Y-87286126D01*
X62194325Y-87289109D01*
X62194327Y-87289112D01*
X62386733Y-87569064D01*
X62386739Y-87569071D01*
X62388790Y-87572056D01*
X62477604Y-87673866D01*
X62607705Y-87823003D01*
X62616866Y-87833505D01*
X62666303Y-87878489D01*
X62829268Y-88026775D01*
X62873481Y-88067006D01*
X63155233Y-88269466D01*
X63458388Y-88438200D01*
X63778928Y-88570972D01*
X63782422Y-88571967D01*
X63782424Y-88571968D01*
X64109103Y-88665025D01*
X64109108Y-88665026D01*
X64112604Y-88666022D01*
X64287011Y-88694582D01*
X64451412Y-88721504D01*
X64451419Y-88721505D01*
X64454993Y-88722090D01*
X64500392Y-88724231D01*
X64797931Y-88738263D01*
X64797932Y-88738263D01*
X64801558Y-88738434D01*
X64826744Y-88736717D01*
X65144073Y-88715084D01*
X65144081Y-88715083D01*
X65147704Y-88714836D01*
X65151279Y-88714173D01*
X65151282Y-88714173D01*
X65485279Y-88652270D01*
X65485283Y-88652269D01*
X65488844Y-88651609D01*
X65820456Y-88549592D01*
X66138145Y-88410136D01*
X66269702Y-88333261D01*
X66434560Y-88236926D01*
X66434562Y-88236925D01*
X66437700Y-88235091D01*
X66473386Y-88208297D01*
X66712244Y-88028958D01*
X66712248Y-88028955D01*
X66715151Y-88026775D01*
X66966819Y-87787950D01*
X67026103Y-87717048D01*
X67187048Y-87524560D01*
X67189370Y-87521783D01*
X67192261Y-87517383D01*
X67333474Y-87302405D01*
X67379853Y-87231799D01*
X67495649Y-87001565D01*
X67534117Y-86925080D01*
X67534120Y-86925072D01*
X67535744Y-86921844D01*
X67635735Y-86648608D01*
X67653729Y-86599437D01*
X67653730Y-86599433D01*
X67654977Y-86596026D01*
X67655822Y-86592504D01*
X67655825Y-86592496D01*
X67735124Y-86262191D01*
X67735125Y-86262187D01*
X67735971Y-86258662D01*
X67738575Y-86237144D01*
X67777316Y-85917004D01*
X67777316Y-85916997D01*
X67777652Y-85914225D01*
X67778293Y-85893851D01*
X67783511Y-85727797D01*
X67783599Y-85725000D01*
X67779304Y-85650516D01*
X67763836Y-85382246D01*
X67763835Y-85382241D01*
X67763627Y-85378626D01*
X67726098Y-85163593D01*
X67704600Y-85040415D01*
X67704598Y-85040408D01*
X67703976Y-85036842D01*
X67693647Y-85001970D01*
X67645686Y-84840058D01*
X67605437Y-84704180D01*
X67578319Y-84640602D01*
X67470740Y-84388386D01*
X67470738Y-84388383D01*
X67469316Y-84385048D01*
X67453275Y-84356924D01*
X67299208Y-84086816D01*
X67297417Y-84083676D01*
X67092018Y-83804060D01*
X66855842Y-83549904D01*
X66592019Y-83324578D01*
X66304047Y-83131069D01*
X65995741Y-82971940D01*
X65671189Y-82849302D01*
X65667668Y-82848418D01*
X65667663Y-82848416D01*
X65452184Y-82794292D01*
X65334692Y-82764780D01*
X65312476Y-82761855D01*
X64994315Y-82719968D01*
X64994307Y-82719967D01*
X64990711Y-82719494D01*
X64846045Y-82717221D01*
X64647446Y-82714101D01*
X64647442Y-82714101D01*
X64643804Y-82714044D01*
X64640190Y-82714405D01*
X64640184Y-82714405D01*
X64396843Y-82738694D01*
X64298569Y-82748503D01*
X63959583Y-82822414D01*
X63956156Y-82823587D01*
X63956150Y-82823589D01*
X63634765Y-82933624D01*
X63631339Y-82934797D01*
X63318188Y-83084163D01*
X63024279Y-83268532D01*
X63021443Y-83270804D01*
X63021436Y-83270809D01*
X62791718Y-83454848D01*
X62753509Y-83485459D01*
X62509466Y-83732071D01*
X62507225Y-83734929D01*
X62450732Y-83806978D01*
X62295386Y-84005098D01*
X62293493Y-84008187D01*
X62293491Y-84008190D01*
X62247375Y-84083444D01*
X62114105Y-84300921D01*
X62112580Y-84304206D01*
X62112578Y-84304210D01*
X62020772Y-84501990D01*
X61968027Y-84615620D01*
X61937586Y-84707666D01*
X61868029Y-84917986D01*
X61859087Y-84945023D01*
X61858351Y-84948578D01*
X61858350Y-84948581D01*
X61789465Y-85281214D01*
X61788730Y-85284764D01*
X61757888Y-85630341D01*
X55118000Y-85630341D01*
X55118000Y-74213732D01*
X73311500Y-74213732D01*
X73311837Y-74216978D01*
X73311837Y-74216982D01*
X73315375Y-74251083D01*
X73322113Y-74316019D01*
X73324295Y-74322559D01*
X73359942Y-74429404D01*
X73376244Y-74478268D01*
X73466248Y-74623713D01*
X73587298Y-74744552D01*
X73593530Y-74748394D01*
X73593532Y-74748395D01*
X73601617Y-74753379D01*
X73649110Y-74806152D01*
X73661500Y-74860638D01*
X73661500Y-74862476D01*
X73641498Y-74930597D01*
X73629142Y-74946779D01*
X73555960Y-75028056D01*
X73460473Y-75193444D01*
X73401458Y-75375072D01*
X73381496Y-75565000D01*
X73382186Y-75571565D01*
X73400594Y-75746703D01*
X73401458Y-75754928D01*
X73460473Y-75936556D01*
X73555960Y-76101944D01*
X73560378Y-76106851D01*
X73560379Y-76106852D01*
X73647149Y-76203220D01*
X73683747Y-76243866D01*
X73716132Y-76267395D01*
X73825499Y-76346855D01*
X73838248Y-76356118D01*
X73844276Y-76358802D01*
X73844278Y-76358803D01*
X73960177Y-76410404D01*
X74012712Y-76433794D01*
X74106113Y-76453647D01*
X74193056Y-76472128D01*
X74193061Y-76472128D01*
X74199513Y-76473500D01*
X74390487Y-76473500D01*
X74396939Y-76472128D01*
X74396944Y-76472128D01*
X74483887Y-76453647D01*
X74577288Y-76433794D01*
X74629823Y-76410404D01*
X74745722Y-76358803D01*
X74745724Y-76358802D01*
X74751752Y-76356118D01*
X74764502Y-76346855D01*
X74873868Y-76267395D01*
X74906253Y-76243866D01*
X74942851Y-76203220D01*
X75029621Y-76106852D01*
X75029622Y-76106851D01*
X75034040Y-76101944D01*
X75129527Y-75936556D01*
X75131569Y-75930271D01*
X75134253Y-75924243D01*
X75135622Y-75924852D01*
X75171332Y-75872634D01*
X75236731Y-75845001D01*
X75306687Y-75857112D01*
X75340181Y-75881086D01*
X75416348Y-75957253D01*
X75423888Y-75965539D01*
X75428000Y-75972018D01*
X75433777Y-75977443D01*
X75477651Y-76018643D01*
X75480493Y-76021398D01*
X75500230Y-76041135D01*
X75503427Y-76043615D01*
X75512447Y-76051318D01*
X75544679Y-76081586D01*
X75551625Y-76085405D01*
X75551628Y-76085407D01*
X75562434Y-76091348D01*
X75578953Y-76102199D01*
X75594959Y-76114614D01*
X75602228Y-76117759D01*
X75602232Y-76117762D01*
X75635537Y-76132174D01*
X75646187Y-76137391D01*
X75684940Y-76158695D01*
X75692615Y-76160666D01*
X75692616Y-76160666D01*
X75704562Y-76163733D01*
X75723267Y-76170137D01*
X75741855Y-76178181D01*
X75749678Y-76179420D01*
X75749688Y-76179423D01*
X75785524Y-76185099D01*
X75797144Y-76187505D01*
X75832289Y-76196528D01*
X75839970Y-76198500D01*
X75860224Y-76198500D01*
X75879934Y-76200051D01*
X75899943Y-76203220D01*
X75907835Y-76202474D01*
X75933467Y-76200051D01*
X75943962Y-76199059D01*
X75955819Y-76198500D01*
X77115050Y-76198500D01*
X77183171Y-76218502D01*
X77196271Y-76229059D01*
X77196325Y-76228989D01*
X77202584Y-76233844D01*
X77208193Y-76239453D01*
X77215017Y-76243489D01*
X77215020Y-76243491D01*
X77322589Y-76307107D01*
X77351399Y-76324145D01*
X77359010Y-76326356D01*
X77359012Y-76326357D01*
X77411231Y-76341528D01*
X77511169Y-76370562D01*
X77517574Y-76371066D01*
X77517579Y-76371067D01*
X77546042Y-76373307D01*
X77546050Y-76373307D01*
X77548498Y-76373500D01*
X79281502Y-76373500D01*
X79283950Y-76373307D01*
X79283958Y-76373307D01*
X79312421Y-76371067D01*
X79312426Y-76371066D01*
X79318831Y-76370562D01*
X79418769Y-76341528D01*
X79470988Y-76326357D01*
X79470990Y-76326356D01*
X79478601Y-76324145D01*
X79507411Y-76307107D01*
X79614980Y-76243491D01*
X79614983Y-76243489D01*
X79621807Y-76239453D01*
X79739453Y-76121807D01*
X79743489Y-76114983D01*
X79743491Y-76114980D01*
X79816323Y-75991827D01*
X79824145Y-75978601D01*
X79834698Y-75942279D01*
X79868767Y-75825008D01*
X79870562Y-75818831D01*
X79873500Y-75781502D01*
X79873500Y-75348498D01*
X79870562Y-75311169D01*
X79836360Y-75193444D01*
X79826357Y-75159012D01*
X79826356Y-75159010D01*
X79824145Y-75151399D01*
X79739453Y-75008193D01*
X79736771Y-75005511D01*
X79711498Y-74941139D01*
X79725400Y-74871516D01*
X79735572Y-74855688D01*
X79739453Y-74851807D01*
X79824145Y-74708601D01*
X79870562Y-74548831D01*
X79873500Y-74511502D01*
X79873500Y-74078498D01*
X79873307Y-74076042D01*
X79871067Y-74047579D01*
X79871066Y-74047574D01*
X79870562Y-74041169D01*
X79840190Y-73936628D01*
X79826357Y-73889012D01*
X79826356Y-73889010D01*
X79824145Y-73881399D01*
X79807107Y-73852589D01*
X79743491Y-73745020D01*
X79743489Y-73745017D01*
X79739453Y-73738193D01*
X79621807Y-73620547D01*
X79614983Y-73616511D01*
X79614980Y-73616509D01*
X79485427Y-73539892D01*
X79485428Y-73539892D01*
X79478601Y-73535855D01*
X79470990Y-73533644D01*
X79470988Y-73533643D01*
X79418769Y-73518472D01*
X79318831Y-73489438D01*
X79312426Y-73488934D01*
X79312421Y-73488933D01*
X79283958Y-73486693D01*
X79283950Y-73486693D01*
X79281502Y-73486500D01*
X77548498Y-73486500D01*
X77546050Y-73486693D01*
X77546042Y-73486693D01*
X77517579Y-73488933D01*
X77517574Y-73488934D01*
X77511169Y-73489438D01*
X77411231Y-73518472D01*
X77359012Y-73533643D01*
X77359010Y-73533644D01*
X77351399Y-73535855D01*
X77344572Y-73539892D01*
X77344573Y-73539892D01*
X77215020Y-73616509D01*
X77215017Y-73616511D01*
X77208193Y-73620547D01*
X77202585Y-73626155D01*
X77196325Y-73631011D01*
X77195156Y-73629504D01*
X77141833Y-73658621D01*
X77115050Y-73661500D01*
X76908200Y-73661500D01*
X76840079Y-73641498D01*
X76820853Y-73625157D01*
X76820580Y-73625460D01*
X76815668Y-73621037D01*
X76811253Y-73616134D01*
X76700759Y-73535855D01*
X76662094Y-73507763D01*
X76662093Y-73507762D01*
X76656752Y-73503882D01*
X76650724Y-73501198D01*
X76650722Y-73501197D01*
X76488319Y-73428891D01*
X76488318Y-73428891D01*
X76482288Y-73426206D01*
X76367148Y-73401732D01*
X76301944Y-73387872D01*
X76301939Y-73387872D01*
X76295487Y-73386500D01*
X76104513Y-73386500D01*
X76098061Y-73387872D01*
X76098056Y-73387872D01*
X76032852Y-73401732D01*
X75917712Y-73426206D01*
X75911682Y-73428891D01*
X75911681Y-73428891D01*
X75749278Y-73501197D01*
X75749276Y-73501198D01*
X75743248Y-73503882D01*
X75588747Y-73616134D01*
X75584326Y-73621044D01*
X75584325Y-73621045D01*
X75495597Y-73719588D01*
X75435151Y-73756828D01*
X75364168Y-73755476D01*
X75305183Y-73715963D01*
X75276634Y-73648282D01*
X75272895Y-73612251D01*
X75267887Y-73563981D01*
X75242849Y-73488933D01*
X75216073Y-73408676D01*
X75216072Y-73408674D01*
X75213756Y-73401732D01*
X75123752Y-73256287D01*
X75002702Y-73135448D01*
X74857101Y-73045698D01*
X74694757Y-72991851D01*
X74687920Y-72991151D01*
X74687918Y-72991150D01*
X74646599Y-72986917D01*
X74593732Y-72981500D01*
X73996268Y-72981500D01*
X73993022Y-72981837D01*
X73993018Y-72981837D01*
X73958917Y-72985375D01*
X73893981Y-72992113D01*
X73887440Y-72994295D01*
X73887441Y-72994295D01*
X73738676Y-73043927D01*
X73738674Y-73043928D01*
X73731732Y-73046244D01*
X73586287Y-73136248D01*
X73465448Y-73257298D01*
X73461608Y-73263528D01*
X73461607Y-73263529D01*
X73380255Y-73395507D01*
X73375698Y-73402899D01*
X73321851Y-73565243D01*
X73311500Y-73666268D01*
X73311500Y-74213732D01*
X55118000Y-74213732D01*
X55118000Y-60926695D01*
X58327251Y-60926695D01*
X58327548Y-60931848D01*
X58327548Y-60931851D01*
X58333011Y-61026590D01*
X58340110Y-61149715D01*
X58341247Y-61154761D01*
X58341248Y-61154767D01*
X58361119Y-61242939D01*
X58389222Y-61367639D01*
X58473266Y-61574616D01*
X58510657Y-61635633D01*
X58587291Y-61760688D01*
X58589987Y-61765088D01*
X58736250Y-61933938D01*
X58787160Y-61976204D01*
X58806344Y-61992131D01*
X58845979Y-62051033D01*
X58847477Y-62122014D01*
X58810363Y-62182537D01*
X58779312Y-62203175D01*
X58772996Y-62206134D01*
X58766054Y-62208450D01*
X58615652Y-62301522D01*
X58610479Y-62306704D01*
X58552686Y-62364598D01*
X58490695Y-62426697D01*
X58486855Y-62432927D01*
X58486854Y-62432928D01*
X58402466Y-62569831D01*
X58397885Y-62577262D01*
X58342203Y-62745139D01*
X58331500Y-62849600D01*
X58331500Y-64150400D01*
X58331837Y-64153646D01*
X58331837Y-64153650D01*
X58337374Y-64207009D01*
X58342474Y-64256166D01*
X58344655Y-64262702D01*
X58344655Y-64262704D01*
X58365344Y-64324715D01*
X58398450Y-64423946D01*
X58491522Y-64574348D01*
X58616697Y-64699305D01*
X58622927Y-64703145D01*
X58622928Y-64703146D01*
X58728071Y-64767957D01*
X58767262Y-64792115D01*
X58802938Y-64803948D01*
X58928611Y-64845632D01*
X58928613Y-64845632D01*
X58935139Y-64847797D01*
X58941975Y-64848497D01*
X58941978Y-64848498D01*
X58985031Y-64852909D01*
X59039600Y-64858500D01*
X60100406Y-64858500D01*
X60168527Y-64878502D01*
X60189501Y-64895405D01*
X63896363Y-68602267D01*
X63903907Y-68610557D01*
X63908020Y-68617038D01*
X63913797Y-68622463D01*
X63957687Y-68663678D01*
X63960529Y-68666433D01*
X63980250Y-68686154D01*
X63983445Y-68688632D01*
X63992467Y-68696338D01*
X64024699Y-68726606D01*
X64031648Y-68730426D01*
X64042452Y-68736366D01*
X64058976Y-68747219D01*
X64074979Y-68759633D01*
X64115563Y-68777196D01*
X64126193Y-68782403D01*
X64164960Y-68803715D01*
X64172637Y-68805686D01*
X64172642Y-68805688D01*
X64184578Y-68808752D01*
X64203286Y-68815157D01*
X64221875Y-68823201D01*
X64229703Y-68824441D01*
X64229710Y-68824443D01*
X64265544Y-68830119D01*
X64277164Y-68832525D01*
X64312309Y-68841548D01*
X64319990Y-68843520D01*
X64340244Y-68843520D01*
X64359954Y-68845071D01*
X64379963Y-68848240D01*
X64387855Y-68847494D01*
X64423981Y-68844079D01*
X64435839Y-68843520D01*
X85039016Y-68843520D01*
X85107137Y-68863522D01*
X85128111Y-68880425D01*
X86324595Y-70076910D01*
X86358621Y-70139222D01*
X86361500Y-70166005D01*
X86361500Y-70820500D01*
X86341498Y-70888621D01*
X86287842Y-70935114D01*
X86235500Y-70946500D01*
X84548498Y-70946500D01*
X84546050Y-70946693D01*
X84546042Y-70946693D01*
X84517579Y-70948933D01*
X84517574Y-70948934D01*
X84511169Y-70949438D01*
X84411231Y-70978472D01*
X84359012Y-70993643D01*
X84359010Y-70993644D01*
X84351399Y-70995855D01*
X84344572Y-70999892D01*
X84344573Y-70999892D01*
X84215020Y-71076509D01*
X84215017Y-71076511D01*
X84208193Y-71080547D01*
X84090547Y-71198193D01*
X84086511Y-71205017D01*
X84086509Y-71205020D01*
X84022893Y-71312589D01*
X84005855Y-71341399D01*
X83959438Y-71501169D01*
X83956500Y-71538498D01*
X83956500Y-71971502D01*
X83959438Y-72008831D01*
X84005855Y-72168601D01*
X84090547Y-72311807D01*
X84093229Y-72314489D01*
X84118502Y-72378861D01*
X84104600Y-72448484D01*
X84094425Y-72464315D01*
X84090547Y-72468193D01*
X84086516Y-72475009D01*
X84086513Y-72475013D01*
X84054637Y-72528914D01*
X84033198Y-72555673D01*
X84027893Y-72559528D01*
X84022840Y-72565636D01*
X84022839Y-72565637D01*
X83999712Y-72593593D01*
X83991722Y-72602373D01*
X82792747Y-73801348D01*
X82784461Y-73808888D01*
X82777982Y-73813000D01*
X82772557Y-73818777D01*
X82731357Y-73862651D01*
X82728602Y-73865493D01*
X82708865Y-73885230D01*
X82706385Y-73888427D01*
X82698682Y-73897447D01*
X82668414Y-73929679D01*
X82664595Y-73936625D01*
X82664593Y-73936628D01*
X82658652Y-73947434D01*
X82647801Y-73963953D01*
X82635386Y-73979959D01*
X82632241Y-73987228D01*
X82632238Y-73987232D01*
X82617826Y-74020537D01*
X82612609Y-74031187D01*
X82591305Y-74069940D01*
X82589334Y-74077615D01*
X82589334Y-74077616D01*
X82586267Y-74089562D01*
X82579863Y-74108266D01*
X82571819Y-74126855D01*
X82570580Y-74134678D01*
X82570577Y-74134688D01*
X82564901Y-74170524D01*
X82562495Y-74182144D01*
X82551500Y-74224970D01*
X82551500Y-74245224D01*
X82549949Y-74264934D01*
X82546780Y-74284943D01*
X82547526Y-74292835D01*
X82550941Y-74328961D01*
X82551500Y-74340819D01*
X82551500Y-84831233D01*
X82550973Y-84842416D01*
X82549298Y-84849909D01*
X82549547Y-84857835D01*
X82549547Y-84857836D01*
X82551438Y-84917986D01*
X82551500Y-84921945D01*
X82551500Y-84949856D01*
X82551997Y-84953790D01*
X82551997Y-84953791D01*
X82552005Y-84953856D01*
X82552938Y-84965693D01*
X82554327Y-85009889D01*
X82559978Y-85029339D01*
X82563987Y-85048700D01*
X82566526Y-85068797D01*
X82569445Y-85076168D01*
X82569445Y-85076170D01*
X82582804Y-85109912D01*
X82586649Y-85121142D01*
X82598982Y-85163593D01*
X82603015Y-85170412D01*
X82603017Y-85170417D01*
X82609293Y-85181028D01*
X82617988Y-85198776D01*
X82625448Y-85217617D01*
X82630110Y-85224033D01*
X82630110Y-85224034D01*
X82651436Y-85253387D01*
X82657952Y-85263307D01*
X82672420Y-85287770D01*
X82680458Y-85301362D01*
X82694779Y-85315683D01*
X82707619Y-85330716D01*
X82719528Y-85347107D01*
X82725634Y-85352158D01*
X82753605Y-85375298D01*
X82762384Y-85383288D01*
X83250501Y-85871405D01*
X83284527Y-85933717D01*
X83279462Y-86004532D01*
X83236915Y-86061368D01*
X83170395Y-86086179D01*
X83161406Y-86086500D01*
X83089513Y-86086500D01*
X83083061Y-86087872D01*
X83083056Y-86087872D01*
X82996112Y-86106353D01*
X82902712Y-86126206D01*
X82896682Y-86128891D01*
X82896681Y-86128891D01*
X82734278Y-86201197D01*
X82734276Y-86201198D01*
X82728248Y-86203882D01*
X82573747Y-86316134D01*
X82569326Y-86321044D01*
X82569325Y-86321045D01*
X82535601Y-86358500D01*
X82445960Y-86458056D01*
X82350473Y-86623444D01*
X82291458Y-86805072D01*
X82271496Y-86995000D01*
X82291458Y-87184928D01*
X82350473Y-87366556D01*
X82445960Y-87531944D01*
X82450378Y-87536851D01*
X82450379Y-87536852D01*
X82482077Y-87572056D01*
X82573747Y-87673866D01*
X82605694Y-87697077D01*
X82714347Y-87776018D01*
X82728248Y-87786118D01*
X82734276Y-87788802D01*
X82734278Y-87788803D01*
X82797689Y-87817035D01*
X82851785Y-87863015D01*
X82872434Y-87930942D01*
X82853082Y-87999250D01*
X82847266Y-88007707D01*
X82831339Y-88028958D01*
X82764385Y-88118295D01*
X82713255Y-88254684D01*
X82706500Y-88316866D01*
X82706500Y-88555500D01*
X82686498Y-88623621D01*
X82632842Y-88670114D01*
X82580500Y-88681500D01*
X81442070Y-88681500D01*
X81423120Y-88680067D01*
X81408885Y-88677901D01*
X81408881Y-88677901D01*
X81401651Y-88676801D01*
X81394359Y-88677394D01*
X81394356Y-88677394D01*
X81348982Y-88681085D01*
X81338767Y-88681500D01*
X81330707Y-88681500D01*
X81327073Y-88681924D01*
X81327067Y-88681924D01*
X81314042Y-88683443D01*
X81302480Y-88684791D01*
X81298132Y-88685221D01*
X81225364Y-88691140D01*
X81218403Y-88693395D01*
X81212463Y-88694582D01*
X81206588Y-88695971D01*
X81199319Y-88696818D01*
X81130670Y-88721736D01*
X81126542Y-88723153D01*
X81064064Y-88743393D01*
X81064062Y-88743394D01*
X81057101Y-88745649D01*
X81050846Y-88749445D01*
X81045372Y-88751951D01*
X81039942Y-88754670D01*
X81033063Y-88757167D01*
X81026943Y-88761180D01*
X81026942Y-88761180D01*
X80972024Y-88797186D01*
X80968320Y-88799523D01*
X80905893Y-88837405D01*
X80897516Y-88844803D01*
X80897492Y-88844776D01*
X80894500Y-88847429D01*
X80891267Y-88850132D01*
X80885148Y-88854144D01*
X80850815Y-88890386D01*
X80831872Y-88910383D01*
X80829494Y-88912825D01*
X80567724Y-89174595D01*
X80505412Y-89208621D01*
X80478629Y-89211500D01*
X80346268Y-89211500D01*
X80343022Y-89211837D01*
X80343018Y-89211837D01*
X80308917Y-89215375D01*
X80243981Y-89222113D01*
X80237440Y-89224295D01*
X80237441Y-89224295D01*
X80088676Y-89273927D01*
X80088674Y-89273928D01*
X80081732Y-89276244D01*
X79936287Y-89366248D01*
X79931113Y-89371431D01*
X79928029Y-89374520D01*
X79925401Y-89375958D01*
X79925377Y-89375977D01*
X79925374Y-89375973D01*
X79865746Y-89408598D01*
X79838858Y-89411500D01*
X79282587Y-89411500D01*
X79208528Y-89387437D01*
X79202098Y-89382765D01*
X79202091Y-89382761D01*
X79196752Y-89378882D01*
X79190724Y-89376198D01*
X79190722Y-89376197D01*
X79028319Y-89303891D01*
X79028318Y-89303891D01*
X79022288Y-89301206D01*
X78904852Y-89276244D01*
X78841944Y-89262872D01*
X78841939Y-89262872D01*
X78835487Y-89261500D01*
X78644513Y-89261500D01*
X78638061Y-89262872D01*
X78638056Y-89262872D01*
X78575148Y-89276244D01*
X78457712Y-89301206D01*
X78451682Y-89303891D01*
X78451681Y-89303891D01*
X78289278Y-89376197D01*
X78289276Y-89376198D01*
X78283248Y-89378882D01*
X78277907Y-89382762D01*
X78277906Y-89382763D01*
X78271473Y-89387437D01*
X78128747Y-89491134D01*
X78000960Y-89633056D01*
X77905473Y-89798444D01*
X77846458Y-89980072D01*
X77845768Y-89986633D01*
X77845768Y-89986635D01*
X77839739Y-90044000D01*
X77826496Y-90170000D01*
X77827186Y-90176565D01*
X77843345Y-90330306D01*
X77846458Y-90359928D01*
X77905473Y-90541556D01*
X78000960Y-90706944D01*
X78005378Y-90711851D01*
X78005379Y-90711852D01*
X78089744Y-90805549D01*
X78128747Y-90848866D01*
X78184997Y-90889734D01*
X78277904Y-90957235D01*
X78283248Y-90961118D01*
X78289276Y-90963802D01*
X78289278Y-90963803D01*
X78423361Y-91023500D01*
X78457712Y-91038794D01*
X78541012Y-91056500D01*
X78638056Y-91077128D01*
X78638061Y-91077128D01*
X78644513Y-91078500D01*
X78835487Y-91078500D01*
X78841939Y-91077128D01*
X78841944Y-91077128D01*
X78938988Y-91056500D01*
X79022288Y-91038794D01*
X79056639Y-91023500D01*
X79190722Y-90963803D01*
X79190724Y-90963802D01*
X79196752Y-90961118D01*
X79202091Y-90957239D01*
X79202098Y-90957235D01*
X79208528Y-90952563D01*
X79282587Y-90928500D01*
X79839039Y-90928500D01*
X79907160Y-90948502D01*
X79928057Y-90965327D01*
X79937298Y-90974552D01*
X79943528Y-90978392D01*
X79943529Y-90978393D01*
X80070242Y-91056500D01*
X80082899Y-91064302D01*
X80245243Y-91118149D01*
X80252080Y-91118849D01*
X80252082Y-91118850D01*
X80293401Y-91123083D01*
X80346268Y-91128500D01*
X80943732Y-91128500D01*
X80946978Y-91128163D01*
X80946982Y-91128163D01*
X80981083Y-91124625D01*
X81046019Y-91117887D01*
X81138577Y-91087007D01*
X81201324Y-91066073D01*
X81201326Y-91066072D01*
X81208268Y-91063756D01*
X81353713Y-90973752D01*
X81474552Y-90852702D01*
X81501971Y-90808220D01*
X81560462Y-90713331D01*
X81560463Y-90713329D01*
X81564302Y-90707101D01*
X81618149Y-90544757D01*
X81628500Y-90443732D01*
X81628500Y-90324500D01*
X81648502Y-90256379D01*
X81702158Y-90209886D01*
X81754500Y-90198500D01*
X82580500Y-90198500D01*
X82648621Y-90218502D01*
X82695114Y-90272158D01*
X82706500Y-90324500D01*
X82706500Y-90563134D01*
X82706869Y-90566531D01*
X82713255Y-90625316D01*
X82710826Y-90625580D01*
X82710826Y-90654420D01*
X82713255Y-90654684D01*
X82706500Y-90716866D01*
X82706500Y-91363134D01*
X82713255Y-91425316D01*
X82764385Y-91561705D01*
X82851739Y-91678261D01*
X82858919Y-91683642D01*
X82933015Y-91739174D01*
X82975530Y-91796033D01*
X82980556Y-91866852D01*
X82946496Y-91929145D01*
X82933016Y-91940825D01*
X82851739Y-92001739D01*
X82764385Y-92118295D01*
X82713255Y-92254684D01*
X82706500Y-92316866D01*
X82706500Y-92963134D01*
X82706869Y-92966531D01*
X82713255Y-93025316D01*
X82710826Y-93025580D01*
X82710826Y-93054420D01*
X82713255Y-93054684D01*
X82706500Y-93116866D01*
X82706500Y-93763134D01*
X82706869Y-93766531D01*
X82713255Y-93825316D01*
X82710826Y-93825580D01*
X82710826Y-93854420D01*
X82713255Y-93854684D01*
X82706500Y-93916866D01*
X82706500Y-94563134D01*
X82713255Y-94625316D01*
X82764385Y-94761705D01*
X82851739Y-94878261D01*
X82968295Y-94965615D01*
X83104684Y-95016745D01*
X83166866Y-95023500D01*
X84555500Y-95023500D01*
X84623621Y-95043502D01*
X84670114Y-95097158D01*
X84681500Y-95149500D01*
X84681500Y-96538134D01*
X84688255Y-96600316D01*
X84739385Y-96736705D01*
X84744771Y-96743891D01*
X84806326Y-96826024D01*
X84831174Y-96892530D01*
X84831500Y-96901589D01*
X84831500Y-97168463D01*
X84830973Y-97179646D01*
X84829298Y-97187139D01*
X84829547Y-97195065D01*
X84829547Y-97195066D01*
X84831438Y-97255216D01*
X84831500Y-97259175D01*
X84831500Y-97287086D01*
X84831997Y-97291020D01*
X84831997Y-97291021D01*
X84832005Y-97291086D01*
X84832938Y-97302923D01*
X84834327Y-97347119D01*
X84837635Y-97358505D01*
X84839978Y-97366569D01*
X84843987Y-97385930D01*
X84846526Y-97406027D01*
X84849445Y-97413398D01*
X84849445Y-97413400D01*
X84862804Y-97447142D01*
X84866649Y-97458372D01*
X84878982Y-97500823D01*
X84883015Y-97507642D01*
X84883017Y-97507647D01*
X84889293Y-97518258D01*
X84897988Y-97536006D01*
X84905448Y-97554847D01*
X84910110Y-97561263D01*
X84910110Y-97561264D01*
X84931436Y-97590617D01*
X84937952Y-97600537D01*
X84956085Y-97631197D01*
X84960458Y-97638592D01*
X84974779Y-97652913D01*
X84987619Y-97667946D01*
X84999528Y-97684337D01*
X85005634Y-97689388D01*
X85033605Y-97712528D01*
X85042384Y-97720518D01*
X88246973Y-100925107D01*
X88254517Y-100933397D01*
X88258630Y-100939878D01*
X88264407Y-100945303D01*
X88308297Y-100986518D01*
X88311139Y-100989273D01*
X88330861Y-101008995D01*
X88333985Y-101011418D01*
X88333989Y-101011422D01*
X88334054Y-101011472D01*
X88343075Y-101019177D01*
X88375309Y-101049446D01*
X88382257Y-101053265D01*
X88382259Y-101053267D01*
X88393062Y-101059206D01*
X88409589Y-101070062D01*
X88419328Y-101077617D01*
X88419330Y-101077618D01*
X88425590Y-101082474D01*
X88466170Y-101100034D01*
X88476818Y-101105251D01*
X88501606Y-101118878D01*
X88515570Y-101126555D01*
X88523246Y-101128526D01*
X88523249Y-101128527D01*
X88535192Y-101131593D01*
X88553897Y-101137997D01*
X88572485Y-101146041D01*
X88580308Y-101147280D01*
X88580318Y-101147283D01*
X88616154Y-101152959D01*
X88627774Y-101155365D01*
X88659589Y-101163533D01*
X88670600Y-101166360D01*
X88690854Y-101166360D01*
X88710564Y-101167911D01*
X88730573Y-101171080D01*
X88738465Y-101170334D01*
X88757210Y-101168562D01*
X88774592Y-101166919D01*
X88786449Y-101166360D01*
X103252093Y-101166360D01*
X103263276Y-101166887D01*
X103270769Y-101168562D01*
X103278695Y-101168313D01*
X103278696Y-101168313D01*
X103338846Y-101166422D01*
X103342805Y-101166360D01*
X103370716Y-101166360D01*
X103374651Y-101165863D01*
X103374716Y-101165855D01*
X103386553Y-101164922D01*
X103418811Y-101163908D01*
X103422830Y-101163782D01*
X103430749Y-101163533D01*
X103450203Y-101157881D01*
X103469560Y-101153873D01*
X103481790Y-101152328D01*
X103481791Y-101152328D01*
X103489657Y-101151334D01*
X103497028Y-101148415D01*
X103497030Y-101148415D01*
X103530772Y-101135056D01*
X103542002Y-101131211D01*
X103576843Y-101121089D01*
X103576844Y-101121089D01*
X103584453Y-101118878D01*
X103591272Y-101114845D01*
X103591277Y-101114843D01*
X103601888Y-101108567D01*
X103619636Y-101099872D01*
X103638477Y-101092412D01*
X103674247Y-101066424D01*
X103684167Y-101059908D01*
X103715395Y-101041440D01*
X103715398Y-101041438D01*
X103722222Y-101037402D01*
X103736543Y-101023081D01*
X103751577Y-101010240D01*
X103753291Y-101008995D01*
X103767967Y-100998332D01*
X103773018Y-100992227D01*
X103773023Y-100992222D01*
X103796159Y-100964256D01*
X103804147Y-100955478D01*
X104532253Y-100227372D01*
X104540539Y-100219832D01*
X104547018Y-100215720D01*
X104593644Y-100166068D01*
X104596398Y-100163227D01*
X104616135Y-100143490D01*
X104618615Y-100140293D01*
X104626320Y-100131271D01*
X104651159Y-100104820D01*
X104656586Y-100099041D01*
X104660405Y-100092095D01*
X104660407Y-100092092D01*
X104666348Y-100081286D01*
X104677199Y-100064767D01*
X104684758Y-100055021D01*
X104689614Y-100048761D01*
X104692759Y-100041492D01*
X104692762Y-100041488D01*
X104707174Y-100008183D01*
X104712391Y-99997533D01*
X104733695Y-99958780D01*
X104738733Y-99939157D01*
X104745137Y-99920454D01*
X104750033Y-99909140D01*
X104750033Y-99909139D01*
X104753181Y-99901865D01*
X104754420Y-99894042D01*
X104754423Y-99894032D01*
X104760099Y-99858196D01*
X104762505Y-99846576D01*
X104771528Y-99811431D01*
X104771528Y-99811430D01*
X104773500Y-99803750D01*
X104773500Y-99783496D01*
X104775051Y-99763785D01*
X104778220Y-99743777D01*
X104780408Y-99744123D01*
X104799009Y-99687426D01*
X104809173Y-99674539D01*
X104879040Y-99596944D01*
X104974527Y-99431556D01*
X105033542Y-99249928D01*
X105053504Y-99060000D01*
X105033542Y-98870072D01*
X104974527Y-98688444D01*
X104879040Y-98523056D01*
X104839909Y-98479596D01*
X104755675Y-98386045D01*
X104755674Y-98386044D01*
X104751253Y-98381134D01*
X104597764Y-98269617D01*
X104554410Y-98213394D01*
X104548335Y-98142658D01*
X104582730Y-98078586D01*
X107522263Y-95139054D01*
X107530549Y-95131514D01*
X107537028Y-95127402D01*
X107583654Y-95077750D01*
X107586408Y-95074909D01*
X107606145Y-95055172D01*
X107608625Y-95051975D01*
X107616330Y-95042953D01*
X107630912Y-95027425D01*
X107646596Y-95010723D01*
X107650415Y-95003777D01*
X107650417Y-95003774D01*
X107656358Y-94992968D01*
X107667209Y-94976449D01*
X107667569Y-94975985D01*
X107679624Y-94960443D01*
X107682769Y-94953174D01*
X107682772Y-94953170D01*
X107697184Y-94919865D01*
X107702401Y-94909215D01*
X107723705Y-94870462D01*
X107728743Y-94850839D01*
X107735147Y-94832136D01*
X107740043Y-94820822D01*
X107740043Y-94820821D01*
X107743191Y-94813547D01*
X107744430Y-94805724D01*
X107744433Y-94805714D01*
X107750109Y-94769878D01*
X107752515Y-94758258D01*
X107761538Y-94723113D01*
X107761538Y-94723112D01*
X107763510Y-94715432D01*
X107763510Y-94695178D01*
X107765061Y-94675467D01*
X107766990Y-94663288D01*
X107768230Y-94655459D01*
X107764069Y-94611440D01*
X107763510Y-94599583D01*
X107763510Y-66568777D01*
X107764037Y-66557594D01*
X107765712Y-66550101D01*
X107763572Y-66482024D01*
X107763510Y-66478065D01*
X107763510Y-66450154D01*
X107763005Y-66446154D01*
X107762072Y-66434311D01*
X107760932Y-66398040D01*
X107760683Y-66390121D01*
X107755031Y-66370667D01*
X107751023Y-66351310D01*
X107749478Y-66339080D01*
X107749478Y-66339079D01*
X107748484Y-66331213D01*
X107745565Y-66323840D01*
X107732206Y-66290098D01*
X107728361Y-66278868D01*
X107718239Y-66244027D01*
X107718239Y-66244026D01*
X107716028Y-66236417D01*
X107711995Y-66229598D01*
X107711993Y-66229593D01*
X107705717Y-66218982D01*
X107697022Y-66201234D01*
X107689562Y-66182393D01*
X107663574Y-66146623D01*
X107657058Y-66136703D01*
X107638590Y-66105475D01*
X107638588Y-66105472D01*
X107634552Y-66098648D01*
X107620231Y-66084327D01*
X107607390Y-66069293D01*
X107601960Y-66061819D01*
X107595482Y-66052903D01*
X107561405Y-66024712D01*
X107552626Y-66016722D01*
X106126218Y-64590313D01*
X106092192Y-64528001D01*
X106094755Y-64464589D01*
X106105865Y-64428022D01*
X106107370Y-64423069D01*
X106136529Y-64201590D01*
X106136611Y-64198240D01*
X106138074Y-64138365D01*
X106138074Y-64138361D01*
X106138156Y-64135000D01*
X106119852Y-63912361D01*
X106065431Y-63695702D01*
X105976354Y-63490840D01*
X105913233Y-63393270D01*
X105857822Y-63307617D01*
X105857820Y-63307614D01*
X105855014Y-63303277D01*
X105704670Y-63138051D01*
X105700619Y-63134852D01*
X105700615Y-63134848D01*
X105533414Y-63002800D01*
X105533410Y-63002798D01*
X105529359Y-62999598D01*
X105488053Y-62976796D01*
X105438084Y-62926364D01*
X105423312Y-62856921D01*
X105448428Y-62790516D01*
X105475780Y-62763909D01*
X105519603Y-62732650D01*
X105654860Y-62636173D01*
X105704011Y-62587194D01*
X105774685Y-62516766D01*
X105813096Y-62478489D01*
X105872594Y-62395689D01*
X105940435Y-62301277D01*
X105943453Y-62297077D01*
X105971377Y-62240578D01*
X106040136Y-62101453D01*
X106040137Y-62101451D01*
X106042430Y-62096811D01*
X106107370Y-61883069D01*
X106136529Y-61661590D01*
X106138156Y-61595000D01*
X106119852Y-61372361D01*
X106065431Y-61155702D01*
X105976354Y-60950840D01*
X105936906Y-60889862D01*
X105857822Y-60767617D01*
X105857820Y-60767614D01*
X105855014Y-60763277D01*
X105704670Y-60598051D01*
X105700619Y-60594852D01*
X105700615Y-60594848D01*
X105533414Y-60462800D01*
X105533410Y-60462798D01*
X105529359Y-60459598D01*
X105333789Y-60351638D01*
X105328920Y-60349914D01*
X105328916Y-60349912D01*
X105128087Y-60278795D01*
X105128083Y-60278794D01*
X105123212Y-60277069D01*
X105118119Y-60276162D01*
X105118116Y-60276161D01*
X104908373Y-60238800D01*
X104908367Y-60238799D01*
X104903284Y-60237894D01*
X104829452Y-60236992D01*
X104685081Y-60235228D01*
X104685079Y-60235228D01*
X104679911Y-60235165D01*
X104459091Y-60268955D01*
X104246756Y-60338357D01*
X104048607Y-60441507D01*
X104044474Y-60444610D01*
X104044471Y-60444612D01*
X103874100Y-60572530D01*
X103869965Y-60575635D01*
X103715629Y-60737138D01*
X103712715Y-60741410D01*
X103712714Y-60741411D01*
X103687018Y-60779080D01*
X103589743Y-60921680D01*
X103495688Y-61124305D01*
X103435989Y-61339570D01*
X103412251Y-61561695D01*
X103412548Y-61566848D01*
X103412548Y-61566851D01*
X103423135Y-61750458D01*
X103425110Y-61784715D01*
X103426247Y-61789761D01*
X103426248Y-61789767D01*
X103441048Y-61855437D01*
X103474222Y-62002639D01*
X103514346Y-62101453D01*
X103555651Y-62203175D01*
X103558266Y-62209616D01*
X103593249Y-62266703D01*
X103651709Y-62362101D01*
X103674987Y-62400088D01*
X103821250Y-62568938D01*
X103993126Y-62711632D01*
X104039295Y-62738611D01*
X104066445Y-62754476D01*
X104115169Y-62806114D01*
X104128240Y-62875897D01*
X104101509Y-62941669D01*
X104061055Y-62975027D01*
X104048607Y-62981507D01*
X104044474Y-62984610D01*
X104044471Y-62984612D01*
X103886147Y-63103485D01*
X103869965Y-63115635D01*
X103715629Y-63277138D01*
X103589743Y-63461680D01*
X103495688Y-63664305D01*
X103435989Y-63879570D01*
X103412251Y-64101695D01*
X103412548Y-64106848D01*
X103412548Y-64106851D01*
X103424812Y-64319547D01*
X103425110Y-64324715D01*
X103426247Y-64329761D01*
X103426248Y-64329767D01*
X103441592Y-64397849D01*
X103474222Y-64542639D01*
X103515712Y-64644817D01*
X103555582Y-64743005D01*
X103558266Y-64749616D01*
X103674987Y-64940088D01*
X103821250Y-65108938D01*
X103993126Y-65251632D01*
X104063595Y-65292811D01*
X104066445Y-65294476D01*
X104115169Y-65346114D01*
X104128240Y-65415897D01*
X104101509Y-65481669D01*
X104061055Y-65515027D01*
X104048607Y-65521507D01*
X104044474Y-65524610D01*
X104044471Y-65524612D01*
X103874100Y-65652530D01*
X103869965Y-65655635D01*
X103715629Y-65817138D01*
X103589743Y-66001680D01*
X103551380Y-66084327D01*
X103502438Y-66189764D01*
X103495688Y-66204305D01*
X103435989Y-66419570D01*
X103412251Y-66641695D01*
X103412548Y-66646848D01*
X103412548Y-66646851D01*
X103418011Y-66741590D01*
X103425110Y-66864715D01*
X103426247Y-66869761D01*
X103426248Y-66869767D01*
X103446119Y-66957939D01*
X103474222Y-67082639D01*
X103558266Y-67289616D01*
X103674987Y-67480088D01*
X103821250Y-67648938D01*
X103993126Y-67791632D01*
X104186000Y-67904338D01*
X104394692Y-67984030D01*
X104399760Y-67985061D01*
X104399763Y-67985062D01*
X104507017Y-68006883D01*
X104613597Y-68028567D01*
X104618772Y-68028757D01*
X104618774Y-68028757D01*
X104831673Y-68036564D01*
X104831677Y-68036564D01*
X104836837Y-68036753D01*
X104841957Y-68036097D01*
X104841959Y-68036097D01*
X105053288Y-68009025D01*
X105053289Y-68009025D01*
X105058416Y-68008368D01*
X105104827Y-67994444D01*
X105175823Y-67994028D01*
X105230131Y-68026035D01*
X106009596Y-68805501D01*
X106043621Y-68867813D01*
X106046500Y-68894596D01*
X106046500Y-75418902D01*
X106026498Y-75487023D01*
X105972842Y-75533516D01*
X105902568Y-75543620D01*
X105872057Y-75533446D01*
X105871705Y-75534385D01*
X105735316Y-75483255D01*
X105673134Y-75476500D01*
X103876866Y-75476500D01*
X103814684Y-75483255D01*
X103678295Y-75534385D01*
X103561739Y-75621739D01*
X103474385Y-75738295D01*
X103423255Y-75874684D01*
X103416500Y-75936866D01*
X103416500Y-77245405D01*
X103396498Y-77313526D01*
X103379595Y-77334500D01*
X101842747Y-78871348D01*
X101834461Y-78878888D01*
X101827982Y-78883000D01*
X101822557Y-78888777D01*
X101781357Y-78932651D01*
X101778602Y-78935493D01*
X101758865Y-78955230D01*
X101756385Y-78958427D01*
X101748682Y-78967447D01*
X101718414Y-78999679D01*
X101714595Y-79006625D01*
X101714593Y-79006628D01*
X101708652Y-79017434D01*
X101697801Y-79033953D01*
X101685386Y-79049959D01*
X101682241Y-79057228D01*
X101682238Y-79057232D01*
X101667826Y-79090537D01*
X101662609Y-79101187D01*
X101641305Y-79139940D01*
X101639334Y-79147615D01*
X101639334Y-79147616D01*
X101636267Y-79159562D01*
X101629863Y-79178266D01*
X101621819Y-79196855D01*
X101620580Y-79204678D01*
X101620577Y-79204688D01*
X101614901Y-79240524D01*
X101612495Y-79252144D01*
X101606133Y-79276924D01*
X101601500Y-79294970D01*
X101601500Y-79315224D01*
X101599949Y-79334934D01*
X101596780Y-79354943D01*
X101597526Y-79362835D01*
X101600941Y-79398961D01*
X101601500Y-79410819D01*
X101601500Y-82233996D01*
X101581498Y-82302117D01*
X101564595Y-82323091D01*
X99283100Y-84604585D01*
X99220788Y-84638611D01*
X99194005Y-84641490D01*
X91819371Y-84641491D01*
X90572367Y-84641491D01*
X90561182Y-84640964D01*
X90553784Y-84639310D01*
X90491084Y-84614280D01*
X90449845Y-84556488D01*
X90443565Y-84501990D01*
X90447814Y-84461564D01*
X90448504Y-84455000D01*
X90428542Y-84265072D01*
X90369527Y-84083444D01*
X90364668Y-84075027D01*
X90277341Y-83923774D01*
X90274040Y-83918056D01*
X90177503Y-83810840D01*
X90150675Y-83781045D01*
X90150674Y-83781044D01*
X90146253Y-83776134D01*
X89991752Y-83663882D01*
X89985724Y-83661198D01*
X89985722Y-83661197D01*
X89823319Y-83588891D01*
X89823318Y-83588891D01*
X89817288Y-83586206D01*
X89723888Y-83566353D01*
X89636944Y-83547872D01*
X89636939Y-83547872D01*
X89630487Y-83546500D01*
X89439513Y-83546500D01*
X89433061Y-83547872D01*
X89433056Y-83547872D01*
X89346112Y-83566353D01*
X89252712Y-83586206D01*
X89246682Y-83588891D01*
X89246681Y-83588891D01*
X89084278Y-83661197D01*
X89084276Y-83661198D01*
X89078248Y-83663882D01*
X88923747Y-83776134D01*
X88919326Y-83781044D01*
X88919325Y-83781045D01*
X88892498Y-83810840D01*
X88795960Y-83918056D01*
X88792659Y-83923774D01*
X88733619Y-84026034D01*
X88682237Y-84075027D01*
X88612523Y-84088463D01*
X88546612Y-84062077D01*
X88505430Y-84004245D01*
X88498500Y-83963034D01*
X88498500Y-81771966D01*
X88518502Y-81703845D01*
X88572158Y-81657352D01*
X88642432Y-81647248D01*
X88707012Y-81676742D01*
X88733618Y-81708965D01*
X88795960Y-81816944D01*
X88923747Y-81958866D01*
X89078248Y-82071118D01*
X89084276Y-82073802D01*
X89084278Y-82073803D01*
X89246681Y-82146109D01*
X89252712Y-82148794D01*
X89346112Y-82168647D01*
X89433056Y-82187128D01*
X89433061Y-82187128D01*
X89439513Y-82188500D01*
X89630487Y-82188500D01*
X89636939Y-82187128D01*
X89636944Y-82187128D01*
X89723888Y-82168647D01*
X89817288Y-82148794D01*
X89823319Y-82146109D01*
X89985722Y-82073803D01*
X89985724Y-82073802D01*
X89991752Y-82071118D01*
X90146253Y-81958866D01*
X90274040Y-81816944D01*
X90369527Y-81651556D01*
X90428542Y-81469928D01*
X90448504Y-81280000D01*
X90428542Y-81090072D01*
X90369527Y-80908444D01*
X90364668Y-80900027D01*
X90296986Y-80782800D01*
X90274040Y-80743056D01*
X90200863Y-80661785D01*
X90170147Y-80597779D01*
X90168500Y-80577476D01*
X90168500Y-70560948D01*
X90169027Y-70549765D01*
X90170702Y-70542272D01*
X90168562Y-70474181D01*
X90168500Y-70470224D01*
X90168500Y-70442324D01*
X90167996Y-70438333D01*
X90167063Y-70426491D01*
X90165923Y-70390216D01*
X90165674Y-70382291D01*
X90160021Y-70362832D01*
X90156012Y-70343473D01*
X90155846Y-70342163D01*
X90153474Y-70323383D01*
X90150558Y-70316017D01*
X90150556Y-70316011D01*
X90137200Y-70282278D01*
X90133355Y-70271048D01*
X90123230Y-70236197D01*
X90123230Y-70236196D01*
X90121019Y-70228587D01*
X90110705Y-70211146D01*
X90102008Y-70193393D01*
X90097472Y-70181938D01*
X90094552Y-70174563D01*
X90068563Y-70138792D01*
X90062047Y-70128872D01*
X90043578Y-70097643D01*
X90039542Y-70090818D01*
X90025221Y-70076497D01*
X90012380Y-70061463D01*
X90005131Y-70051486D01*
X90000472Y-70045073D01*
X89966395Y-70016882D01*
X89957616Y-70008892D01*
X86231472Y-66282747D01*
X86223932Y-66274461D01*
X86219820Y-66267982D01*
X86170168Y-66221356D01*
X86167327Y-66218602D01*
X86147590Y-66198865D01*
X86144393Y-66196385D01*
X86135371Y-66188680D01*
X86108920Y-66163841D01*
X86103141Y-66158414D01*
X86096195Y-66154595D01*
X86096192Y-66154593D01*
X86085386Y-66148652D01*
X86068867Y-66137801D01*
X86067451Y-66136703D01*
X86052861Y-66125386D01*
X86045592Y-66122241D01*
X86045588Y-66122238D01*
X86012283Y-66107826D01*
X86001633Y-66102609D01*
X85962880Y-66081305D01*
X85943257Y-66076267D01*
X85924554Y-66069863D01*
X85913240Y-66064967D01*
X85913239Y-66064967D01*
X85905965Y-66061819D01*
X85898142Y-66060580D01*
X85898132Y-66060577D01*
X85862296Y-66054901D01*
X85850676Y-66052495D01*
X85815531Y-66043472D01*
X85815530Y-66043472D01*
X85807850Y-66041500D01*
X85787596Y-66041500D01*
X85767885Y-66039949D01*
X85755706Y-66038020D01*
X85747877Y-66036780D01*
X85739985Y-66037526D01*
X85703859Y-66040941D01*
X85692001Y-66041500D01*
X68259594Y-66041500D01*
X68191473Y-66021498D01*
X68170499Y-66004595D01*
X66121218Y-63955313D01*
X66087192Y-63893001D01*
X66089755Y-63829589D01*
X66100865Y-63793022D01*
X66102370Y-63788069D01*
X66131529Y-63566590D01*
X66133156Y-63500000D01*
X66114852Y-63277361D01*
X66060431Y-63060702D01*
X65971354Y-62855840D01*
X65850014Y-62668277D01*
X65794624Y-62607404D01*
X77346941Y-62607404D01*
X77347304Y-62611552D01*
X77347304Y-62611556D01*
X77359590Y-62751978D01*
X77373091Y-62906292D01*
X77374001Y-62910364D01*
X77374002Y-62910369D01*
X77437628Y-63195016D01*
X77438540Y-63199095D01*
X77542140Y-63480671D01*
X77544084Y-63484359D01*
X77544088Y-63484367D01*
X77658158Y-63700720D01*
X77682069Y-63746071D01*
X77855871Y-63990633D01*
X78060490Y-64210061D01*
X78292333Y-64400498D01*
X78547325Y-64558600D01*
X78820988Y-64681589D01*
X78995368Y-64733574D01*
X79104514Y-64766112D01*
X79104516Y-64766112D01*
X79108513Y-64767304D01*
X79112633Y-64767957D01*
X79112635Y-64767957D01*
X79231509Y-64786785D01*
X79404848Y-64814239D01*
X79447577Y-64816179D01*
X79497262Y-64818436D01*
X79497281Y-64818436D01*
X79498681Y-64818500D01*
X79686107Y-64818500D01*
X79909370Y-64803671D01*
X79913464Y-64802846D01*
X79913468Y-64802845D01*
X80054513Y-64774405D01*
X80203480Y-64744368D01*
X80487163Y-64646688D01*
X80490896Y-64644819D01*
X80490900Y-64644817D01*
X80751691Y-64514222D01*
X80751693Y-64514221D01*
X80755435Y-64512347D01*
X81003584Y-64343706D01*
X81227248Y-64143726D01*
X81263273Y-64101695D01*
X81419779Y-63919097D01*
X81419782Y-63919093D01*
X81422499Y-63915923D01*
X81424773Y-63912421D01*
X81424777Y-63912416D01*
X81583628Y-63667807D01*
X81583631Y-63667802D01*
X81585907Y-63664297D01*
X81714600Y-63393270D01*
X81742101Y-63307617D01*
X81805038Y-63111591D01*
X81805038Y-63111590D01*
X81806318Y-63107604D01*
X81826200Y-62997104D01*
X81858709Y-62816425D01*
X81858710Y-62816420D01*
X81859448Y-62812316D01*
X81861647Y-62763909D01*
X81872870Y-62516766D01*
X81872870Y-62516760D01*
X81873059Y-62512596D01*
X81865091Y-62421517D01*
X81854203Y-62297077D01*
X81846909Y-62213708D01*
X81845995Y-62209616D01*
X81782372Y-61924984D01*
X81782371Y-61924981D01*
X81781460Y-61920905D01*
X81769728Y-61889017D01*
X81733894Y-61791626D01*
X81677860Y-61639329D01*
X81675916Y-61635641D01*
X81675912Y-61635633D01*
X81539884Y-61377633D01*
X81539883Y-61377632D01*
X81537931Y-61373929D01*
X81364129Y-61129367D01*
X81159510Y-60909939D01*
X80927667Y-60719502D01*
X80672675Y-60561400D01*
X80399012Y-60438411D01*
X80116321Y-60354137D01*
X80115486Y-60353888D01*
X80115484Y-60353888D01*
X80111487Y-60352696D01*
X80107367Y-60352043D01*
X80107365Y-60352043D01*
X79908778Y-60320590D01*
X79815152Y-60305761D01*
X79772423Y-60303821D01*
X79722738Y-60301564D01*
X79722719Y-60301564D01*
X79721319Y-60301500D01*
X79533893Y-60301500D01*
X79310630Y-60316329D01*
X79306536Y-60317154D01*
X79306532Y-60317155D01*
X79209353Y-60336750D01*
X79016520Y-60375632D01*
X78732837Y-60473312D01*
X78729104Y-60475181D01*
X78729100Y-60475183D01*
X78476113Y-60601870D01*
X78464565Y-60607653D01*
X78461100Y-60610008D01*
X78274033Y-60737138D01*
X78216416Y-60776294D01*
X77992752Y-60976274D01*
X77990035Y-60979444D01*
X77990034Y-60979445D01*
X77839765Y-61154767D01*
X77797501Y-61204077D01*
X77795227Y-61207579D01*
X77795223Y-61207584D01*
X77639303Y-61447680D01*
X77634093Y-61455703D01*
X77505400Y-61726730D01*
X77504121Y-61730713D01*
X77504120Y-61730716D01*
X77467036Y-61846219D01*
X77413682Y-62012396D01*
X77400576Y-62085238D01*
X77361661Y-62301522D01*
X77360552Y-62307684D01*
X77360363Y-62311851D01*
X77360362Y-62311858D01*
X77347130Y-62603234D01*
X77346941Y-62607404D01*
X65794624Y-62607404D01*
X65699670Y-62503051D01*
X65695619Y-62499852D01*
X65695615Y-62499848D01*
X65528414Y-62367800D01*
X65528410Y-62367798D01*
X65524359Y-62364598D01*
X65498533Y-62350341D01*
X65421259Y-62307684D01*
X65328789Y-62256638D01*
X65323920Y-62254914D01*
X65323916Y-62254912D01*
X65123087Y-62183795D01*
X65123083Y-62183794D01*
X65118212Y-62182069D01*
X65113119Y-62181162D01*
X65113116Y-62181161D01*
X64903373Y-62143800D01*
X64903367Y-62143799D01*
X64898284Y-62142894D01*
X64824452Y-62141992D01*
X64680081Y-62140228D01*
X64680079Y-62140228D01*
X64674911Y-62140165D01*
X64454091Y-62173955D01*
X64241756Y-62243357D01*
X64223248Y-62252992D01*
X64153591Y-62266703D01*
X64087576Y-62240578D01*
X64046165Y-62182909D01*
X64039133Y-62145182D01*
X64039087Y-62143699D01*
X64038563Y-62127031D01*
X64038501Y-62123076D01*
X64038501Y-62095145D01*
X64037995Y-62091139D01*
X64037062Y-62079293D01*
X64037061Y-62079242D01*
X64035674Y-62035111D01*
X64030023Y-62015659D01*
X64026015Y-61996307D01*
X64024468Y-61984064D01*
X64023475Y-61976204D01*
X64020557Y-61968833D01*
X64007201Y-61935098D01*
X64003356Y-61923871D01*
X64001354Y-61916980D01*
X63991019Y-61881408D01*
X63986985Y-61874586D01*
X63986982Y-61874580D01*
X63980707Y-61863969D01*
X63972011Y-61846219D01*
X63967473Y-61834757D01*
X63967470Y-61834752D01*
X63964553Y-61827384D01*
X63938574Y-61791626D01*
X63932058Y-61781708D01*
X63913576Y-61750458D01*
X63909543Y-61743638D01*
X63895219Y-61729314D01*
X63882377Y-61714279D01*
X63870473Y-61697894D01*
X63836407Y-61669712D01*
X63827628Y-61661723D01*
X63581218Y-61415313D01*
X63547192Y-61353001D01*
X63549755Y-61289589D01*
X63560865Y-61253022D01*
X63562370Y-61248069D01*
X63591529Y-61026590D01*
X63592681Y-60979445D01*
X63593074Y-60963365D01*
X63593074Y-60963361D01*
X63593156Y-60960000D01*
X63574852Y-60737361D01*
X63520431Y-60520702D01*
X63431354Y-60315840D01*
X63310014Y-60128277D01*
X63159670Y-59963051D01*
X63155619Y-59959852D01*
X63155615Y-59959848D01*
X62988414Y-59827800D01*
X62988410Y-59827798D01*
X62984359Y-59824598D01*
X62788789Y-59716638D01*
X62783920Y-59714914D01*
X62783916Y-59714912D01*
X62583087Y-59643795D01*
X62583083Y-59643794D01*
X62578212Y-59642069D01*
X62573119Y-59641162D01*
X62573116Y-59641161D01*
X62363373Y-59603800D01*
X62363367Y-59603799D01*
X62358284Y-59602894D01*
X62284452Y-59601992D01*
X62140081Y-59600228D01*
X62140079Y-59600228D01*
X62134911Y-59600165D01*
X61914091Y-59633955D01*
X61701756Y-59703357D01*
X61503607Y-59806507D01*
X61499474Y-59809610D01*
X61499471Y-59809612D01*
X61475247Y-59827800D01*
X61324965Y-59940635D01*
X61170629Y-60102138D01*
X61063201Y-60259621D01*
X61008293Y-60304621D01*
X60937768Y-60312792D01*
X60874021Y-60281538D01*
X60853324Y-60257054D01*
X60772822Y-60132617D01*
X60772820Y-60132614D01*
X60770014Y-60128277D01*
X60619670Y-59963051D01*
X60615619Y-59959852D01*
X60615615Y-59959848D01*
X60448414Y-59827800D01*
X60448410Y-59827798D01*
X60444359Y-59824598D01*
X60248789Y-59716638D01*
X60243920Y-59714914D01*
X60243916Y-59714912D01*
X60043087Y-59643795D01*
X60043083Y-59643794D01*
X60038212Y-59642069D01*
X60033119Y-59641162D01*
X60033116Y-59641161D01*
X59823373Y-59603800D01*
X59823367Y-59603799D01*
X59818284Y-59602894D01*
X59744452Y-59601992D01*
X59600081Y-59600228D01*
X59600079Y-59600228D01*
X59594911Y-59600165D01*
X59374091Y-59633955D01*
X59161756Y-59703357D01*
X58963607Y-59806507D01*
X58959474Y-59809610D01*
X58959471Y-59809612D01*
X58935247Y-59827800D01*
X58784965Y-59940635D01*
X58630629Y-60102138D01*
X58504743Y-60286680D01*
X58479646Y-60340747D01*
X58418112Y-60473312D01*
X58410688Y-60489305D01*
X58350989Y-60704570D01*
X58327251Y-60926695D01*
X55118000Y-60926695D01*
X55118000Y-55244000D01*
X55138002Y-55175879D01*
X55191658Y-55129386D01*
X55244000Y-55118000D01*
X108586000Y-55118000D01*
X108654121Y-55138002D01*
G37*
G04 #@! TD.AperFunction*
G04 #@! TA.AperFunction,Conductor*
G36*
X90331748Y-90218502D02*
G01*
X90352722Y-90235405D01*
X90846228Y-90728911D01*
X90858614Y-90743323D01*
X90867147Y-90754918D01*
X90867152Y-90754923D01*
X90871490Y-90760818D01*
X90877068Y-90765557D01*
X90877071Y-90765560D01*
X90911766Y-90795035D01*
X90919282Y-90801965D01*
X90924977Y-90807660D01*
X90927859Y-90809940D01*
X90947249Y-90825281D01*
X90950653Y-90828072D01*
X91000701Y-90870591D01*
X91006283Y-90875333D01*
X91012799Y-90878661D01*
X91017848Y-90882028D01*
X91022977Y-90885195D01*
X91028714Y-90889734D01*
X91094873Y-90920655D01*
X91098767Y-90922558D01*
X91163806Y-90955769D01*
X91170915Y-90957508D01*
X91176549Y-90959604D01*
X91182319Y-90961523D01*
X91188948Y-90964622D01*
X91196111Y-90966112D01*
X91196114Y-90966113D01*
X91246828Y-90976661D01*
X91260433Y-90979491D01*
X91264711Y-90980460D01*
X91296426Y-90988220D01*
X91357840Y-91023839D01*
X91390248Y-91087007D01*
X91383360Y-91157669D01*
X91356671Y-91198042D01*
X91351739Y-91201739D01*
X91264385Y-91318295D01*
X91213255Y-91454684D01*
X91206500Y-91516866D01*
X91206500Y-92163134D01*
X91213255Y-92225316D01*
X91264385Y-92361705D01*
X91351739Y-92478261D01*
X91376662Y-92496940D01*
X91433015Y-92539174D01*
X91475530Y-92596033D01*
X91480556Y-92666852D01*
X91446496Y-92729145D01*
X91433016Y-92740825D01*
X91351739Y-92801739D01*
X91264385Y-92918295D01*
X91213255Y-93054684D01*
X91206500Y-93116866D01*
X91206500Y-93763134D01*
X91206869Y-93766531D01*
X91213255Y-93825316D01*
X91210826Y-93825580D01*
X91210826Y-93854420D01*
X91213255Y-93854684D01*
X91206500Y-93916866D01*
X91206500Y-94255500D01*
X91186498Y-94323621D01*
X91132842Y-94370114D01*
X91080500Y-94381500D01*
X90741866Y-94381500D01*
X90679684Y-94388255D01*
X90679420Y-94385826D01*
X90650580Y-94385826D01*
X90650316Y-94388255D01*
X90591531Y-94381869D01*
X90588134Y-94381500D01*
X89941866Y-94381500D01*
X89938471Y-94381869D01*
X89938467Y-94381869D01*
X89910482Y-94384909D01*
X89840599Y-94372380D01*
X89788584Y-94324059D01*
X89770950Y-94255287D01*
X89777042Y-94220710D01*
X89791502Y-94176206D01*
X89793542Y-94169928D01*
X89795711Y-94149297D01*
X89812814Y-93986565D01*
X89813504Y-93980000D01*
X89793542Y-93790072D01*
X89734527Y-93608444D01*
X89639040Y-93443056D01*
X89606003Y-93406364D01*
X89515675Y-93306045D01*
X89515674Y-93306044D01*
X89511253Y-93301134D01*
X89412157Y-93229136D01*
X89362094Y-93192763D01*
X89362093Y-93192762D01*
X89356752Y-93188882D01*
X89350724Y-93186198D01*
X89350722Y-93186197D01*
X89188319Y-93113891D01*
X89188318Y-93113891D01*
X89182288Y-93111206D01*
X89088887Y-93091353D01*
X89001944Y-93072872D01*
X89001939Y-93072872D01*
X88995487Y-93071500D01*
X88804513Y-93071500D01*
X88798061Y-93072872D01*
X88798056Y-93072872D01*
X88711113Y-93091353D01*
X88617712Y-93111206D01*
X88611682Y-93113891D01*
X88611681Y-93113891D01*
X88449278Y-93186197D01*
X88449276Y-93186198D01*
X88443248Y-93188882D01*
X88437907Y-93192762D01*
X88437906Y-93192763D01*
X88387843Y-93229136D01*
X88288747Y-93301134D01*
X88284326Y-93306044D01*
X88284325Y-93306045D01*
X88193998Y-93406364D01*
X88160960Y-93443056D01*
X88065473Y-93608444D01*
X88006458Y-93790072D01*
X87986496Y-93980000D01*
X87987186Y-93986565D01*
X88004290Y-94149297D01*
X88006458Y-94169928D01*
X88008498Y-94176206D01*
X88021611Y-94216564D01*
X88023639Y-94287531D01*
X87986976Y-94348329D01*
X87923264Y-94379655D01*
X87901778Y-94381500D01*
X87541866Y-94381500D01*
X87479684Y-94388255D01*
X87479420Y-94385826D01*
X87450580Y-94385826D01*
X87450316Y-94388255D01*
X87391531Y-94381869D01*
X87388134Y-94381500D01*
X86741866Y-94381500D01*
X86679684Y-94388255D01*
X86679420Y-94385826D01*
X86650580Y-94385826D01*
X86650316Y-94388255D01*
X86591531Y-94381869D01*
X86588134Y-94381500D01*
X85941866Y-94381500D01*
X85879684Y-94388255D01*
X85879420Y-94385826D01*
X85850580Y-94385826D01*
X85850316Y-94388255D01*
X85791531Y-94381869D01*
X85788134Y-94381500D01*
X85449500Y-94381500D01*
X85381379Y-94361498D01*
X85334886Y-94307842D01*
X85323500Y-94255500D01*
X85323500Y-93916866D01*
X85316745Y-93854684D01*
X85319174Y-93854420D01*
X85319174Y-93825580D01*
X85316745Y-93825316D01*
X85323131Y-93766531D01*
X85323500Y-93763134D01*
X85323500Y-93116866D01*
X85316745Y-93054684D01*
X85319174Y-93054420D01*
X85319174Y-93025580D01*
X85316745Y-93025316D01*
X85323131Y-92966531D01*
X85323500Y-92963134D01*
X85323500Y-92316866D01*
X85316745Y-92254684D01*
X85265615Y-92118295D01*
X85178261Y-92001739D01*
X85096985Y-91940826D01*
X85054470Y-91883967D01*
X85049444Y-91813148D01*
X85083504Y-91750855D01*
X85096985Y-91739174D01*
X85171081Y-91683642D01*
X85178261Y-91678261D01*
X85265615Y-91561705D01*
X85316745Y-91425316D01*
X85323500Y-91363134D01*
X85323500Y-90716866D01*
X85316745Y-90654684D01*
X85319174Y-90654420D01*
X85319174Y-90625580D01*
X85316745Y-90625316D01*
X85323131Y-90566531D01*
X85323500Y-90563134D01*
X85323500Y-90324500D01*
X85343502Y-90256379D01*
X85397158Y-90209886D01*
X85449500Y-90198500D01*
X90263627Y-90198500D01*
X90331748Y-90218502D01*
G37*
G04 #@! TD.AperFunction*
G04 #@! TA.AperFunction,Conductor*
G36*
X103333146Y-84356924D02*
G01*
X103389982Y-84399471D01*
X103414905Y-84467727D01*
X103416881Y-84501990D01*
X103425110Y-84644715D01*
X103426247Y-84649761D01*
X103426248Y-84649767D01*
X103458453Y-84792668D01*
X103453917Y-84863520D01*
X103424631Y-84909464D01*
X102477747Y-85856348D01*
X102469461Y-85863888D01*
X102462982Y-85868000D01*
X102457557Y-85873777D01*
X102416357Y-85917651D01*
X102413602Y-85920493D01*
X102393865Y-85940230D01*
X102391385Y-85943427D01*
X102383682Y-85952447D01*
X102353414Y-85984679D01*
X102349595Y-85991625D01*
X102349593Y-85991628D01*
X102343652Y-86002434D01*
X102332801Y-86018953D01*
X102320386Y-86034959D01*
X102317241Y-86042228D01*
X102317238Y-86042232D01*
X102302826Y-86075537D01*
X102297609Y-86086187D01*
X102276305Y-86124940D01*
X102274334Y-86132615D01*
X102274334Y-86132616D01*
X102271267Y-86144562D01*
X102264863Y-86163266D01*
X102256819Y-86181855D01*
X102255580Y-86189678D01*
X102255577Y-86189688D01*
X102249901Y-86225524D01*
X102247495Y-86237144D01*
X102241971Y-86258662D01*
X102236500Y-86279970D01*
X102236500Y-86300224D01*
X102234949Y-86319934D01*
X102231780Y-86339943D01*
X102232526Y-86347835D01*
X102235941Y-86383961D01*
X102236500Y-86395819D01*
X102236500Y-87315406D01*
X102216498Y-87383527D01*
X102199595Y-87404501D01*
X96834500Y-92769595D01*
X96772188Y-92803621D01*
X96745405Y-92806500D01*
X93876861Y-92806500D01*
X93808740Y-92786498D01*
X93762247Y-92732842D01*
X93752143Y-92662568D01*
X93781637Y-92597988D01*
X93833868Y-92562062D01*
X93844295Y-92558277D01*
X93848457Y-92556848D01*
X93910938Y-92536607D01*
X93910940Y-92536606D01*
X93917901Y-92534351D01*
X93924156Y-92530555D01*
X93929630Y-92528049D01*
X93935060Y-92525330D01*
X93941939Y-92522833D01*
X94002978Y-92482814D01*
X94006682Y-92480477D01*
X94069109Y-92442595D01*
X94077486Y-92435197D01*
X94077510Y-92435224D01*
X94080501Y-92432572D01*
X94083735Y-92429868D01*
X94089854Y-92425856D01*
X94143099Y-92369650D01*
X94145475Y-92367208D01*
X94253915Y-92258767D01*
X94268329Y-92246380D01*
X94279920Y-92237850D01*
X94285819Y-92233509D01*
X94320041Y-92193227D01*
X94326971Y-92185711D01*
X94332661Y-92180021D01*
X94334919Y-92177167D01*
X94334928Y-92177157D01*
X94350275Y-92157759D01*
X94353063Y-92154359D01*
X94395596Y-92104294D01*
X94395599Y-92104290D01*
X94400334Y-92098716D01*
X94403661Y-92092201D01*
X94407020Y-92087164D01*
X94410193Y-92082026D01*
X94414735Y-92076285D01*
X94445656Y-92010126D01*
X94447562Y-92006226D01*
X94452601Y-91996358D01*
X94480770Y-91941193D01*
X94482509Y-91934084D01*
X94484605Y-91928450D01*
X94486524Y-91922680D01*
X94489623Y-91916051D01*
X94504492Y-91844566D01*
X94505462Y-91840283D01*
X94509569Y-91823500D01*
X94522809Y-91769391D01*
X94523501Y-91758237D01*
X94523536Y-91758239D01*
X94523776Y-91754267D01*
X94524153Y-91750046D01*
X94525642Y-91742886D01*
X94523547Y-91665459D01*
X94523501Y-91662051D01*
X94523501Y-90472069D01*
X94524934Y-90453119D01*
X94527100Y-90438884D01*
X94527100Y-90438880D01*
X94528200Y-90431650D01*
X94527427Y-90422137D01*
X94523916Y-90378981D01*
X94523501Y-90368766D01*
X94523501Y-90360706D01*
X94520210Y-90332479D01*
X94519779Y-90328120D01*
X94514454Y-90262659D01*
X94513861Y-90255363D01*
X94511605Y-90248401D01*
X94510416Y-90242448D01*
X94509030Y-90236584D01*
X94508183Y-90229318D01*
X94507213Y-90226647D01*
X94510911Y-90157588D01*
X94552434Y-90100000D01*
X94618499Y-90074002D01*
X94629736Y-90073500D01*
X94910405Y-90073500D01*
X94978526Y-90093502D01*
X94999501Y-90110405D01*
X95242460Y-90353365D01*
X95451353Y-90562258D01*
X95458887Y-90570537D01*
X95463000Y-90577018D01*
X95496309Y-90608297D01*
X95512651Y-90623643D01*
X95515493Y-90626398D01*
X95535230Y-90646135D01*
X95538427Y-90648615D01*
X95547447Y-90656318D01*
X95579679Y-90686586D01*
X95586625Y-90690405D01*
X95586628Y-90690407D01*
X95597434Y-90696348D01*
X95613953Y-90707199D01*
X95629959Y-90719614D01*
X95637228Y-90722759D01*
X95637232Y-90722762D01*
X95670537Y-90737174D01*
X95681187Y-90742391D01*
X95719940Y-90763695D01*
X95727615Y-90765666D01*
X95727616Y-90765666D01*
X95739562Y-90768733D01*
X95758267Y-90775137D01*
X95776855Y-90783181D01*
X95784678Y-90784420D01*
X95784688Y-90784423D01*
X95820524Y-90790099D01*
X95832144Y-90792505D01*
X95867289Y-90801528D01*
X95874970Y-90803500D01*
X95895224Y-90803500D01*
X95914945Y-90805053D01*
X95918075Y-90805549D01*
X95955027Y-90818165D01*
X95958295Y-90820615D01*
X96094684Y-90871745D01*
X96156866Y-90878500D01*
X98153134Y-90878500D01*
X98215316Y-90871745D01*
X98351705Y-90820615D01*
X98468261Y-90733261D01*
X98555615Y-90616705D01*
X98606745Y-90480316D01*
X98613500Y-90418134D01*
X98613500Y-89921866D01*
X98606745Y-89859684D01*
X98555615Y-89723295D01*
X98468261Y-89606739D01*
X98351705Y-89519385D01*
X98215316Y-89468255D01*
X98153134Y-89461500D01*
X96194595Y-89461500D01*
X96126474Y-89441498D01*
X96105499Y-89424595D01*
X95728647Y-89047742D01*
X95721113Y-89039463D01*
X95717000Y-89032982D01*
X95667348Y-88986356D01*
X95664507Y-88983602D01*
X95644770Y-88963865D01*
X95641631Y-88961430D01*
X95640154Y-88960128D01*
X95602285Y-88900074D01*
X95602894Y-88829080D01*
X95634386Y-88776520D01*
X95924203Y-88486703D01*
X95986515Y-88452677D01*
X96057526Y-88457815D01*
X96094684Y-88471745D01*
X96102532Y-88472598D01*
X96102534Y-88472598D01*
X96153469Y-88478131D01*
X96156866Y-88478500D01*
X98153134Y-88478500D01*
X98215316Y-88471745D01*
X98351705Y-88420615D01*
X98468261Y-88333261D01*
X98555615Y-88216705D01*
X98606745Y-88080316D01*
X98613500Y-88018134D01*
X98613500Y-87949500D01*
X98633502Y-87881379D01*
X98687158Y-87834886D01*
X98739500Y-87823500D01*
X99421233Y-87823500D01*
X99432416Y-87824027D01*
X99439909Y-87825702D01*
X99447835Y-87825453D01*
X99447836Y-87825453D01*
X99507986Y-87823562D01*
X99511945Y-87823500D01*
X99539856Y-87823500D01*
X99543791Y-87823003D01*
X99543856Y-87822995D01*
X99555693Y-87822062D01*
X99587951Y-87821048D01*
X99591970Y-87820922D01*
X99599889Y-87820673D01*
X99619343Y-87815021D01*
X99638700Y-87811013D01*
X99650930Y-87809468D01*
X99650931Y-87809468D01*
X99658797Y-87808474D01*
X99666168Y-87805555D01*
X99666170Y-87805555D01*
X99699912Y-87792196D01*
X99711142Y-87788351D01*
X99745983Y-87778229D01*
X99745984Y-87778229D01*
X99753593Y-87776018D01*
X99760412Y-87771985D01*
X99760417Y-87771983D01*
X99771028Y-87765707D01*
X99788776Y-87757012D01*
X99807617Y-87749552D01*
X99843387Y-87723564D01*
X99853307Y-87717048D01*
X99884535Y-87698580D01*
X99884538Y-87698578D01*
X99891362Y-87694542D01*
X99905683Y-87680221D01*
X99920717Y-87667380D01*
X99930694Y-87660131D01*
X99937107Y-87655472D01*
X99965298Y-87621395D01*
X99973288Y-87612616D01*
X103200019Y-84385885D01*
X103262331Y-84351859D01*
X103333146Y-84356924D01*
G37*
G04 #@! TD.AperFunction*
M02*
