G04 #@! TF.GenerationSoftware,KiCad,Pcbnew,6.0.1-79c1e3a40b~116~ubuntu21.04.1*
G04 #@! TF.CreationDate,2022-02-15T15:37:09-05:00*
G04 #@! TF.ProjectId,oven,6f76656e-2e6b-4696-9361-645f70636258,1.0*
G04 #@! TF.SameCoordinates,Original*
G04 #@! TF.FileFunction,Soldermask,Top*
G04 #@! TF.FilePolarity,Negative*
%FSLAX46Y46*%
G04 Gerber Fmt 4.6, Leading zero omitted, Abs format (unit mm)*
G04 Created by KiCad (PCBNEW 6.0.1-79c1e3a40b~116~ubuntu21.04.1) date 2022-02-15 15:37:09*
%MOMM*%
%LPD*%
G01*
G04 APERTURE LIST*
G04 Aperture macros list*
%AMRoundRect*
0 Rectangle with rounded corners*
0 $1 Rounding radius*
0 $2 $3 $4 $5 $6 $7 $8 $9 X,Y pos of 4 corners*
0 Add a 4 corners polygon primitive as box body*
4,1,4,$2,$3,$4,$5,$6,$7,$8,$9,$2,$3,0*
0 Add four circle primitives for the rounded corners*
1,1,$1+$1,$2,$3*
1,1,$1+$1,$4,$5*
1,1,$1+$1,$6,$7*
1,1,$1+$1,$8,$9*
0 Add four rect primitives between the rounded corners*
20,1,$1+$1,$2,$3,$4,$5,0*
20,1,$1+$1,$4,$5,$6,$7,0*
20,1,$1+$1,$6,$7,$8,$9,0*
20,1,$1+$1,$8,$9,$2,$3,0*%
G04 Aperture macros list end*
%ADD10O,1.700000X1.700000*%
%ADD11R,1.700000X1.700000*%
%ADD12R,1.900000X0.400000*%
%ADD13RoundRect,0.150000X-0.800000X-0.150000X0.800000X-0.150000X0.800000X0.150000X-0.800000X0.150000X0*%
%ADD14RoundRect,0.200000X-0.200000X-0.275000X0.200000X-0.275000X0.200000X0.275000X-0.200000X0.275000X0*%
%ADD15R,1.000000X1.500000*%
%ADD16C,1.700000*%
%ADD17RoundRect,0.250000X0.600000X-0.600000X0.600000X0.600000X-0.600000X0.600000X-0.600000X-0.600000X0*%
%ADD18C,3.900000*%
%ADD19RoundRect,0.250002X-1.699998X-1.699998X1.699998X-1.699998X1.699998X1.699998X-1.699998X1.699998X0*%
%ADD20RoundRect,0.250002X1.699998X-1.699998X1.699998X1.699998X-1.699998X1.699998X-1.699998X-1.699998X0*%
%ADD21RoundRect,0.225000X0.250000X-0.225000X0.250000X0.225000X-0.250000X0.225000X-0.250000X-0.225000X0*%
%ADD22RoundRect,0.225000X-0.225000X-0.250000X0.225000X-0.250000X0.225000X0.250000X-0.225000X0.250000X0*%
%ADD23RoundRect,0.225000X0.225000X0.250000X-0.225000X0.250000X-0.225000X-0.250000X0.225000X-0.250000X0*%
%ADD24RoundRect,0.225000X-0.250000X0.225000X-0.250000X-0.225000X0.250000X-0.225000X0.250000X0.225000X0*%
%ADD25C,3.500000*%
%ADD26C,0.800000*%
%ADD27C,7.000000*%
%ADD28C,5.000000*%
%ADD29R,0.550000X1.600000*%
%ADD30R,1.600000X0.550000*%
G04 APERTURE END LIST*
D10*
X104775000Y-106045000D03*
D11*
X104775000Y-103505000D03*
D10*
X104775000Y-115570000D03*
D11*
X104775000Y-113030000D03*
D10*
X104775000Y-94615000D03*
X104775000Y-92075000D03*
X104775000Y-89535000D03*
X104775000Y-86995000D03*
X104775000Y-84455000D03*
X104775000Y-81915000D03*
X104775000Y-79375000D03*
D11*
X104775000Y-76835000D03*
D12*
X97155000Y-90170000D03*
X97155000Y-88970000D03*
X97155000Y-87770000D03*
D13*
X85415000Y-71755000D03*
X85415000Y-73025000D03*
X85415000Y-74295000D03*
X85415000Y-75565000D03*
X78415000Y-75565000D03*
X78415000Y-74295000D03*
X78415000Y-73025000D03*
X78415000Y-71755000D03*
D14*
X88645000Y-102870000D03*
X86995000Y-102870000D03*
D15*
X100965000Y-115570000D03*
X99665000Y-115570000D03*
D10*
X81915000Y-109220000D03*
X84455000Y-109220000D03*
X86995000Y-109220000D03*
X89535000Y-109220000D03*
X92075000Y-109220000D03*
D11*
X94615000Y-109220000D03*
D16*
X64770000Y-60960000D03*
X62230000Y-60960000D03*
X59690000Y-60960000D03*
X64770000Y-63500000D03*
X62230000Y-63500000D03*
D17*
X59690000Y-63500000D03*
D10*
X104775000Y-66675000D03*
X104775000Y-64135000D03*
X104775000Y-61595000D03*
D11*
X104775000Y-59055000D03*
D18*
X87810000Y-145415000D03*
D19*
X80010000Y-145415000D03*
D20*
X80010000Y-125095000D03*
X80010000Y-135255000D03*
D21*
X80645000Y-90170000D03*
X80645000Y-91720000D03*
D22*
X85230000Y-102870000D03*
X83680000Y-102870000D03*
D23*
X90805000Y-102870000D03*
X92355000Y-102870000D03*
D24*
X74295000Y-73940000D03*
X74295000Y-72390000D03*
D25*
X79610000Y-62560000D03*
D26*
X81466155Y-155703845D03*
X79610000Y-154935000D03*
X77753845Y-155703845D03*
X76985000Y-157560000D03*
X77753845Y-159416155D03*
X79610000Y-160185000D03*
X81466155Y-159416155D03*
X82235000Y-157560000D03*
D27*
X79610000Y-157560000D03*
D28*
X64770000Y-152400000D03*
X64770000Y-142875000D03*
X64770000Y-133350000D03*
X64770000Y-123825000D03*
X64770000Y-114300000D03*
X64770000Y-104775000D03*
X64770000Y-95250000D03*
X64770000Y-85725000D03*
X64770000Y-76200000D03*
D29*
X91065000Y-95690000D03*
X90265000Y-95690000D03*
X89465000Y-95690000D03*
X88665000Y-95690000D03*
X87865000Y-95690000D03*
X87065000Y-95690000D03*
X86265000Y-95690000D03*
X85465000Y-95690000D03*
D30*
X84015000Y-94240000D03*
X84015000Y-93440000D03*
X84015000Y-92640000D03*
X84015000Y-91840000D03*
X84015000Y-91040000D03*
X84015000Y-90240000D03*
X84015000Y-89440000D03*
X84015000Y-88640000D03*
D29*
X85465000Y-87190000D03*
X86265000Y-87190000D03*
X87065000Y-87190000D03*
X87865000Y-87190000D03*
X88665000Y-87190000D03*
X89465000Y-87190000D03*
X90265000Y-87190000D03*
X91065000Y-87190000D03*
D30*
X92515000Y-88640000D03*
X92515000Y-89440000D03*
X92515000Y-90240000D03*
X92515000Y-91040000D03*
X92515000Y-91840000D03*
X92515000Y-92640000D03*
X92515000Y-93440000D03*
X92515000Y-94240000D03*
M02*
