%FSLAX45Y45*%
G04 Gerber Fmt 4.5, Leading zero omitted, Abs format (unit mm)*
G04 Created by KiCad (PCBNEW 6.0.1-79c1e3a40b~116~ubuntu21.04.1) date 2022-02-15 15:37:36*
%MOMM*%
%LPD*%
G01*
G04 APERTURE LIST*
%TA.AperFunction,Profile*%
%ADD10C,0.050000*%
%TD*%
%ADD11C,0.200000*%
%ADD12C,0.350000*%
G04 APERTURE END LIST*
D10*
X10922000Y-16256000D02*
X5461000Y-16256000D01*
X10922000Y-12573000D02*
X10922000Y-16256000D01*
X10922000Y-11049000D02*
X10922000Y-12573000D01*
X10922000Y-5461000D02*
X10922000Y-11049000D01*
X5461000Y-5461000D02*
X10922000Y-5461000D01*
X5461000Y-16256000D02*
X5461000Y-5461000D01*
D11*
D12*
X7786000Y-6081000D02*
X8136000Y-6431000D01*
X8136000Y-6081000D02*
X7786000Y-6431000D01*
D11*
X5716119Y-16568976D02*
X5716119Y-16368976D01*
X5763738Y-16368976D01*
X5792309Y-16378500D01*
X5811357Y-16397548D01*
X5820881Y-16416595D01*
X5830405Y-16454690D01*
X5830405Y-16483262D01*
X5820881Y-16521357D01*
X5811357Y-16540405D01*
X5792309Y-16559452D01*
X5763738Y-16568976D01*
X5716119Y-16568976D01*
X5916119Y-16568976D02*
X5916119Y-16435643D01*
X5916119Y-16473738D02*
X5925643Y-16454690D01*
X5935167Y-16445167D01*
X5954214Y-16435643D01*
X5973262Y-16435643D01*
X6039928Y-16568976D02*
X6039928Y-16435643D01*
X6039928Y-16368976D02*
X6030405Y-16378500D01*
X6039928Y-16388024D01*
X6049452Y-16378500D01*
X6039928Y-16368976D01*
X6039928Y-16388024D01*
X6163738Y-16568976D02*
X6144690Y-16559452D01*
X6135167Y-16540405D01*
X6135167Y-16368976D01*
X6268500Y-16568976D02*
X6249452Y-16559452D01*
X6239928Y-16540405D01*
X6239928Y-16368976D01*
X6497071Y-16568976D02*
X6497071Y-16368976D01*
X6563738Y-16511833D01*
X6630405Y-16368976D01*
X6630405Y-16568976D01*
X6811357Y-16568976D02*
X6811357Y-16464214D01*
X6801833Y-16445167D01*
X6782786Y-16435643D01*
X6744690Y-16435643D01*
X6725643Y-16445167D01*
X6811357Y-16559452D02*
X6792309Y-16568976D01*
X6744690Y-16568976D01*
X6725643Y-16559452D01*
X6716119Y-16540405D01*
X6716119Y-16521357D01*
X6725643Y-16502309D01*
X6744690Y-16492786D01*
X6792309Y-16492786D01*
X6811357Y-16483262D01*
X6906595Y-16435643D02*
X6906595Y-16635643D01*
X6906595Y-16445167D02*
X6925643Y-16435643D01*
X6963738Y-16435643D01*
X6982786Y-16445167D01*
X6992309Y-16454690D01*
X7001833Y-16473738D01*
X7001833Y-16530881D01*
X6992309Y-16549928D01*
X6982786Y-16559452D01*
X6963738Y-16568976D01*
X6925643Y-16568976D01*
X6906595Y-16559452D01*
X7087548Y-16549928D02*
X7097071Y-16559452D01*
X7087548Y-16568976D01*
X7078024Y-16559452D01*
X7087548Y-16549928D01*
X7087548Y-16568976D01*
X7087548Y-16445167D02*
X7097071Y-16454690D01*
X7087548Y-16464214D01*
X7078024Y-16454690D01*
X7087548Y-16445167D01*
X7087548Y-16464214D01*
X5258500Y-16798500D02*
X5458500Y-16998500D01*
X5458500Y-16798500D02*
X5258500Y-16998500D01*
X5697071Y-16788976D02*
X5820881Y-16788976D01*
X5754214Y-16865167D01*
X5782786Y-16865167D01*
X5801833Y-16874690D01*
X5811357Y-16884214D01*
X5820881Y-16903262D01*
X5820881Y-16950881D01*
X5811357Y-16969929D01*
X5801833Y-16979452D01*
X5782786Y-16988976D01*
X5725643Y-16988976D01*
X5706595Y-16979452D01*
X5697071Y-16969929D01*
X5906595Y-16969929D02*
X5916119Y-16979452D01*
X5906595Y-16988976D01*
X5897071Y-16979452D01*
X5906595Y-16969929D01*
X5906595Y-16988976D01*
X6097071Y-16788976D02*
X6001833Y-16788976D01*
X5992309Y-16884214D01*
X6001833Y-16874690D01*
X6020881Y-16865167D01*
X6068500Y-16865167D01*
X6087548Y-16874690D01*
X6097071Y-16884214D01*
X6106595Y-16903262D01*
X6106595Y-16950881D01*
X6097071Y-16969929D01*
X6087548Y-16979452D01*
X6068500Y-16988976D01*
X6020881Y-16988976D01*
X6001833Y-16979452D01*
X5992309Y-16969929D01*
X6230405Y-16788976D02*
X6249452Y-16788976D01*
X6268500Y-16798500D01*
X6278024Y-16808024D01*
X6287548Y-16827071D01*
X6297071Y-16865167D01*
X6297071Y-16912786D01*
X6287548Y-16950881D01*
X6278024Y-16969929D01*
X6268500Y-16979452D01*
X6249452Y-16988976D01*
X6230405Y-16988976D01*
X6211357Y-16979452D01*
X6201833Y-16969929D01*
X6192309Y-16950881D01*
X6182786Y-16912786D01*
X6182786Y-16865167D01*
X6192309Y-16827071D01*
X6201833Y-16808024D01*
X6211357Y-16798500D01*
X6230405Y-16788976D01*
X6420881Y-16788976D02*
X6439928Y-16788976D01*
X6458976Y-16798500D01*
X6468500Y-16808024D01*
X6478024Y-16827071D01*
X6487548Y-16865167D01*
X6487548Y-16912786D01*
X6478024Y-16950881D01*
X6468500Y-16969929D01*
X6458976Y-16979452D01*
X6439928Y-16988976D01*
X6420881Y-16988976D01*
X6401833Y-16979452D01*
X6392309Y-16969929D01*
X6382786Y-16950881D01*
X6373262Y-16912786D01*
X6373262Y-16865167D01*
X6382786Y-16827071D01*
X6392309Y-16808024D01*
X6401833Y-16798500D01*
X6420881Y-16788976D01*
X6573262Y-16988976D02*
X6573262Y-16855643D01*
X6573262Y-16874690D02*
X6582786Y-16865167D01*
X6601833Y-16855643D01*
X6630405Y-16855643D01*
X6649452Y-16865167D01*
X6658976Y-16884214D01*
X6658976Y-16988976D01*
X6658976Y-16884214D02*
X6668500Y-16865167D01*
X6687548Y-16855643D01*
X6716119Y-16855643D01*
X6735167Y-16865167D01*
X6744690Y-16884214D01*
X6744690Y-16988976D01*
X6839928Y-16988976D02*
X6839928Y-16855643D01*
X6839928Y-16874690D02*
X6849452Y-16865167D01*
X6868500Y-16855643D01*
X6897071Y-16855643D01*
X6916119Y-16865167D01*
X6925643Y-16884214D01*
X6925643Y-16988976D01*
X6925643Y-16884214D02*
X6935167Y-16865167D01*
X6954214Y-16855643D01*
X6982786Y-16855643D01*
X7001833Y-16865167D01*
X7011357Y-16884214D01*
X7011357Y-16988976D01*
X7401833Y-16779452D02*
X7230405Y-17036595D01*
X7658976Y-16788976D02*
X7678024Y-16788976D01*
X7697071Y-16798500D01*
X7706595Y-16808024D01*
X7716119Y-16827071D01*
X7725643Y-16865167D01*
X7725643Y-16912786D01*
X7716119Y-16950881D01*
X7706595Y-16969929D01*
X7697071Y-16979452D01*
X7678024Y-16988976D01*
X7658976Y-16988976D01*
X7639928Y-16979452D01*
X7630405Y-16969929D01*
X7620881Y-16950881D01*
X7611357Y-16912786D01*
X7611357Y-16865167D01*
X7620881Y-16827071D01*
X7630405Y-16808024D01*
X7639928Y-16798500D01*
X7658976Y-16788976D01*
X7811357Y-16969929D02*
X7820881Y-16979452D01*
X7811357Y-16988976D01*
X7801833Y-16979452D01*
X7811357Y-16969929D01*
X7811357Y-16988976D01*
X8011357Y-16988976D02*
X7897071Y-16988976D01*
X7954214Y-16988976D02*
X7954214Y-16788976D01*
X7935167Y-16817548D01*
X7916119Y-16836595D01*
X7897071Y-16846119D01*
X8078024Y-16788976D02*
X8201833Y-16788976D01*
X8135167Y-16865167D01*
X8163738Y-16865167D01*
X8182786Y-16874690D01*
X8192309Y-16884214D01*
X8201833Y-16903262D01*
X8201833Y-16950881D01*
X8192309Y-16969929D01*
X8182786Y-16979452D01*
X8163738Y-16988976D01*
X8106595Y-16988976D01*
X8087548Y-16979452D01*
X8078024Y-16969929D01*
X8268500Y-16788976D02*
X8401833Y-16788976D01*
X8316119Y-16988976D01*
X8506595Y-16874690D02*
X8487548Y-16865167D01*
X8478024Y-16855643D01*
X8468500Y-16836595D01*
X8468500Y-16827071D01*
X8478024Y-16808024D01*
X8487548Y-16798500D01*
X8506595Y-16788976D01*
X8544690Y-16788976D01*
X8563738Y-16798500D01*
X8573262Y-16808024D01*
X8582786Y-16827071D01*
X8582786Y-16836595D01*
X8573262Y-16855643D01*
X8563738Y-16865167D01*
X8544690Y-16874690D01*
X8506595Y-16874690D01*
X8487548Y-16884214D01*
X8478024Y-16893738D01*
X8468500Y-16912786D01*
X8468500Y-16950881D01*
X8478024Y-16969929D01*
X8487548Y-16979452D01*
X8506595Y-16988976D01*
X8544690Y-16988976D01*
X8563738Y-16979452D01*
X8573262Y-16969929D01*
X8582786Y-16950881D01*
X8582786Y-16912786D01*
X8573262Y-16893738D01*
X8563738Y-16884214D01*
X8544690Y-16874690D01*
X8658976Y-16788976D02*
X8658976Y-16827071D01*
X8735167Y-16788976D02*
X8735167Y-16827071D01*
X9030405Y-17065167D02*
X9020881Y-17055643D01*
X9001833Y-17027071D01*
X8992310Y-17008024D01*
X8982786Y-16979452D01*
X8973262Y-16931833D01*
X8973262Y-16893738D01*
X8982786Y-16846119D01*
X8992310Y-16817548D01*
X9001833Y-16798500D01*
X9020881Y-16769928D01*
X9030405Y-16760405D01*
X9211357Y-16988976D02*
X9097071Y-16988976D01*
X9154214Y-16988976D02*
X9154214Y-16788976D01*
X9135167Y-16817548D01*
X9116119Y-16836595D01*
X9097071Y-16846119D01*
X9449452Y-16988976D02*
X9449452Y-16788976D01*
X9535167Y-16988976D02*
X9535167Y-16884214D01*
X9525643Y-16865167D01*
X9506595Y-16855643D01*
X9478024Y-16855643D01*
X9458976Y-16865167D01*
X9449452Y-16874690D01*
X9658976Y-16988976D02*
X9639929Y-16979452D01*
X9630405Y-16969929D01*
X9620881Y-16950881D01*
X9620881Y-16893738D01*
X9630405Y-16874690D01*
X9639929Y-16865167D01*
X9658976Y-16855643D01*
X9687548Y-16855643D01*
X9706595Y-16865167D01*
X9716119Y-16874690D01*
X9725643Y-16893738D01*
X9725643Y-16950881D01*
X9716119Y-16969929D01*
X9706595Y-16979452D01*
X9687548Y-16988976D01*
X9658976Y-16988976D01*
X9839929Y-16988976D02*
X9820881Y-16979452D01*
X9811357Y-16960405D01*
X9811357Y-16788976D01*
X9992310Y-16979452D02*
X9973262Y-16988976D01*
X9935167Y-16988976D01*
X9916119Y-16979452D01*
X9906595Y-16960405D01*
X9906595Y-16884214D01*
X9916119Y-16865167D01*
X9935167Y-16855643D01*
X9973262Y-16855643D01*
X9992310Y-16865167D01*
X10001833Y-16884214D01*
X10001833Y-16903262D01*
X9906595Y-16922310D01*
X10068500Y-17065167D02*
X10078024Y-17055643D01*
X10097071Y-17027071D01*
X10106595Y-17008024D01*
X10116119Y-16979452D01*
X10125643Y-16931833D01*
X10125643Y-16893738D01*
X10116119Y-16846119D01*
X10106595Y-16817548D01*
X10097071Y-16798500D01*
X10078024Y-16769928D01*
X10068500Y-16760405D01*
X10430405Y-17065167D02*
X10420881Y-17055643D01*
X10401833Y-17027071D01*
X10392310Y-17008024D01*
X10382786Y-16979452D01*
X10373262Y-16931833D01*
X10373262Y-16893738D01*
X10382786Y-16846119D01*
X10392310Y-16817548D01*
X10401833Y-16798500D01*
X10420881Y-16769928D01*
X10430405Y-16760405D01*
X10506595Y-16855643D02*
X10506595Y-16988976D01*
X10506595Y-16874690D02*
X10516119Y-16865167D01*
X10535167Y-16855643D01*
X10563738Y-16855643D01*
X10582786Y-16865167D01*
X10592310Y-16884214D01*
X10592310Y-16988976D01*
X10716119Y-16988976D02*
X10697071Y-16979452D01*
X10687548Y-16969929D01*
X10678024Y-16950881D01*
X10678024Y-16893738D01*
X10687548Y-16874690D01*
X10697071Y-16865167D01*
X10716119Y-16855643D01*
X10744690Y-16855643D01*
X10763738Y-16865167D01*
X10773262Y-16874690D01*
X10782786Y-16893738D01*
X10782786Y-16950881D01*
X10773262Y-16969929D01*
X10763738Y-16979452D01*
X10744690Y-16988976D01*
X10716119Y-16988976D01*
X10839929Y-16855643D02*
X10916119Y-16855643D01*
X10868500Y-16788976D02*
X10868500Y-16960405D01*
X10878024Y-16979452D01*
X10897071Y-16988976D01*
X10916119Y-16988976D01*
X11135167Y-16855643D02*
X11135167Y-17055643D01*
X11135167Y-16865167D02*
X11154214Y-16855643D01*
X11192309Y-16855643D01*
X11211357Y-16865167D01*
X11220881Y-16874690D01*
X11230405Y-16893738D01*
X11230405Y-16950881D01*
X11220881Y-16969929D01*
X11211357Y-16979452D01*
X11192309Y-16988976D01*
X11154214Y-16988976D01*
X11135167Y-16979452D01*
X11344690Y-16988976D02*
X11325643Y-16979452D01*
X11316119Y-16960405D01*
X11316119Y-16788976D01*
X11506595Y-16988976D02*
X11506595Y-16884214D01*
X11497071Y-16865167D01*
X11478024Y-16855643D01*
X11439928Y-16855643D01*
X11420881Y-16865167D01*
X11506595Y-16979452D02*
X11487548Y-16988976D01*
X11439928Y-16988976D01*
X11420881Y-16979452D01*
X11411357Y-16960405D01*
X11411357Y-16941357D01*
X11420881Y-16922310D01*
X11439928Y-16912786D01*
X11487548Y-16912786D01*
X11506595Y-16903262D01*
X11573262Y-16855643D02*
X11649452Y-16855643D01*
X11601833Y-16788976D02*
X11601833Y-16960405D01*
X11611357Y-16979452D01*
X11630405Y-16988976D01*
X11649452Y-16988976D01*
X11792309Y-16979452D02*
X11773262Y-16988976D01*
X11735167Y-16988976D01*
X11716119Y-16979452D01*
X11706595Y-16960405D01*
X11706595Y-16884214D01*
X11716119Y-16865167D01*
X11735167Y-16855643D01*
X11773262Y-16855643D01*
X11792309Y-16865167D01*
X11801833Y-16884214D01*
X11801833Y-16903262D01*
X11706595Y-16922310D01*
X11973262Y-16988976D02*
X11973262Y-16788976D01*
X11973262Y-16979452D02*
X11954214Y-16988976D01*
X11916119Y-16988976D01*
X11897071Y-16979452D01*
X11887548Y-16969929D01*
X11878024Y-16950881D01*
X11878024Y-16893738D01*
X11887548Y-16874690D01*
X11897071Y-16865167D01*
X11916119Y-16855643D01*
X11954214Y-16855643D01*
X11973262Y-16865167D01*
X12049452Y-17065167D02*
X12058976Y-17055643D01*
X12078024Y-17027071D01*
X12087548Y-17008024D01*
X12097071Y-16979452D01*
X12106595Y-16931833D01*
X12106595Y-16893738D01*
X12097071Y-16846119D01*
X12087548Y-16817548D01*
X12078024Y-16798500D01*
X12058976Y-16769928D01*
X12049452Y-16760405D01*
M02*
